STARTFONT 2.1
COMMENT
COMMENT Converted from OpenType font "NotoSansTC-Thin.ttf" by "otf2bdf 3.0".
COMMENT
FONT -FreeType-Noto Sans TC Thin-Medium-R-Normal--13-180-57-53-P-127-ISO10646-1
SIZE 18 57 53
FONTBOUNDINGBOX 48 24 -14 -7
STARTPROPERTIES 19
FOUNDRY "FreeType"
FAMILY_NAME "Noto Sans TC Thin"
WEIGHT_NAME "Medium"
SLANT "R"
SETWIDTH_NAME "Normal"
ADD_STYLE_NAME ""
PIXEL_SIZE 13
POINT_SIZE 180
RESOLUTION_X 57
RESOLUTION_Y 53
SPACING "P"
AVERAGE_WIDTH 127
CHARSET_REGISTRY "ISO10646"
CHARSET_ENCODING "1"
FONT_ASCENT 15
FONT_DESCENT 3
COPYRIGHT "(c) 2014-2021 Adobe (http://www.adobe.com/), with Reserved Font Name 'Source'."
_OTF_FONTFILE "NotoSansTC-Thin.ttf"
_OTF_PSNAME "NotoSansTC-Thin"
ENDPROPERTIES
CHARS 18797
STARTCHAR 0020
ENCODING 32
SWIDTH 226 0
DWIDTH 3 0
BBX 0 0 0 0
BITMAP
ENDCHAR
STARTCHAR 0021
ENCODING 33
SWIDTH 301 0
DWIDTH 4 0
BBX 2 10 1 0
BITMAP
80
80
80
80
80
80
80
00
00
C0
ENDCHAR
STARTCHAR 0022
ENCODING 34
SWIDTH 377 0
DWIDTH 5 0
BBX 3 3 1 7
BITMAP
A0
A0
A0
ENDCHAR
STARTCHAR 0023
ENCODING 35
SWIDTH 528 0
DWIDTH 7 0
BBX 6 9 1 0
BITMAP
48
48
FC
48
48
FC
50
90
90
ENDCHAR
STARTCHAR 0024
ENCODING 36
SWIDTH 528 0
DWIDTH 7 0
BBX 5 13 1 -2
BITMAP
20
30
48
80
80
60
10
08
08
08
D8
20
20
ENDCHAR
STARTCHAR 0025
ENCODING 37
SWIDTH 981 0
DWIDTH 13 0
BBX 11 10 1 0
BITMAP
6100
9100
9200
9200
94C0
B520
4A20
1220
1220
21C0
ENDCHAR
STARTCHAR 0026
ENCODING 38
SWIDTH 679 0
DWIDTH 9 0
BBX 8 10 1 0
BITMAP
30
48
48
50
20
61
92
8A
84
FB
ENDCHAR
STARTCHAR 0027
ENCODING 39
SWIDTH 226 0
DWIDTH 3 0
BBX 1 3 1 7
BITMAP
80
80
80
ENDCHAR
STARTCHAR 0028
ENCODING 40
SWIDTH 301 0
DWIDTH 4 0
BBX 3 14 1 -3
BITMAP
20
40
40
40
80
80
80
80
80
80
40
40
20
20
ENDCHAR
STARTCHAR 0029
ENCODING 41
SWIDTH 301 0
DWIDTH 4 0
BBX 3 14 0 -3
BITMAP
80
40
40
20
20
20
20
20
20
20
20
40
40
80
ENDCHAR
STARTCHAR 002A
ENCODING 42
SWIDTH 452 0
DWIDTH 6 0
BBX 4 3 1 7
BITMAP
A0
70
60
ENDCHAR
STARTCHAR 002B
ENCODING 43
SWIDTH 528 0
DWIDTH 7 0
BBX 6 6 1 2
BITMAP
20
20
20
FC
20
20
ENDCHAR
STARTCHAR 002C
ENCODING 44
SWIDTH 226 0
DWIDTH 3 0
BBX 1 3 1 -2
BITMAP
80
80
80
ENDCHAR
STARTCHAR 002D
ENCODING 45
SWIDTH 377 0
DWIDTH 5 0
BBX 3 1 1 3
BITMAP
E0
ENDCHAR
STARTCHAR 002E
ENCODING 46
SWIDTH 226 0
DWIDTH 3 0
BBX 1 1 1 0
BITMAP
80
ENDCHAR
STARTCHAR 002F
ENCODING 47
SWIDTH 452 0
DWIDTH 6 0
BBX 6 12 0 -2
BITMAP
04
08
08
10
10
10
20
20
40
40
40
80
ENDCHAR
STARTCHAR 0030
ENCODING 48
SWIDTH 528 0
DWIDTH 7 0
BBX 6 10 1 0
BITMAP
70
88
84
84
84
84
84
84
88
78
ENDCHAR
STARTCHAR 0031
ENCODING 49
SWIDTH 528 0
DWIDTH 7 0
BBX 5 10 1 0
BITMAP
20
60
20
20
20
20
20
20
20
F8
ENDCHAR
STARTCHAR 0032
ENCODING 50
SWIDTH 528 0
DWIDTH 7 0
BBX 6 10 1 0
BITMAP
70
88
08
08
08
08
10
20
40
FC
ENDCHAR
STARTCHAR 0033
ENCODING 51
SWIDTH 528 0
DWIDTH 7 0
BBX 7 10 0 0
BITMAP
38
44
04
04
38
04
02
02
82
7C
ENDCHAR
STARTCHAR 0034
ENCODING 52
SWIDTH 528 0
DWIDTH 7 0
BBX 7 10 0 0
BITMAP
04
08
14
14
24
44
FE
04
04
04
ENDCHAR
STARTCHAR 0035
ENCODING 53
SWIDTH 528 0
DWIDTH 7 0
BBX 7 10 0 0
BITMAP
3C
40
40
40
7C
02
02
02
82
7C
ENDCHAR
STARTCHAR 0036
ENCODING 54
SWIDTH 528 0
DWIDTH 7 0
BBX 6 10 1 0
BITMAP
38
44
80
80
F8
84
84
84
84
78
ENDCHAR
STARTCHAR 0037
ENCODING 55
SWIDTH 528 0
DWIDTH 7 0
BBX 6 10 1 0
BITMAP
FC
08
08
10
10
20
20
20
20
20
ENDCHAR
STARTCHAR 0038
ENCODING 56
SWIDTH 528 0
DWIDTH 7 0
BBX 6 10 1 0
BITMAP
70
88
84
84
68
98
84
84
84
78
ENDCHAR
STARTCHAR 0039
ENCODING 57
SWIDTH 528 0
DWIDTH 7 0
BBX 6 10 1 0
BITMAP
70
88
84
84
84
DC
24
08
08
F0
ENDCHAR
STARTCHAR 003A
ENCODING 58
SWIDTH 226 0
DWIDTH 3 0
BBX 1 7 1 0
BITMAP
80
80
00
00
00
00
80
ENDCHAR
STARTCHAR 003B
ENCODING 59
SWIDTH 226 0
DWIDTH 3 0
BBX 1 9 1 -2
BITMAP
80
80
00
00
00
00
80
80
80
ENDCHAR
STARTCHAR 003C
ENCODING 60
SWIDTH 528 0
DWIDTH 7 0
BBX 6 5 1 2
BITMAP
1C
60
C0
30
0C
ENDCHAR
STARTCHAR 003D
ENCODING 61
SWIDTH 528 0
DWIDTH 7 0
BBX 6 3 1 3
BITMAP
FC
00
FC
ENDCHAR
STARTCHAR 003E
ENCODING 62
SWIDTH 528 0
DWIDTH 7 0
BBX 6 5 1 2
BITMAP
E0
18
0C
70
80
ENDCHAR
STARTCHAR 003F
ENCODING 63
SWIDTH 452 0
DWIDTH 6 0
BBX 4 10 1 0
BITMAP
F0
10
10
10
20
20
40
00
00
40
ENDCHAR
STARTCHAR 0040
ENCODING 64
SWIDTH 981 0
DWIDTH 13 0
BBX 11 11 1 -2
BITMAP
1F80
2040
4020
8F20
9120
9220
9220
9FC0
8000
4000
3F00
ENDCHAR
STARTCHAR 0041
ENCODING 65
SWIDTH 603 0
DWIDTH 8 0
BBX 8 10 0 0
BITMAP
08
18
18
24
24
22
7E
42
81
81
ENDCHAR
STARTCHAR 0042
ENCODING 66
SWIDTH 679 0
DWIDTH 9 0
BBX 6 10 2 0
BITMAP
F0
88
84
84
F8
84
84
84
84
F8
ENDCHAR
STARTCHAR 0043
ENCODING 67
SWIDTH 679 0
DWIDTH 9 0
BBX 7 10 1 0
BITMAP
3C
42
80
80
80
80
80
80
42
3C
ENDCHAR
STARTCHAR 0044
ENCODING 68
SWIDTH 679 0
DWIDTH 9 0
BBX 7 10 2 0
BITMAP
F0
88
84
82
82
82
82
84
84
F8
ENDCHAR
STARTCHAR 0045
ENCODING 69
SWIDTH 603 0
DWIDTH 8 0
BBX 5 10 2 0
BITMAP
F8
80
80
80
F0
80
80
80
80
F8
ENDCHAR
STARTCHAR 0046
ENCODING 70
SWIDTH 528 0
DWIDTH 7 0
BBX 5 10 2 0
BITMAP
F8
80
80
80
80
F0
80
80
80
80
ENDCHAR
STARTCHAR 0047
ENCODING 71
SWIDTH 679 0
DWIDTH 9 0
BBX 7 10 1 0
BITMAP
3C
42
80
80
80
8E
82
82
42
3E
ENDCHAR
STARTCHAR 0048
ENCODING 72
SWIDTH 754 0
DWIDTH 10 0
BBX 6 10 2 0
BITMAP
84
84
84
84
FC
84
84
84
84
84
ENDCHAR
STARTCHAR 0049
ENCODING 73
SWIDTH 301 0
DWIDTH 4 0
BBX 1 10 1 0
BITMAP
80
80
80
80
80
80
80
80
80
80
ENDCHAR
STARTCHAR 004A
ENCODING 74
SWIDTH 528 0
DWIDTH 7 0
BBX 5 10 1 0
BITMAP
08
08
08
08
08
08
08
08
08
F0
ENDCHAR
STARTCHAR 004B
ENCODING 75
SWIDTH 679 0
DWIDTH 9 0
BBX 6 10 2 0
BITMAP
84
88
90
A0
E0
90
90
88
84
84
ENDCHAR
STARTCHAR 004C
ENCODING 76
SWIDTH 528 0
DWIDTH 7 0
BBX 5 10 2 0
BITMAP
80
80
80
80
80
80
80
80
80
F8
ENDCHAR
STARTCHAR 004D
ENCODING 77
SWIDTH 830 0
DWIDTH 11 0
BBX 7 10 2 0
BITMAP
82
82
86
C6
C6
AA
AA
AA
92
82
ENDCHAR
STARTCHAR 004E
ENCODING 78
SWIDTH 754 0
DWIDTH 10 0
BBX 6 10 2 0
BITMAP
84
84
C4
C4
A4
94
94
8C
84
84
ENDCHAR
STARTCHAR 004F
ENCODING 79
SWIDTH 754 0
DWIDTH 10 0
BBX 8 10 1 0
BITMAP
3C
42
81
81
81
81
81
81
41
3E
ENDCHAR
STARTCHAR 0050
ENCODING 80
SWIDTH 679 0
DWIDTH 9 0
BBX 6 10 2 0
BITMAP
F0
8C
84
84
84
F8
80
80
80
80
ENDCHAR
STARTCHAR 0051
ENCODING 81
SWIDTH 754 0
DWIDTH 10 0
BBX 8 12 1 -2
BITMAP
3C
42
81
81
81
81
81
81
41
36
08
07
ENDCHAR
STARTCHAR 0052
ENCODING 82
SWIDTH 603 0
DWIDTH 8 0
BBX 6 10 2 0
BITMAP
F0
8C
84
84
88
F0
90
88
88
84
ENDCHAR
STARTCHAR 0053
ENCODING 83
SWIDTH 603 0
DWIDTH 8 0
BBX 6 10 1 0
BITMAP
78
84
80
80
60
18
04
04
84
78
ENDCHAR
STARTCHAR 0054
ENCODING 84
SWIDTH 603 0
DWIDTH 8 0
BBX 8 10 0 0
BITMAP
FF
08
08
08
08
08
08
08
08
08
ENDCHAR
STARTCHAR 0055
ENCODING 85
SWIDTH 754 0
DWIDTH 10 0
BBX 6 10 2 0
BITMAP
84
84
84
84
84
84
84
84
84
78
ENDCHAR
STARTCHAR 0056
ENCODING 86
SWIDTH 603 0
DWIDTH 8 0
BBX 8 10 0 0
BITMAP
81
82
42
42
44
24
24
28
18
10
ENDCHAR
STARTCHAR 0057
ENCODING 87
SWIDTH 905 0
DWIDTH 12 0
BBX 12 10 0 0
BITMAP
8410
4620
4620
4620
4920
4940
2940
30C0
30C0
1080
ENDCHAR
STARTCHAR 0058
ENCODING 88
SWIDTH 528 0
DWIDTH 7 0
BBX 7 10 0 0
BITMAP
82
44
24
28
10
10
28
24
44
82
ENDCHAR
STARTCHAR 0059
ENCODING 89
SWIDTH 528 0
DWIDTH 7 0
BBX 7 10 0 0
BITMAP
82
84
44
28
28
10
10
10
10
10
ENDCHAR
STARTCHAR 005A
ENCODING 90
SWIDTH 603 0
DWIDTH 8 0
BBX 7 10 1 0
BITMAP
FE
04
04
08
10
20
20
40
80
FE
ENDCHAR
STARTCHAR 005B
ENCODING 91
SWIDTH 301 0
DWIDTH 4 0
BBX 2 12 2 -2
BITMAP
C0
80
80
80
80
80
80
80
80
80
80
C0
ENDCHAR
STARTCHAR 005C
ENCODING 92
SWIDTH 452 0
DWIDTH 6 0
BBX 6 12 0 -2
BITMAP
80
40
40
40
20
20
20
10
10
08
08
0C
ENDCHAR
STARTCHAR 005D
ENCODING 93
SWIDTH 301 0
DWIDTH 4 0
BBX 3 12 0 -2
BITMAP
E0
20
20
20
20
20
20
20
20
20
20
E0
ENDCHAR
STARTCHAR 005E
ENCODING 94
SWIDTH 528 0
DWIDTH 7 0
BBX 5 6 1 4
BITMAP
20
30
50
48
88
88
ENDCHAR
STARTCHAR 005F
ENCODING 95
SWIDTH 603 0
DWIDTH 8 0
BBX 8 1 0 -2
BITMAP
FF
ENDCHAR
STARTCHAR 0060
ENCODING 96
SWIDTH 603 0
DWIDTH 8 0
BBX 2 3 3 8
BITMAP
80
80
40
ENDCHAR
STARTCHAR 0061
ENCODING 97
SWIDTH 603 0
DWIDTH 8 0
BBX 5 7 1 0
BITMAP
F8
08
08
78
88
88
F8
ENDCHAR
STARTCHAR 0062
ENCODING 98
SWIDTH 603 0
DWIDTH 8 0
BBX 7 11 1 0
BITMAP
80
80
80
80
FC
84
82
82
82
84
F8
ENDCHAR
STARTCHAR 0063
ENCODING 99
SWIDTH 528 0
DWIDTH 7 0
BBX 6 7 1 0
BITMAP
78
80
80
80
80
80
7C
ENDCHAR
STARTCHAR 0064
ENCODING 100
SWIDTH 603 0
DWIDTH 8 0
BBX 6 11 1 0
BITMAP
04
04
04
04
7C
84
84
84
84
84
7C
ENDCHAR
STARTCHAR 0065
ENCODING 101
SWIDTH 603 0
DWIDTH 8 0
BBX 6 7 1 0
BITMAP
78
84
84
FC
80
80
7C
ENDCHAR
STARTCHAR 0066
ENCODING 102
SWIDTH 301 0
DWIDTH 4 0
BBX 3 11 1 0
BITMAP
60
80
80
80
E0
80
80
80
80
80
80
ENDCHAR
STARTCHAR 0067
ENCODING 103
SWIDTH 603 0
DWIDTH 8 0
BBX 6 10 1 -3
BITMAP
7C
88
84
88
70
80
78
84
84
FC
ENDCHAR
STARTCHAR 0068
ENCODING 104
SWIDTH 603 0
DWIDTH 8 0
BBX 6 11 1 0
BITMAP
80
80
80
80
F8
84
84
84
84
84
84
ENDCHAR
STARTCHAR 0069
ENCODING 105
SWIDTH 226 0
DWIDTH 3 0
BBX 1 10 1 0
BITMAP
80
00
00
80
80
80
80
80
80
80
ENDCHAR
STARTCHAR 006A
ENCODING 106
SWIDTH 226 0
DWIDTH 3 0
BBX 2 13 0 -3
BITMAP
40
00
00
40
40
40
40
40
40
40
40
40
C0
ENDCHAR
STARTCHAR 006B
ENCODING 107
SWIDTH 528 0
DWIDTH 7 0
BBX 6 11 1 0
BITMAP
80
80
80
80
8C
90
90
B0
D0
88
84
ENDCHAR
STARTCHAR 006C
ENCODING 108
SWIDTH 301 0
DWIDTH 4 0
BBX 2 11 1 0
BITMAP
80
80
80
80
80
80
80
80
80
80
C0
ENDCHAR
STARTCHAR 006D
ENCODING 109
SWIDTH 981 0
DWIDTH 13 0
BBX 10 7 1 0
BITMAP
FBC0
8440
8440
8440
8440
8440
8440
ENDCHAR
STARTCHAR 006E
ENCODING 110
SWIDTH 603 0
DWIDTH 8 0
BBX 6 7 1 0
BITMAP
F8
84
84
84
84
84
84
ENDCHAR
STARTCHAR 006F
ENCODING 111
SWIDTH 603 0
DWIDTH 8 0
BBX 7 7 1 0
BITMAP
78
84
82
82
82
84
78
ENDCHAR
STARTCHAR 0070
ENCODING 112
SWIDTH 603 0
DWIDTH 8 0
BBX 7 10 1 -3
BITMAP
FC
84
82
82
82
84
F8
80
80
80
ENDCHAR
STARTCHAR 0071
ENCODING 113
SWIDTH 603 0
DWIDTH 8 0
BBX 6 10 1 -3
BITMAP
7C
84
84
84
84
84
7C
04
04
04
ENDCHAR
STARTCHAR 0072
ENCODING 114
SWIDTH 377 0
DWIDTH 5 0
BBX 4 7 1 0
BITMAP
F0
80
80
80
80
80
80
ENDCHAR
STARTCHAR 0073
ENCODING 115
SWIDTH 452 0
DWIDTH 6 0
BBX 5 7 1 0
BITMAP
F0
80
80
70
08
08
F0
ENDCHAR
STARTCHAR 0074
ENCODING 116
SWIDTH 377 0
DWIDTH 5 0
BBX 5 9 0 0
BITMAP
40
40
F0
40
40
40
40
40
38
ENDCHAR
STARTCHAR 0075
ENCODING 117
SWIDTH 603 0
DWIDTH 8 0
BBX 6 7 1 0
BITMAP
84
84
84
84
84
84
7C
ENDCHAR
STARTCHAR 0076
ENCODING 118
SWIDTH 528 0
DWIDTH 7 0
BBX 6 7 0 0
BITMAP
84
44
44
48
28
28
10
ENDCHAR
STARTCHAR 0077
ENCODING 119
SWIDTH 830 0
DWIDTH 11 0
BBX 10 7 0 0
BITMAP
8440
4C40
4A40
4A80
3280
3100
2100
ENDCHAR
STARTCHAR 0078
ENCODING 120
SWIDTH 452 0
DWIDTH 6 0
BBX 6 7 0 0
BITMAP
C4
48
30
10
30
48
84
ENDCHAR
STARTCHAR 0079
ENCODING 121
SWIDTH 528 0
DWIDTH 7 0
BBX 6 10 0 -3
BITMAP
84
44
44
48
28
28
10
10
10
E0
ENDCHAR
STARTCHAR 007A
ENCODING 122
SWIDTH 452 0
DWIDTH 6 0
BBX 6 7 0 0
BITMAP
7C
08
10
10
20
40
FC
ENDCHAR
STARTCHAR 007B
ENCODING 123
SWIDTH 301 0
DWIDTH 4 0
BBX 3 12 1 -2
BITMAP
60
80
40
40
40
80
80
40
40
40
80
60
ENDCHAR
STARTCHAR 007C
ENCODING 124
SWIDTH 226 0
DWIDTH 3 0
BBX 1 15 1 -4
BITMAP
80
80
80
80
80
80
80
80
80
80
80
80
80
80
80
ENDCHAR
STARTCHAR 007D
ENCODING 125
SWIDTH 301 0
DWIDTH 4 0
BBX 4 12 0 -2
BITMAP
E0
20
20
20
20
30
20
20
20
20
20
E0
ENDCHAR
STARTCHAR 007E
ENCODING 126
SWIDTH 528 0
DWIDTH 7 0
BBX 6 2 1 4
BITMAP
40
BC
ENDCHAR
STARTCHAR 00A0
ENCODING 160
SWIDTH 226 0
DWIDTH 3 0
BBX 0 0 0 0
BITMAP
ENDCHAR
STARTCHAR 00A1
ENCODING 161
SWIDTH 301 0
DWIDTH 4 0
BBX 2 10 1 -3
BITMAP
C0
00
00
80
80
80
80
80
80
80
ENDCHAR
STARTCHAR 00A2
ENCODING 162
SWIDTH 528 0
DWIDTH 7 0
BBX 6 10 1 0
BITMAP
10
10
7C
90
90
90
90
94
78
10
ENDCHAR
STARTCHAR 00A3
ENCODING 163
SWIDTH 528 0
DWIDTH 7 0
BBX 6 10 1 0
BITMAP
38
44
40
40
40
F0
40
40
40
FC
ENDCHAR
STARTCHAR 00A4
ENCODING 164
SWIDTH 528 0
DWIDTH 7 0
BBX 7 6 0 2
BITMAP
BA
44
42
42
44
FA
ENDCHAR
STARTCHAR 00A5
ENCODING 165
SWIDTH 528 0
DWIDTH 7 0
BBX 7 9 0 0
BITMAP
C2
44
24
28
7E
10
7E
10
10
ENDCHAR
STARTCHAR 00A6
ENCODING 166
SWIDTH 226 0
DWIDTH 3 0
BBX 1 15 1 -4
BITMAP
80
80
80
80
80
80
80
00
80
80
80
80
80
80
80
ENDCHAR
STARTCHAR 00A7
ENCODING 167
SWIDTH 1056 0
DWIDTH 14 0
BBX 6 11 4 -1
BITMAP
7C
80
40
B8
84
C4
34
0C
04
84
78
ENDCHAR
STARTCHAR 00A8
ENCODING 168
SWIDTH 603 0
DWIDTH 8 0
BBX 4 1 2 9
BITMAP
90
ENDCHAR
STARTCHAR 00A9
ENCODING 169
SWIDTH 905 0
DWIDTH 12 0
BBX 10 10 1 0
BITMAP
1E00
6100
8C80
9240
A040
A040
A040
9E40
4080
3F00
ENDCHAR
STARTCHAR 00AA
ENCODING 170
SWIDTH 377 0
DWIDTH 5 0
BBX 3 5 1 6
BITMAP
E0
20
60
A0
E0
ENDCHAR
STARTCHAR 00AB
ENCODING 171
SWIDTH 452 0
DWIDTH 6 0
BBX 4 5 1 1
BITMAP
50
A0
A0
A0
50
ENDCHAR
STARTCHAR 00AC
ENCODING 172
SWIDTH 528 0
DWIDTH 7 0
BBX 6 3 1 2
BITMAP
FC
04
04
ENDCHAR
STARTCHAR 00AD
ENCODING 173
SWIDTH 377 0
DWIDTH 5 0
BBX 3 1 1 3
BITMAP
E0
ENDCHAR
STARTCHAR 00AE
ENCODING 174
SWIDTH 452 0
DWIDTH 6 0
BBX 6 5 0 5
BITMAP
78
B4
B4
B4
78
ENDCHAR
STARTCHAR 00AF
ENCODING 175
SWIDTH 603 0
DWIDTH 8 0
BBX 4 1 2 9
BITMAP
F0
ENDCHAR
STARTCHAR 00B0
ENCODING 176
SWIDTH 377 0
DWIDTH 5 0
BBX 3 3 1 7
BITMAP
E0
A0
E0
ENDCHAR
STARTCHAR 00B1
ENCODING 177
SWIDTH 1056 0
DWIDTH 14 0
BBX 10 11 2 0
BITMAP
0400
0400
0400
0400
FFC0
0400
0400
0400
0400
0000
FFC0
ENDCHAR
STARTCHAR 00B2
ENCODING 178
SWIDTH 452 0
DWIDTH 6 0
BBX 4 6 1 6
BITMAP
60
90
10
20
40
F0
ENDCHAR
STARTCHAR 00B3
ENCODING 179
SWIDTH 452 0
DWIDTH 6 0
BBX 4 6 1 6
BITMAP
E0
10
20
60
10
F0
ENDCHAR
STARTCHAR 00B4
ENCODING 180
SWIDTH 603 0
DWIDTH 8 0
BBX 3 3 3 8
BITMAP
20
40
80
ENDCHAR
STARTCHAR 00B5
ENCODING 181
SWIDTH 603 0
DWIDTH 8 0
BBX 7 10 1 -3
BITMAP
84
84
84
84
84
84
FE
80
80
80
ENDCHAR
STARTCHAR 00B6
ENCODING 182
SWIDTH 1056 0
DWIDTH 14 0
BBX 6 11 4 -1
BITMAP
7C
F4
F4
F4
F4
74
14
14
14
14
14
ENDCHAR
STARTCHAR 00B7
ENCODING 183
SWIDTH 1056 0
DWIDTH 14 0
BBX 2 2 6 4
BITMAP
C0
C0
ENDCHAR
STARTCHAR 00B8
ENCODING 184
SWIDTH 603 0
DWIDTH 8 0
BBX 2 3 3 -3
BITMAP
40
40
C0
ENDCHAR
STARTCHAR 00B9
ENCODING 185
SWIDTH 452 0
DWIDTH 6 0
BBX 1 6 2 6
BITMAP
80
80
80
80
80
80
ENDCHAR
STARTCHAR 00BA
ENCODING 186
SWIDTH 452 0
DWIDTH 6 0
BBX 4 5 1 6
BITMAP
60
90
90
90
F0
ENDCHAR
STARTCHAR 00BB
ENCODING 187
SWIDTH 452 0
DWIDTH 6 0
BBX 4 5 1 1
BITMAP
A0
50
50
50
A0
ENDCHAR
STARTCHAR 00BC
ENCODING 188
SWIDTH 905 0
DWIDTH 12 0
BBX 10 10 1 0
BITMAP
4100
C100
4200
4400
4480
4880
0980
1280
21C0
2080
ENDCHAR
STARTCHAR 00BD
ENCODING 189
SWIDTH 905 0
DWIDTH 12 0
BBX 10 10 1 0
BITMAP
4100
C200
4200
4400
4980
4A40
1040
1040
2080
63C0
ENDCHAR
STARTCHAR 00BE
ENCODING 190
SWIDTH 905 0
DWIDTH 12 0
BBX 10 10 1 0
BITMAP
E080
1100
2100
6200
1240
B4C0
4940
0A40
11C0
1040
ENDCHAR
STARTCHAR 00BF
ENCODING 191
SWIDTH 452 0
DWIDTH 6 0
BBX 5 10 1 -3
BITMAP
20
00
00
20
40
40
80
80
88
70
ENDCHAR
STARTCHAR 00C0
ENCODING 192
SWIDTH 603 0
DWIDTH 8 0
BBX 8 12 0 0
BITMAP
30
08
08
18
18
24
24
22
7E
42
81
81
ENDCHAR
STARTCHAR 00C1
ENCODING 193
SWIDTH 603 0
DWIDTH 8 0
BBX 8 12 0 0
BITMAP
0C
10
08
18
18
24
24
22
7E
42
81
81
ENDCHAR
STARTCHAR 00C2
ENCODING 194
SWIDTH 603 0
DWIDTH 8 0
BBX 8 12 0 0
BITMAP
18
24
08
18
18
24
24
22
7E
42
81
81
ENDCHAR
STARTCHAR 00C3
ENCODING 195
SWIDTH 603 0
DWIDTH 8 0
BBX 8 12 0 0
BITMAP
32
0C
08
18
18
24
24
22
7E
42
81
81
ENDCHAR
STARTCHAR 00C4
ENCODING 196
SWIDTH 603 0
DWIDTH 8 0
BBX 8 12 0 0
BITMAP
24
00
08
18
18
24
24
22
7E
42
81
81
ENDCHAR
STARTCHAR 00C5
ENCODING 197
SWIDTH 603 0
DWIDTH 8 0
BBX 8 13 0 0
BITMAP
18
24
18
08
18
18
24
24
22
7E
42
81
81
ENDCHAR
STARTCHAR 00C6
ENCODING 198
SWIDTH 981 0
DWIDTH 13 0
BBX 12 10 0 0
BITMAP
03F0
0200
0600
0A00
13E0
1200
1E00
2200
4200
83F0
ENDCHAR
STARTCHAR 00C7
ENCODING 199
SWIDTH 679 0
DWIDTH 9 0
BBX 7 13 1 -3
BITMAP
3C
42
80
80
80
80
80
80
42
34
08
08
18
ENDCHAR
STARTCHAR 00C8
ENCODING 200
SWIDTH 603 0
DWIDTH 8 0
BBX 5 12 2 0
BITMAP
40
20
F8
80
80
80
F0
80
80
80
80
F8
ENDCHAR
STARTCHAR 00C9
ENCODING 201
SWIDTH 603 0
DWIDTH 8 0
BBX 5 12 2 0
BITMAP
10
20
F8
80
80
80
F0
80
80
80
80
F8
ENDCHAR
STARTCHAR 00CA
ENCODING 202
SWIDTH 603 0
DWIDTH 8 0
BBX 5 12 2 0
BITMAP
70
88
F8
80
80
80
F0
80
80
80
80
F8
ENDCHAR
STARTCHAR 00CB
ENCODING 203
SWIDTH 603 0
DWIDTH 8 0
BBX 5 12 2 0
BITMAP
48
00
F8
80
80
80
F0
80
80
80
80
F8
ENDCHAR
STARTCHAR 00CC
ENCODING 204
SWIDTH 301 0
DWIDTH 4 0
BBX 2 12 0 0
BITMAP
C0
40
40
40
40
40
40
40
40
40
40
40
ENDCHAR
STARTCHAR 00CD
ENCODING 205
SWIDTH 301 0
DWIDTH 4 0
BBX 2 12 1 0
BITMAP
40
80
80
80
80
80
80
80
80
80
80
80
ENDCHAR
STARTCHAR 00CE
ENCODING 206
SWIDTH 301 0
DWIDTH 4 0
BBX 4 12 0 0
BITMAP
60
90
40
40
40
40
40
40
40
40
40
40
ENDCHAR
STARTCHAR 00CF
ENCODING 207
SWIDTH 301 0
DWIDTH 4 0
BBX 4 12 0 0
BITMAP
90
00
40
40
40
40
40
40
40
40
40
40
ENDCHAR
STARTCHAR 00D0
ENCODING 208
SWIDTH 754 0
DWIDTH 10 0
BBX 8 10 1 0
BITMAP
78
46
42
41
F1
41
41
41
42
7C
ENDCHAR
STARTCHAR 00D1
ENCODING 209
SWIDTH 754 0
DWIDTH 10 0
BBX 6 12 2 0
BITMAP
74
08
84
84
C4
C4
A4
94
94
8C
84
84
ENDCHAR
STARTCHAR 00D2
ENCODING 210
SWIDTH 754 0
DWIDTH 10 0
BBX 8 12 1 0
BITMAP
30
08
3C
42
81
81
81
81
81
81
41
3E
ENDCHAR
STARTCHAR 00D3
ENCODING 211
SWIDTH 754 0
DWIDTH 10 0
BBX 8 12 1 0
BITMAP
0C
10
3C
42
81
81
81
81
81
81
41
3E
ENDCHAR
STARTCHAR 00D4
ENCODING 212
SWIDTH 754 0
DWIDTH 10 0
BBX 8 12 1 0
BITMAP
18
24
3C
42
81
81
81
81
81
81
41
3E
ENDCHAR
STARTCHAR 00D5
ENCODING 213
SWIDTH 754 0
DWIDTH 10 0
BBX 8 12 1 0
BITMAP
32
0C
3C
42
81
81
81
81
81
81
41
3E
ENDCHAR
STARTCHAR 00D6
ENCODING 214
SWIDTH 754 0
DWIDTH 10 0
BBX 8 12 1 0
BITMAP
24
00
3C
42
81
81
81
81
81
81
41
3E
ENDCHAR
STARTCHAR 00D7
ENCODING 215
SWIDTH 1056 0
DWIDTH 14 0
BBX 9 8 3 1
BITMAP
8180
4200
2400
1800
1800
2400
4200
8180
ENDCHAR
STARTCHAR 00D8
ENCODING 216
SWIDTH 754 0
DWIDTH 10 0
BBX 8 10 1 0
BITMAP
3D
42
83
85
89
91
91
A1
41
BE
ENDCHAR
STARTCHAR 00D9
ENCODING 217
SWIDTH 754 0
DWIDTH 10 0
BBX 6 12 2 0
BITMAP
60
10
84
84
84
84
84
84
84
84
84
78
ENDCHAR
STARTCHAR 00DA
ENCODING 218
SWIDTH 754 0
DWIDTH 10 0
BBX 6 12 2 0
BITMAP
18
20
84
84
84
84
84
84
84
84
84
78
ENDCHAR
STARTCHAR 00DB
ENCODING 219
SWIDTH 754 0
DWIDTH 10 0
BBX 6 12 2 0
BITMAP
30
48
84
84
84
84
84
84
84
84
84
78
ENDCHAR
STARTCHAR 00DC
ENCODING 220
SWIDTH 754 0
DWIDTH 10 0
BBX 6 12 2 0
BITMAP
48
00
84
84
84
84
84
84
84
84
84
78
ENDCHAR
STARTCHAR 00DD
ENCODING 221
SWIDTH 528 0
DWIDTH 7 0
BBX 7 12 0 0
BITMAP
08
10
82
84
44
28
28
10
10
10
10
10
ENDCHAR
STARTCHAR 00DE
ENCODING 222
SWIDTH 679 0
DWIDTH 9 0
BBX 6 10 2 0
BITMAP
80
80
F8
84
84
84
88
F0
80
80
ENDCHAR
STARTCHAR 00DF
ENCODING 223
SWIDTH 603 0
DWIDTH 8 0
BBX 7 11 1 0
BITMAP
30
48
88
88
90
90
90
8C
82
82
9C
ENDCHAR
STARTCHAR 00E0
ENCODING 224
SWIDTH 603 0
DWIDTH 8 0
BBX 5 11 1 0
BITMAP
40
20
10
00
F8
08
08
78
88
88
F8
ENDCHAR
STARTCHAR 00E1
ENCODING 225
SWIDTH 603 0
DWIDTH 8 0
BBX 5 11 1 0
BITMAP
08
10
20
00
F8
08
08
78
88
88
F8
ENDCHAR
STARTCHAR 00E2
ENCODING 226
SWIDTH 603 0
DWIDTH 8 0
BBX 5 11 1 0
BITMAP
10
28
48
00
F8
08
08
78
88
88
F8
ENDCHAR
STARTCHAR 00E3
ENCODING 227
SWIDTH 603 0
DWIDTH 8 0
BBX 6 10 1 0
BITMAP
E4
98
00
F8
08
0C
74
84
84
FC
ENDCHAR
STARTCHAR 00E4
ENCODING 228
SWIDTH 603 0
DWIDTH 8 0
BBX 5 10 1 0
BITMAP
48
00
00
F8
08
08
78
88
88
F8
ENDCHAR
STARTCHAR 00E5
ENCODING 229
SWIDTH 603 0
DWIDTH 8 0
BBX 5 11 1 0
BITMAP
30
48
30
00
F8
08
08
78
88
88
F8
ENDCHAR
STARTCHAR 00E6
ENCODING 230
SWIDTH 905 0
DWIDTH 12 0
BBX 11 7 1 0
BITMAP
FBC0
0420
0C20
77E0
8400
8400
FBC0
ENDCHAR
STARTCHAR 00E7
ENCODING 231
SWIDTH 528 0
DWIDTH 7 0
BBX 6 10 1 -3
BITMAP
78
80
80
80
80
80
6C
10
10
30
ENDCHAR
STARTCHAR 00E8
ENCODING 232
SWIDTH 603 0
DWIDTH 8 0
BBX 6 11 1 0
BITMAP
40
20
10
00
78
84
84
FC
80
80
7C
ENDCHAR
STARTCHAR 00E9
ENCODING 233
SWIDTH 603 0
DWIDTH 8 0
BBX 6 11 1 0
BITMAP
08
10
20
00
78
84
84
FC
80
80
7C
ENDCHAR
STARTCHAR 00EA
ENCODING 234
SWIDTH 603 0
DWIDTH 8 0
BBX 6 11 1 0
BITMAP
10
28
48
00
78
84
84
FC
80
80
7C
ENDCHAR
STARTCHAR 00EB
ENCODING 235
SWIDTH 603 0
DWIDTH 8 0
BBX 6 10 1 0
BITMAP
48
00
00
78
84
84
FC
80
80
7C
ENDCHAR
STARTCHAR 00EC
ENCODING 236
SWIDTH 226 0
DWIDTH 3 0
BBX 3 11 0 0
BITMAP
80
40
20
00
40
40
40
40
40
40
40
ENDCHAR
STARTCHAR 00ED
ENCODING 237
SWIDTH 226 0
DWIDTH 3 0
BBX 2 11 1 0
BITMAP
40
40
80
00
80
80
80
80
80
80
80
ENDCHAR
STARTCHAR 00EE
ENCODING 238
SWIDTH 226 0
DWIDTH 3 0
BBX 4 11 0 0
BITMAP
40
A0
90
00
40
40
40
40
40
40
40
ENDCHAR
STARTCHAR 00EF
ENCODING 239
SWIDTH 226 0
DWIDTH 3 0
BBX 4 10 0 0
BITMAP
90
00
00
40
40
40
40
40
40
40
ENDCHAR
STARTCHAR 00F0
ENCODING 240
SWIDTH 603 0
DWIDTH 8 0
BBX 6 11 1 0
BITMAP
40
24
38
44
34
4C
84
84
84
84
78
ENDCHAR
STARTCHAR 00F1
ENCODING 241
SWIDTH 603 0
DWIDTH 8 0
BBX 6 10 1 0
BITMAP
74
48
00
F8
84
84
84
84
84
84
ENDCHAR
STARTCHAR 00F2
ENCODING 242
SWIDTH 603 0
DWIDTH 8 0
BBX 7 11 1 0
BITMAP
40
20
10
00
78
84
82
82
82
84
78
ENDCHAR
STARTCHAR 00F3
ENCODING 243
SWIDTH 603 0
DWIDTH 8 0
BBX 7 11 1 0
BITMAP
08
10
20
00
78
84
82
82
82
84
78
ENDCHAR
STARTCHAR 00F4
ENCODING 244
SWIDTH 603 0
DWIDTH 8 0
BBX 7 11 1 0
BITMAP
10
28
48
00
78
84
82
82
82
84
78
ENDCHAR
STARTCHAR 00F5
ENCODING 245
SWIDTH 603 0
DWIDTH 8 0
BBX 7 10 1 0
BITMAP
74
88
00
78
84
82
82
82
84
78
ENDCHAR
STARTCHAR 00F6
ENCODING 246
SWIDTH 603 0
DWIDTH 8 0
BBX 7 10 1 0
BITMAP
48
00
00
78
84
82
82
82
84
78
ENDCHAR
STARTCHAR 00F7
ENCODING 247
SWIDTH 1056 0
DWIDTH 14 0
BBX 10 8 2 1
BITMAP
0C00
0000
0000
0000
FFC0
0000
0000
0C00
ENDCHAR
STARTCHAR 00F8
ENCODING 248
SWIDTH 603 0
DWIDTH 8 0
BBX 7 7 1 0
BITMAP
7E
84
8A
92
A2
C4
F8
ENDCHAR
STARTCHAR 00F9
ENCODING 249
SWIDTH 603 0
DWIDTH 8 0
BBX 6 11 1 0
BITMAP
40
20
10
00
84
84
84
84
84
84
7C
ENDCHAR
STARTCHAR 00FA
ENCODING 250
SWIDTH 603 0
DWIDTH 8 0
BBX 6 11 1 0
BITMAP
08
10
20
00
84
84
84
84
84
84
7C
ENDCHAR
STARTCHAR 00FB
ENCODING 251
SWIDTH 603 0
DWIDTH 8 0
BBX 6 11 1 0
BITMAP
10
28
48
00
84
84
84
84
84
84
7C
ENDCHAR
STARTCHAR 00FC
ENCODING 252
SWIDTH 603 0
DWIDTH 8 0
BBX 6 10 1 0
BITMAP
48
00
00
84
84
84
84
84
84
7C
ENDCHAR
STARTCHAR 00FD
ENCODING 253
SWIDTH 528 0
DWIDTH 7 0
BBX 6 14 0 -3
BITMAP
08
10
20
00
84
44
44
48
28
28
10
10
10
E0
ENDCHAR
STARTCHAR 00FE
ENCODING 254
SWIDTH 603 0
DWIDTH 8 0
BBX 7 14 1 -3
BITMAP
80
80
80
80
FC
84
82
82
82
84
F8
80
80
80
ENDCHAR
STARTCHAR 00FF
ENCODING 255
SWIDTH 528 0
DWIDTH 7 0
BBX 6 13 0 -3
BITMAP
28
00
00
84
44
44
48
28
28
10
10
10
E0
ENDCHAR
STARTCHAR 0100
ENCODING 256
SWIDTH 603 0
DWIDTH 8 0
BBX 8 11 0 0
BITMAP
3C
08
18
18
24
24
22
7E
42
81
81
ENDCHAR
STARTCHAR 0101
ENCODING 257
SWIDTH 603 0
DWIDTH 8 0
BBX 5 9 1 0
BITMAP
78
00
F8
08
08
78
88
88
F8
ENDCHAR
STARTCHAR 0102
ENCODING 258
SWIDTH 603 0
DWIDTH 8 0
BBX 8 12 0 0
BITMAP
24
18
08
18
18
24
24
22
7E
42
81
81
ENDCHAR
STARTCHAR 0103
ENCODING 259
SWIDTH 603 0
DWIDTH 8 0
BBX 5 11 1 0
BITMAP
48
48
30
00
F8
08
08
78
88
88
F8
ENDCHAR
STARTCHAR 0110
ENCODING 272
SWIDTH 754 0
DWIDTH 10 0
BBX 8 10 1 0
BITMAP
78
46
42
41
F1
41
41
41
42
7C
ENDCHAR
STARTCHAR 0111
ENCODING 273
SWIDTH 603 0
DWIDTH 8 0
BBX 7 11 1 0
BITMAP
04
04
1E
04
3C
C4
84
84
84
84
7C
ENDCHAR
STARTCHAR 0112
ENCODING 274
SWIDTH 603 0
DWIDTH 8 0
BBX 5 11 2 0
BITMAP
70
F8
80
80
80
F0
80
80
80
80
F8
ENDCHAR
STARTCHAR 0113
ENCODING 275
SWIDTH 603 0
DWIDTH 8 0
BBX 6 9 1 0
BITMAP
78
00
78
84
84
FC
80
80
7C
ENDCHAR
STARTCHAR 011A
ENCODING 282
SWIDTH 603 0
DWIDTH 8 0
BBX 5 12 2 0
BITMAP
D8
20
F8
80
80
80
F0
80
80
80
80
F8
ENDCHAR
STARTCHAR 011B
ENCODING 283
SWIDTH 603 0
DWIDTH 8 0
BBX 6 11 1 0
BITMAP
48
28
10
00
78
84
84
FC
80
80
7C
ENDCHAR
STARTCHAR 0128
ENCODING 296
SWIDTH 301 0
DWIDTH 4 0
BBX 5 12 -1 0
BITMAP
E8
10
20
20
20
20
20
20
20
20
20
20
ENDCHAR
STARTCHAR 0129
ENCODING 297
SWIDTH 226 0
DWIDTH 3 0
BBX 5 10 -1 0
BITMAP
E8
90
00
20
20
20
20
20
20
20
ENDCHAR
STARTCHAR 012A
ENCODING 298
SWIDTH 301 0
DWIDTH 4 0
BBX 4 11 0 0
BITMAP
F0
40
40
40
40
40
40
40
40
40
40
ENDCHAR
STARTCHAR 012B
ENCODING 299
SWIDTH 226 0
DWIDTH 3 0
BBX 4 9 0 0
BITMAP
F0
00
40
40
40
40
40
40
40
ENDCHAR
STARTCHAR 0143
ENCODING 323
SWIDTH 754 0
DWIDTH 10 0
BBX 6 12 2 0
BITMAP
18
20
84
84
C4
C4
A4
94
94
8C
84
84
ENDCHAR
STARTCHAR 0144
ENCODING 324
SWIDTH 603 0
DWIDTH 8 0
BBX 6 11 1 0
BITMAP
08
10
20
00
F8
84
84
84
84
84
84
ENDCHAR
STARTCHAR 0147
ENCODING 327
SWIDTH 754 0
DWIDTH 10 0
BBX 6 12 2 0
BITMAP
68
10
84
84
C4
C4
A4
94
94
8C
84
84
ENDCHAR
STARTCHAR 0148
ENCODING 328
SWIDTH 603 0
DWIDTH 8 0
BBX 6 11 1 0
BITMAP
44
28
10
00
F8
84
84
84
84
84
84
ENDCHAR
STARTCHAR 014C
ENCODING 332
SWIDTH 754 0
DWIDTH 10 0
BBX 8 11 1 0
BITMAP
3C
3C
42
81
81
81
81
81
81
41
3E
ENDCHAR
STARTCHAR 014D
ENCODING 333
SWIDTH 603 0
DWIDTH 8 0
BBX 7 9 1 0
BITMAP
78
00
78
84
82
82
82
84
78
ENDCHAR
STARTCHAR 014E
ENCODING 334
SWIDTH 754 0
DWIDTH 10 0
BBX 8 12 1 0
BITMAP
24
18
3C
42
81
81
81
81
81
81
41
3E
ENDCHAR
STARTCHAR 014F
ENCODING 335
SWIDTH 603 0
DWIDTH 8 0
BBX 7 11 1 0
BITMAP
44
48
30
00
78
84
82
82
82
84
78
ENDCHAR
STARTCHAR 0152
ENCODING 338
SWIDTH 981 0
DWIDTH 13 0
BBX 11 10 1 0
BITMAP
1FE0
6200
8200
8200
83C0
8200
8200
8200
4200
3FE0
ENDCHAR
STARTCHAR 0153
ENCODING 339
SWIDTH 981 0
DWIDTH 13 0
BBX 12 7 1 0
BITMAP
79E0
8610
8210
83F0
8200
8600
79E0
ENDCHAR
STARTCHAR 0168
ENCODING 360
SWIDTH 754 0
DWIDTH 10 0
BBX 6 12 2 0
BITMAP
E4
18
84
84
84
84
84
84
84
84
84
78
ENDCHAR
STARTCHAR 0169
ENCODING 361
SWIDTH 603 0
DWIDTH 8 0
BBX 6 10 1 0
BITMAP
E4
98
00
84
84
84
84
84
84
7C
ENDCHAR
STARTCHAR 016A
ENCODING 362
SWIDTH 754 0
DWIDTH 10 0
BBX 6 11 2 0
BITMAP
78
84
84
84
84
84
84
84
84
84
78
ENDCHAR
STARTCHAR 016B
ENCODING 363
SWIDTH 603 0
DWIDTH 8 0
BBX 6 9 1 0
BITMAP
78
00
84
84
84
84
84
84
7C
ENDCHAR
STARTCHAR 016C
ENCODING 364
SWIDTH 754 0
DWIDTH 10 0
BBX 6 12 2 0
BITMAP
48
30
84
84
84
84
84
84
84
84
84
78
ENDCHAR
STARTCHAR 016D
ENCODING 365
SWIDTH 603 0
DWIDTH 8 0
BBX 6 11 1 0
BITMAP
48
48
30
00
84
84
84
84
84
84
7C
ENDCHAR
STARTCHAR 0192
ENCODING 402
SWIDTH 528 0
DWIDTH 7 0
BBX 7 11 0 -1
BITMAP
06
08
10
10
3C
10
10
10
10
20
E0
ENDCHAR
STARTCHAR 01A0
ENCODING 416
SWIDTH 754 0
DWIDTH 10 0
BBX 8 12 1 0
BITMAP
01
01
3D
42
81
81
81
81
81
81
41
3E
ENDCHAR
STARTCHAR 01A1
ENCODING 417
SWIDTH 603 0
DWIDTH 8 0
BBX 7 9 1 0
BITMAP
02
02
7C
84
82
82
82
84
78
ENDCHAR
STARTCHAR 01AF
ENCODING 431
SWIDTH 754 0
DWIDTH 10 0
BBX 8 12 2 0
BITMAP
01
01
82
82
82
82
82
82
82
82
84
78
ENDCHAR
STARTCHAR 01B0
ENCODING 432
SWIDTH 603 0
DWIDTH 8 0
BBX 7 9 1 0
BITMAP
02
02
84
84
84
84
84
84
7C
ENDCHAR
STARTCHAR 01CD
ENCODING 461
SWIDTH 603 0
DWIDTH 8 0
BBX 8 12 0 0
BITMAP
24
18
08
18
18
24
24
22
7E
42
81
81
ENDCHAR
STARTCHAR 01CE
ENCODING 462
SWIDTH 603 0
DWIDTH 8 0
BBX 5 11 1 0
BITMAP
48
28
10
00
F8
08
08
78
88
88
F8
ENDCHAR
STARTCHAR 01CF
ENCODING 463
SWIDTH 301 0
DWIDTH 4 0
BBX 4 12 0 0
BITMAP
B0
40
40
40
40
40
40
40
40
40
40
40
ENDCHAR
STARTCHAR 01D0
ENCODING 464
SWIDTH 226 0
DWIDTH 3 0
BBX 4 11 0 0
BITMAP
90
A0
40
00
40
40
40
40
40
40
40
ENDCHAR
STARTCHAR 01D1
ENCODING 465
SWIDTH 754 0
DWIDTH 10 0
BBX 8 12 1 0
BITMAP
24
18
3C
42
81
81
81
81
81
81
41
3E
ENDCHAR
STARTCHAR 01D2
ENCODING 466
SWIDTH 603 0
DWIDTH 8 0
BBX 7 11 1 0
BITMAP
48
28
10
00
78
84
82
82
82
84
78
ENDCHAR
STARTCHAR 01D3
ENCODING 467
SWIDTH 754 0
DWIDTH 10 0
BBX 6 12 2 0
BITMAP
48
30
84
84
84
84
84
84
84
84
84
78
ENDCHAR
STARTCHAR 01D4
ENCODING 468
SWIDTH 603 0
DWIDTH 8 0
BBX 6 11 1 0
BITMAP
48
28
10
00
84
84
84
84
84
84
7C
ENDCHAR
STARTCHAR 01D5
ENCODING 469
SWIDTH 754 0
DWIDTH 10 0
BBX 6 13 2 0
BITMAP
78
48
00
84
84
84
84
84
84
84
84
84
78
ENDCHAR
STARTCHAR 01D6
ENCODING 470
SWIDTH 603 0
DWIDTH 8 0
BBX 6 11 1 0
BITMAP
78
48
00
00
84
84
84
84
84
84
7C
ENDCHAR
STARTCHAR 01D7
ENCODING 471
SWIDTH 754 0
DWIDTH 10 0
BBX 6 14 2 0
BITMAP
08
10
48
00
84
84
84
84
84
84
84
84
84
78
ENDCHAR
STARTCHAR 01D8
ENCODING 472
SWIDTH 603 0
DWIDTH 8 0
BBX 6 12 1 0
BITMAP
10
20
48
00
00
84
84
84
84
84
84
7C
ENDCHAR
STARTCHAR 01D9
ENCODING 473
SWIDTH 754 0
DWIDTH 10 0
BBX 6 14 2 0
BITMAP
48
30
48
00
84
84
84
84
84
84
84
84
84
78
ENDCHAR
STARTCHAR 01DA
ENCODING 474
SWIDTH 603 0
DWIDTH 8 0
BBX 6 12 1 0
BITMAP
48
30
48
00
00
84
84
84
84
84
84
7C
ENDCHAR
STARTCHAR 01DB
ENCODING 475
SWIDTH 754 0
DWIDTH 10 0
BBX 6 14 2 0
BITMAP
40
20
48
00
84
84
84
84
84
84
84
84
84
78
ENDCHAR
STARTCHAR 01DC
ENCODING 476
SWIDTH 603 0
DWIDTH 8 0
BBX 6 12 1 0
BITMAP
20
10
48
00
00
84
84
84
84
84
84
7C
ENDCHAR
STARTCHAR 01F8
ENCODING 504
SWIDTH 754 0
DWIDTH 10 0
BBX 6 12 2 0
BITMAP
20
10
84
84
C4
C4
A4
94
94
8C
84
84
ENDCHAR
STARTCHAR 01F9
ENCODING 505
SWIDTH 603 0
DWIDTH 8 0
BBX 6 11 1 0
BITMAP
20
10
10
00
F8
84
84
84
84
84
84
ENDCHAR
STARTCHAR 0251
ENCODING 593
SWIDTH 679 0
DWIDTH 9 0
BBX 7 7 1 0
BITMAP
7C
84
84
84
84
84
7E
ENDCHAR
STARTCHAR 0261
ENCODING 609
SWIDTH 603 0
DWIDTH 8 0
BBX 6 10 1 -3
BITMAP
7C
84
84
84
84
84
7C
04
04
FC
ENDCHAR
STARTCHAR 02BB
ENCODING 699
SWIDTH 226 0
DWIDTH 3 0
BBX 1 3 1 7
BITMAP
80
80
80
ENDCHAR
STARTCHAR 02C7
ENCODING 711
SWIDTH 679 0
DWIDTH 9 0
BBX 6 5 1 6
BITMAP
84
44
48
28
10
ENDCHAR
STARTCHAR 02C9
ENCODING 713
SWIDTH 1056 0
DWIDTH 14 0
BBX 6 1 4 9
BITMAP
FC
ENDCHAR
STARTCHAR 02CA
ENCODING 714
SWIDTH 679 0
DWIDTH 9 0
BBX 5 4 2 7
BITMAP
18
20
40
80
ENDCHAR
STARTCHAR 02CB
ENCODING 715
SWIDTH 679 0
DWIDTH 9 0
BBX 5 3 2 7
BITMAP
C0
20
18
ENDCHAR
STARTCHAR 02D9
ENCODING 729
SWIDTH 528 0
DWIDTH 7 0
BBX 3 2 2 4
BITMAP
E0
60
ENDCHAR
STARTCHAR 02EA
ENCODING 746
SWIDTH 679 0
DWIDTH 9 0
BBX 4 7 3 4
BITMAP
80
80
80
80
80
80
F0
ENDCHAR
STARTCHAR 02EB
ENCODING 747
SWIDTH 679 0
DWIDTH 9 0
BBX 4 7 3 4
BITMAP
80
80
F0
80
80
80
80
ENDCHAR
STARTCHAR 0300
ENCODING 768
SWIDTH 0 0
DWIDTH 0 0
BBX 5 4 2 5
BITMAP
80
60
10
08
ENDCHAR
STARTCHAR 0301
ENCODING 769
SWIDTH 0 0
DWIDTH 0 0
BBX 5 4 2 6
BITMAP
08
30
40
80
ENDCHAR
STARTCHAR 0304
ENCODING 772
SWIDTH 0 0
DWIDTH 0 0
BBX 4 1 -2 9
BITMAP
F0
ENDCHAR
STARTCHAR 0307
ENCODING 775
SWIDTH 0 0
DWIDTH 0 0
BBX 2 2 3 9
BITMAP
C0
C0
ENDCHAR
STARTCHAR 030C
ENCODING 780
SWIDTH 0 0
DWIDTH 0 0
BBX 6 4 1 5
BITMAP
84
48
28
10
ENDCHAR
STARTCHAR 0391
ENCODING 913
SWIDTH 603 0
DWIDTH 8 0
BBX 8 10 0 0
BITMAP
08
18
18
24
24
22
7E
42
81
81
ENDCHAR
STARTCHAR 0392
ENCODING 914
SWIDTH 679 0
DWIDTH 9 0
BBX 6 10 2 0
BITMAP
F0
88
84
84
F8
84
84
84
84
F8
ENDCHAR
STARTCHAR 0393
ENCODING 915
SWIDTH 603 0
DWIDTH 8 0
BBX 5 10 2 0
BITMAP
F8
80
80
80
80
80
80
80
80
80
ENDCHAR
STARTCHAR 0394
ENCODING 916
SWIDTH 679 0
DWIDTH 9 0
BBX 8 10 0 0
BITMAP
08
18
14
14
24
22
42
41
41
FF
ENDCHAR
STARTCHAR 0395
ENCODING 917
SWIDTH 603 0
DWIDTH 8 0
BBX 5 10 2 0
BITMAP
F8
80
80
80
F0
80
80
80
80
F8
ENDCHAR
STARTCHAR 0396
ENCODING 918
SWIDTH 603 0
DWIDTH 8 0
BBX 7 10 1 0
BITMAP
FE
04
04
08
10
20
20
40
80
FE
ENDCHAR
STARTCHAR 0397
ENCODING 919
SWIDTH 754 0
DWIDTH 10 0
BBX 6 10 2 0
BITMAP
84
84
84
84
FC
84
84
84
84
84
ENDCHAR
STARTCHAR 0398
ENCODING 920
SWIDTH 754 0
DWIDTH 10 0
BBX 8 10 1 0
BITMAP
3C
42
81
81
BD
81
81
81
41
3E
ENDCHAR
STARTCHAR 0399
ENCODING 921
SWIDTH 301 0
DWIDTH 4 0
BBX 1 10 1 0
BITMAP
80
80
80
80
80
80
80
80
80
80
ENDCHAR
STARTCHAR 039A
ENCODING 922
SWIDTH 679 0
DWIDTH 9 0
BBX 6 10 2 0
BITMAP
84
88
90
A0
E0
90
90
88
84
84
ENDCHAR
STARTCHAR 039B
ENCODING 923
SWIDTH 603 0
DWIDTH 8 0
BBX 8 10 0 0
BITMAP
10
10
28
28
24
44
44
42
82
81
ENDCHAR
STARTCHAR 039C
ENCODING 924
SWIDTH 830 0
DWIDTH 11 0
BBX 7 10 2 0
BITMAP
82
82
86
C6
C6
AA
AA
AA
92
82
ENDCHAR
STARTCHAR 039D
ENCODING 925
SWIDTH 754 0
DWIDTH 10 0
BBX 6 10 2 0
BITMAP
84
84
C4
C4
A4
94
94
8C
84
84
ENDCHAR
STARTCHAR 039E
ENCODING 926
SWIDTH 603 0
DWIDTH 8 0
BBX 6 10 1 0
BITMAP
FC
00
00
00
78
00
00
00
00
FC
ENDCHAR
STARTCHAR 039F
ENCODING 927
SWIDTH 754 0
DWIDTH 10 0
BBX 8 10 1 0
BITMAP
3C
42
81
81
81
81
81
81
41
3E
ENDCHAR
STARTCHAR 03A0
ENCODING 928
SWIDTH 754 0
DWIDTH 10 0
BBX 6 10 2 0
BITMAP
FC
84
84
84
84
84
84
84
84
84
ENDCHAR
STARTCHAR 03A1
ENCODING 929
SWIDTH 679 0
DWIDTH 9 0
BBX 6 10 2 0
BITMAP
F0
8C
84
84
84
F8
80
80
80
80
ENDCHAR
STARTCHAR 03A3
ENCODING 931
SWIDTH 603 0
DWIDTH 8 0
BBX 7 10 1 0
BITMAP
FC
80
40
20
10
10
20
40
40
FE
ENDCHAR
STARTCHAR 03A4
ENCODING 932
SWIDTH 603 0
DWIDTH 8 0
BBX 8 10 0 0
BITMAP
FF
08
08
08
08
08
08
08
08
08
ENDCHAR
STARTCHAR 03A5
ENCODING 933
SWIDTH 528 0
DWIDTH 7 0
BBX 7 10 0 0
BITMAP
82
84
44
28
28
10
10
10
10
10
ENDCHAR
STARTCHAR 03A6
ENCODING 934
SWIDTH 830 0
DWIDTH 11 0
BBX 9 10 1 0
BITMAP
0800
3C00
4B00
8880
8880
8880
8880
C900
3E00
0800
ENDCHAR
STARTCHAR 03A7
ENCODING 935
SWIDTH 528 0
DWIDTH 7 0
BBX 7 10 0 0
BITMAP
82
44
24
28
10
10
28
24
44
82
ENDCHAR
STARTCHAR 03A8
ENCODING 936
SWIDTH 754 0
DWIDTH 10 0
BBX 8 10 1 0
BITMAP
89
89
89
89
89
7E
08
08
08
08
ENDCHAR
STARTCHAR 03A9
ENCODING 937
SWIDTH 754 0
DWIDTH 10 0
BBX 9 10 1 0
BITMAP
3C00
4200
8100
8100
8080
8080
8100
8100
4200
E780
ENDCHAR
STARTCHAR 03B1
ENCODING 945
SWIDTH 603 0
DWIDTH 8 0
BBX 7 7 1 0
BITMAP
7A
84
84
84
84
84
7E
ENDCHAR
STARTCHAR 03B2
ENCODING 946
SWIDTH 603 0
DWIDTH 8 0
BBX 7 14 1 -3
BITMAP
38
44
84
84
88
B8
84
82
82
82
FC
80
80
80
ENDCHAR
STARTCHAR 03B3
ENCODING 947
SWIDTH 528 0
DWIDTH 7 0
BBX 7 10 0 -3
BITMAP
82
42
24
24
28
18
10
10
10
10
ENDCHAR
STARTCHAR 03B4
ENCODING 948
SWIDTH 603 0
DWIDTH 8 0
BBX 6 11 1 0
BITMAP
3C
40
40
20
30
48
84
84
84
84
78
ENDCHAR
STARTCHAR 03B5
ENCODING 949
SWIDTH 528 0
DWIDTH 7 0
BBX 5 7 1 0
BITMAP
78
80
80
70
80
80
F8
ENDCHAR
STARTCHAR 03B6
ENCODING 950
SWIDTH 452 0
DWIDTH 6 0
BBX 5 14 1 -3
BITMAP
F8
10
20
20
40
80
80
80
80
80
60
18
08
08
ENDCHAR
STARTCHAR 03B7
ENCODING 951
SWIDTH 603 0
DWIDTH 8 0
BBX 6 10 1 -3
BITMAP
BC
C4
84
84
84
84
84
04
04
04
ENDCHAR
STARTCHAR 03B8
ENCODING 952
SWIDTH 603 0
DWIDTH 8 0
BBX 6 11 1 0
BITMAP
30
48
84
84
84
FC
84
84
84
88
78
ENDCHAR
STARTCHAR 03B9
ENCODING 953
SWIDTH 301 0
DWIDTH 4 0
BBX 2 7 1 0
BITMAP
80
80
80
80
80
80
C0
ENDCHAR
STARTCHAR 03BA
ENCODING 954
SWIDTH 528 0
DWIDTH 7 0
BBX 6 7 1 0
BITMAP
8C
90
A0
D0
90
88
84
ENDCHAR
STARTCHAR 03BB
ENCODING 955
SWIDTH 528 0
DWIDTH 7 0
BBX 7 11 0 0
BITMAP
C0
20
10
10
10
18
28
24
44
42
82
ENDCHAR
STARTCHAR 03BC
ENCODING 956
SWIDTH 603 0
DWIDTH 8 0
BBX 7 10 1 -3
BITMAP
84
84
84
84
84
84
FE
80
80
80
ENDCHAR
STARTCHAR 03BD
ENCODING 957
SWIDTH 528 0
DWIDTH 7 0
BBX 6 7 0 0
BITMAP
84
44
44
24
28
28
10
ENDCHAR
STARTCHAR 03BE
ENCODING 958
SWIDTH 452 0
DWIDTH 6 0
BBX 5 14 1 -3
BITMAP
F8
40
80
80
40
70
80
80
80
80
60
18
08
08
ENDCHAR
STARTCHAR 03BF
ENCODING 959
SWIDTH 603 0
DWIDTH 8 0
BBX 6 7 1 0
BITMAP
78
84
84
84
84
84
78
ENDCHAR
STARTCHAR 03C0
ENCODING 960
SWIDTH 679 0
DWIDTH 9 0
BBX 8 7 0 0
BITMAP
FF
22
22
22
22
22
23
ENDCHAR
STARTCHAR 03C1
ENCODING 961
SWIDTH 603 0
DWIDTH 8 0
BBX 7 10 1 -3
BITMAP
3C
44
82
82
82
84
F8
80
80
80
ENDCHAR
STARTCHAR 03C2
ENCODING 962
SWIDTH 528 0
DWIDTH 7 0
BBX 5 10 1 -3
BITMAP
78
80
80
80
80
C0
30
08
08
10
ENDCHAR
STARTCHAR 03C3
ENCODING 963
SWIDTH 603 0
DWIDTH 8 0
BBX 7 7 1 0
BITMAP
7E
84
84
84
84
84
78
ENDCHAR
STARTCHAR 03C4
ENCODING 964
SWIDTH 528 0
DWIDTH 7 0
BBX 6 7 0 0
BITMAP
FC
10
10
10
10
10
18
ENDCHAR
STARTCHAR 03C5
ENCODING 965
SWIDTH 603 0
DWIDTH 8 0
BBX 6 7 1 0
BITMAP
88
84
84
84
84
84
78
ENDCHAR
STARTCHAR 03C6
ENCODING 966
SWIDTH 754 0
DWIDTH 10 0
BBX 8 12 1 -3
BITMAP
10
10
7E
91
91
91
91
91
7E
10
10
10
ENDCHAR
STARTCHAR 03C7
ENCODING 967
SWIDTH 528 0
DWIDTH 7 0
BBX 7 10 0 -3
BITMAP
84
44
28
28
10
28
28
44
42
82
ENDCHAR
STARTCHAR 03C8
ENCODING 968
SWIDTH 754 0
DWIDTH 10 0
BBX 8 12 1 -3
BITMAP
10
10
91
91
91
91
91
91
7E
10
10
10
ENDCHAR
STARTCHAR 03C9
ENCODING 969
SWIDTH 754 0
DWIDTH 10 0
BBX 9 7 1 0
BITMAP
4100
8100
8080
8880
8880
8880
7F00
ENDCHAR
STARTCHAR 0401
ENCODING 1025
SWIDTH 603 0
DWIDTH 8 0
BBX 5 12 2 0
BITMAP
48
00
F8
80
80
80
F0
80
80
80
80
F8
ENDCHAR
STARTCHAR 0410
ENCODING 1040
SWIDTH 603 0
DWIDTH 8 0
BBX 8 10 0 0
BITMAP
08
18
18
24
24
22
7E
42
81
81
ENDCHAR
STARTCHAR 0411
ENCODING 1041
SWIDTH 679 0
DWIDTH 9 0
BBX 6 10 2 0
BITMAP
F8
80
80
80
F0
8C
84
84
84
F8
ENDCHAR
STARTCHAR 0412
ENCODING 1042
SWIDTH 679 0
DWIDTH 9 0
BBX 6 10 2 0
BITMAP
F0
88
84
84
F8
84
84
84
84
F8
ENDCHAR
STARTCHAR 0413
ENCODING 1043
SWIDTH 603 0
DWIDTH 8 0
BBX 5 10 2 0
BITMAP
F8
80
80
80
80
80
80
80
80
80
ENDCHAR
STARTCHAR 0414
ENCODING 1044
SWIDTH 754 0
DWIDTH 10 0
BBX 8 13 1 -3
BITMAP
3E
22
22
22
42
42
42
42
42
FE
81
81
81
ENDCHAR
STARTCHAR 0415
ENCODING 1045
SWIDTH 603 0
DWIDTH 8 0
BBX 5 10 2 0
BITMAP
F8
80
80
80
F0
80
80
80
80
F8
ENDCHAR
STARTCHAR 0416
ENCODING 1046
SWIDTH 905 0
DWIDTH 12 0
BBX 12 10 0 0
BITMAP
C430
2440
2440
1480
1F80
1480
2440
2440
4420
8410
ENDCHAR
STARTCHAR 0417
ENCODING 1047
SWIDTH 679 0
DWIDTH 9 0
BBX 7 10 1 0
BITMAP
78
84
02
04
38
04
02
02
82
7C
ENDCHAR
STARTCHAR 0418
ENCODING 1048
SWIDTH 754 0
DWIDTH 10 0
BBX 7 10 2 0
BITMAP
82
86
8A
8A
92
A2
A2
C2
82
82
ENDCHAR
STARTCHAR 0419
ENCODING 1049
SWIDTH 754 0
DWIDTH 10 0
BBX 7 12 2 0
BITMAP
48
30
82
86
8A
8A
92
A2
A2
C2
82
82
ENDCHAR
STARTCHAR 041A
ENCODING 1050
SWIDTH 679 0
DWIDTH 9 0
BBX 7 10 2 0
BITMAP
84
88
90
90
E0
A0
90
88
84
86
ENDCHAR
STARTCHAR 041B
ENCODING 1051
SWIDTH 754 0
DWIDTH 10 0
BBX 8 10 0 0
BITMAP
1F
11
11
11
21
21
21
21
21
C1
ENDCHAR
STARTCHAR 041C
ENCODING 1052
SWIDTH 830 0
DWIDTH 11 0
BBX 7 10 2 0
BITMAP
82
82
86
C6
C6
AA
AA
AA
92
82
ENDCHAR
STARTCHAR 041D
ENCODING 1053
SWIDTH 754 0
DWIDTH 10 0
BBX 6 10 2 0
BITMAP
84
84
84
84
FC
84
84
84
84
84
ENDCHAR
STARTCHAR 041E
ENCODING 1054
SWIDTH 754 0
DWIDTH 10 0
BBX 8 10 1 0
BITMAP
3C
42
81
81
81
81
81
81
41
3E
ENDCHAR
STARTCHAR 041F
ENCODING 1055
SWIDTH 754 0
DWIDTH 10 0
BBX 6 10 2 0
BITMAP
FC
84
84
84
84
84
84
84
84
84
ENDCHAR
STARTCHAR 0420
ENCODING 1056
SWIDTH 679 0
DWIDTH 9 0
BBX 6 10 2 0
BITMAP
F0
8C
84
84
84
F8
80
80
80
80
ENDCHAR
STARTCHAR 0421
ENCODING 1057
SWIDTH 679 0
DWIDTH 9 0
BBX 7 10 1 0
BITMAP
3C
42
80
80
80
80
80
80
42
3C
ENDCHAR
STARTCHAR 0422
ENCODING 1058
SWIDTH 603 0
DWIDTH 8 0
BBX 8 10 0 0
BITMAP
FF
08
08
08
08
08
08
08
08
08
ENDCHAR
STARTCHAR 0423
ENCODING 1059
SWIDTH 603 0
DWIDTH 8 0
BBX 8 10 0 0
BITMAP
81
82
42
44
24
28
18
10
10
60
ENDCHAR
STARTCHAR 0424
ENCODING 1060
SWIDTH 830 0
DWIDTH 11 0
BBX 9 10 1 0
BITMAP
0800
1C00
6B00
8880
8880
8880
8880
4980
3E00
0800
ENDCHAR
STARTCHAR 0425
ENCODING 1061
SWIDTH 528 0
DWIDTH 7 0
BBX 7 10 0 0
BITMAP
82
44
24
28
10
10
28
24
44
82
ENDCHAR
STARTCHAR 0426
ENCODING 1062
SWIDTH 754 0
DWIDTH 10 0
BBX 7 13 2 -3
BITMAP
84
84
84
84
84
84
84
84
84
FC
02
02
02
ENDCHAR
STARTCHAR 0427
ENCODING 1063
SWIDTH 679 0
DWIDTH 9 0
BBX 6 10 1 0
BITMAP
84
84
84
84
84
7C
04
04
04
04
ENDCHAR
STARTCHAR 0428
ENCODING 1064
SWIDTH 981 0
DWIDTH 13 0
BBX 9 10 2 0
BITMAP
8880
8880
8880
8880
8880
8880
8880
8880
8880
FF80
ENDCHAR
STARTCHAR 0429
ENCODING 1065
SWIDTH 981 0
DWIDTH 13 0
BBX 11 13 2 -3
BITMAP
8840
8840
8840
8840
8840
8840
8840
8840
8840
FFC0
0020
0020
0020
ENDCHAR
STARTCHAR 042A
ENCODING 1066
SWIDTH 830 0
DWIDTH 11 0
BBX 10 10 0 0
BITMAP
F800
0800
0800
0800
0F00
08C0
0840
0840
0840
0F80
ENDCHAR
STARTCHAR 042B
ENCODING 1067
SWIDTH 905 0
DWIDTH 12 0
BBX 8 10 2 0
BITMAP
81
81
81
81
E1
99
85
85
85
F9
ENDCHAR
STARTCHAR 042C
ENCODING 1068
SWIDTH 679 0
DWIDTH 9 0
BBX 6 10 2 0
BITMAP
80
80
80
80
F0
88
84
84
84
F8
ENDCHAR
STARTCHAR 042D
ENCODING 1069
SWIDTH 679 0
DWIDTH 9 0
BBX 7 10 1 0
BITMAP
78
84
02
02
3E
02
02
02
84
F8
ENDCHAR
STARTCHAR 042E
ENCODING 1070
SWIDTH 1056 0
DWIDTH 14 0
BBX 11 10 2 0
BITMAP
8780
8840
9020
9020
F020
9020
9020
9020
8840
8780
ENDCHAR
STARTCHAR 042F
ENCODING 1071
SWIDTH 679 0
DWIDTH 9 0
BBX 7 10 0 0
BITMAP
3E
42
42
42
62
1E
12
22
42
C2
ENDCHAR
STARTCHAR 0430
ENCODING 1072
SWIDTH 603 0
DWIDTH 8 0
BBX 5 7 1 0
BITMAP
F8
08
08
78
88
88
F8
ENDCHAR
STARTCHAR 0431
ENCODING 1073
SWIDTH 603 0
DWIDTH 8 0
BBX 6 11 1 0
BITMAP
04
38
40
80
F8
84
84
84
84
84
78
ENDCHAR
STARTCHAR 0432
ENCODING 1074
SWIDTH 603 0
DWIDTH 8 0
BBX 6 7 1 0
BITMAP
F8
84
84
F8
84
84
F8
ENDCHAR
STARTCHAR 0433
ENCODING 1075
SWIDTH 452 0
DWIDTH 6 0
BBX 5 7 1 0
BITMAP
F8
80
80
80
80
80
80
ENDCHAR
STARTCHAR 0434
ENCODING 1076
SWIDTH 603 0
DWIDTH 8 0
BBX 7 10 0 -3
BITMAP
3C
24
24
24
44
44
7C
82
82
82
ENDCHAR
STARTCHAR 0435
ENCODING 1077
SWIDTH 603 0
DWIDTH 8 0
BBX 6 7 1 0
BITMAP
78
84
84
FC
80
80
7C
ENDCHAR
STARTCHAR 0436
ENCODING 1078
SWIDTH 754 0
DWIDTH 10 0
BBX 9 7 0 0
BITMAP
C880
2900
2900
1E00
2900
4880
8880
ENDCHAR
STARTCHAR 0437
ENCODING 1079
SWIDTH 528 0
DWIDTH 7 0
BBX 5 7 1 0
BITMAP
F0
08
08
70
08
08
F8
ENDCHAR
STARTCHAR 0438
ENCODING 1080
SWIDTH 679 0
DWIDTH 9 0
BBX 6 7 1 0
BITMAP
84
8C
8C
94
A4
C4
84
ENDCHAR
STARTCHAR 0439
ENCODING 1081
SWIDTH 679 0
DWIDTH 9 0
BBX 6 10 1 0
BITMAP
44
38
00
84
8C
8C
94
A4
C4
84
ENDCHAR
STARTCHAR 043A
ENCODING 1082
SWIDTH 528 0
DWIDTH 7 0
BBX 6 7 1 0
BITMAP
8C
90
90
F0
90
88
84
ENDCHAR
STARTCHAR 043B
ENCODING 1083
SWIDTH 603 0
DWIDTH 8 0
BBX 6 7 0 0
BITMAP
3C
24
24
24
24
44
C4
ENDCHAR
STARTCHAR 043C
ENCODING 1084
SWIDTH 754 0
DWIDTH 10 0
BBX 7 7 1 0
BITMAP
82
C2
A6
A6
AA
92
82
ENDCHAR
STARTCHAR 043D
ENCODING 1085
SWIDTH 679 0
DWIDTH 9 0
BBX 6 7 1 0
BITMAP
84
84
84
FC
84
84
84
ENDCHAR
STARTCHAR 043E
ENCODING 1086
SWIDTH 603 0
DWIDTH 8 0
BBX 7 7 1 0
BITMAP
78
84
82
82
82
84
78
ENDCHAR
STARTCHAR 043F
ENCODING 1087
SWIDTH 603 0
DWIDTH 8 0
BBX 6 7 1 0
BITMAP
FC
84
84
84
84
84
84
ENDCHAR
STARTCHAR 0440
ENCODING 1088
SWIDTH 603 0
DWIDTH 8 0
BBX 7 10 1 -3
BITMAP
FC
84
82
82
82
84
F8
80
80
80
ENDCHAR
STARTCHAR 0441
ENCODING 1089
SWIDTH 528 0
DWIDTH 7 0
BBX 6 7 1 0
BITMAP
78
80
80
80
80
80
7C
ENDCHAR
STARTCHAR 0442
ENCODING 1090
SWIDTH 528 0
DWIDTH 7 0
BBX 6 7 0 0
BITMAP
FC
10
10
10
10
10
10
ENDCHAR
STARTCHAR 0443
ENCODING 1091
SWIDTH 528 0
DWIDTH 7 0
BBX 6 10 0 -3
BITMAP
84
44
44
48
28
28
10
10
10
E0
ENDCHAR
STARTCHAR 0444
ENCODING 1092
SWIDTH 830 0
DWIDTH 11 0
BBX 9 14 1 -3
BITMAP
0800
0800
0800
0800
7F00
8880
8880
8880
8880
8880
7F00
0800
0800
0800
ENDCHAR
STARTCHAR 0445
ENCODING 1093
SWIDTH 452 0
DWIDTH 6 0
BBX 6 7 0 0
BITMAP
C4
48
30
10
30
48
84
ENDCHAR
STARTCHAR 0446
ENCODING 1094
SWIDTH 603 0
DWIDTH 8 0
BBX 7 10 1 -3
BITMAP
84
84
84
84
84
84
FC
02
02
02
ENDCHAR
STARTCHAR 0447
ENCODING 1095
SWIDTH 603 0
DWIDTH 8 0
BBX 5 7 1 0
BITMAP
88
88
88
78
08
08
08
ENDCHAR
STARTCHAR 0448
ENCODING 1096
SWIDTH 830 0
DWIDTH 11 0
BBX 9 7 1 0
BITMAP
8880
8880
8880
8880
8880
8880
FF80
ENDCHAR
STARTCHAR 0449
ENCODING 1097
SWIDTH 830 0
DWIDTH 11 0
BBX 10 10 1 -3
BITMAP
8880
8880
8880
8880
8880
8880
FF80
0040
0040
0040
ENDCHAR
STARTCHAR 044A
ENCODING 1098
SWIDTH 679 0
DWIDTH 9 0
BBX 8 7 0 0
BITMAP
F0
10
10
1F
11
11
1F
ENDCHAR
STARTCHAR 044B
ENCODING 1099
SWIDTH 754 0
DWIDTH 10 0
BBX 7 7 1 0
BITMAP
82
82
82
FA
8A
8A
F2
ENDCHAR
STARTCHAR 044C
ENCODING 1100
SWIDTH 528 0
DWIDTH 7 0
BBX 6 7 1 0
BITMAP
80
80
80
F8
84
84
F8
ENDCHAR
STARTCHAR 044D
ENCODING 1101
SWIDTH 528 0
DWIDTH 7 0
BBX 6 7 0 0
BITMAP
78
04
04
3C
04
04
F8
ENDCHAR
STARTCHAR 044E
ENCODING 1102
SWIDTH 830 0
DWIDTH 11 0
BBX 9 7 1 0
BITMAP
8F00
9080
9080
F080
9080
9080
8F00
ENDCHAR
STARTCHAR 044F
ENCODING 1103
SWIDTH 603 0
DWIDTH 8 0
BBX 5 7 1 0
BITMAP
78
88
88
78
28
48
88
ENDCHAR
STARTCHAR 0451
ENCODING 1105
SWIDTH 603 0
DWIDTH 8 0
BBX 6 10 1 0
BITMAP
48
00
00
78
84
84
FC
80
80
7C
ENDCHAR
STARTCHAR 1E3E
ENCODING 7742
SWIDTH 830 0
DWIDTH 11 0
BBX 7 12 2 0
BITMAP
08
10
82
82
86
C6
C6
AA
AA
AA
92
82
ENDCHAR
STARTCHAR 1E3F
ENCODING 7743
SWIDTH 981 0
DWIDTH 13 0
BBX 10 11 1 0
BITMAP
0200
0400
0800
0000
FBC0
8440
8440
8440
8440
8440
8440
ENDCHAR
STARTCHAR 1EA0
ENCODING 7840
SWIDTH 603 0
DWIDTH 8 0
BBX 8 13 0 -3
BITMAP
08
18
18
24
24
22
7E
42
81
81
00
00
08
ENDCHAR
STARTCHAR 1EA1
ENCODING 7841
SWIDTH 603 0
DWIDTH 8 0
BBX 5 10 1 -3
BITMAP
F8
08
08
78
88
88
F8
00
00
20
ENDCHAR
STARTCHAR 1EA2
ENCODING 7842
SWIDTH 603 0
DWIDTH 8 0
BBX 8 13 0 0
BITMAP
10
08
08
08
18
18
24
24
22
7E
42
81
81
ENDCHAR
STARTCHAR 1EA3
ENCODING 7843
SWIDTH 603 0
DWIDTH 8 0
BBX 5 11 1 0
BITMAP
20
10
20
00
F8
08
08
78
88
88
F8
ENDCHAR
STARTCHAR 1EA4
ENCODING 7844
SWIDTH 603 0
DWIDTH 8 0
BBX 8 13 0 0
BITMAP
02
1C
24
08
18
18
24
24
22
7E
42
81
81
ENDCHAR
STARTCHAR 1EA5
ENCODING 7845
SWIDTH 603 0
DWIDTH 8 0
BBX 6 11 1 0
BITMAP
04
38
48
00
F8
08
0C
74
84
84
FC
ENDCHAR
STARTCHAR 1EA6
ENCODING 7846
SWIDTH 603 0
DWIDTH 8 0
BBX 8 13 0 0
BITMAP
40
38
24
08
18
18
24
24
22
7E
42
81
81
ENDCHAR
STARTCHAR 1EA7
ENCODING 7847
SWIDTH 603 0
DWIDTH 8 0
BBX 5 11 1 0
BITMAP
80
70
48
00
F8
08
08
78
88
88
F8
ENDCHAR
STARTCHAR 1EA8
ENCODING 7848
SWIDTH 603 0
DWIDTH 8 0
BBX 8 13 0 0
BITMAP
06
1A
24
08
18
18
24
24
22
7E
42
81
81
ENDCHAR
STARTCHAR 1EA9
ENCODING 7849
SWIDTH 603 0
DWIDTH 8 0
BBX 6 11 1 0
BITMAP
0C
38
48
00
F8
08
0C
74
84
84
FC
ENDCHAR
STARTCHAR 1EAA
ENCODING 7850
SWIDTH 603 0
DWIDTH 8 0
BBX 8 13 0 0
BITMAP
3C
18
24
08
18
18
24
24
22
7E
42
81
81
ENDCHAR
STARTCHAR 1EAB
ENCODING 7851
SWIDTH 603 0
DWIDTH 8 0
BBX 5 11 1 0
BITMAP
78
30
48
00
F8
08
08
78
88
88
F8
ENDCHAR
STARTCHAR 1EAC
ENCODING 7852
SWIDTH 603 0
DWIDTH 8 0
BBX 8 15 0 -3
BITMAP
18
24
08
18
18
24
24
22
7E
42
81
81
00
00
08
ENDCHAR
STARTCHAR 1EAD
ENCODING 7853
SWIDTH 603 0
DWIDTH 8 0
BBX 5 14 1 -3
BITMAP
10
28
48
00
F8
08
08
78
88
88
F8
00
00
20
ENDCHAR
STARTCHAR 1EAE
ENCODING 7854
SWIDTH 603 0
DWIDTH 8 0
BBX 8 13 0 0
BITMAP
0C
24
18
08
18
18
24
24
22
7E
42
81
81
ENDCHAR
STARTCHAR 1EAF
ENCODING 7855
SWIDTH 603 0
DWIDTH 8 0
BBX 5 12 1 0
BITMAP
10
58
48
30
00
F8
08
08
78
88
88
F8
ENDCHAR
STARTCHAR 1EB0
ENCODING 7856
SWIDTH 603 0
DWIDTH 8 0
BBX 8 13 0 0
BITMAP
10
24
18
08
18
18
24
24
22
7E
42
81
81
ENDCHAR
STARTCHAR 1EB1
ENCODING 7857
SWIDTH 603 0
DWIDTH 8 0
BBX 5 12 1 0
BITMAP
20
68
58
30
00
F8
08
08
78
88
88
F8
ENDCHAR
STARTCHAR 1EB2
ENCODING 7858
SWIDTH 603 0
DWIDTH 8 0
BBX 8 14 0 0
BITMAP
10
08
24
18
08
18
18
24
24
22
7E
42
81
81
ENDCHAR
STARTCHAR 1EB3
ENCODING 7859
SWIDTH 603 0
DWIDTH 8 0
BBX 5 12 1 0
BITMAP
30
58
48
30
00
F8
08
08
78
88
88
F8
ENDCHAR
STARTCHAR 1EB4
ENCODING 7860
SWIDTH 603 0
DWIDTH 8 0
BBX 8 13 0 0
BITMAP
3C
24
18
08
18
18
24
24
22
7E
42
81
81
ENDCHAR
STARTCHAR 1EB5
ENCODING 7861
SWIDTH 603 0
DWIDTH 8 0
BBX 5 11 1 0
BITMAP
78
48
30
00
F8
08
08
78
88
88
F8
ENDCHAR
STARTCHAR 1EB6
ENCODING 7862
SWIDTH 603 0
DWIDTH 8 0
BBX 8 15 0 -3
BITMAP
24
18
08
18
18
24
24
22
7E
42
81
81
00
00
08
ENDCHAR
STARTCHAR 1EB7
ENCODING 7863
SWIDTH 603 0
DWIDTH 8 0
BBX 5 14 1 -3
BITMAP
48
48
30
00
F8
08
08
78
88
88
F8
00
00
20
ENDCHAR
STARTCHAR 1EB8
ENCODING 7864
SWIDTH 603 0
DWIDTH 8 0
BBX 5 13 2 -3
BITMAP
F8
80
80
80
F0
80
80
80
80
F8
00
00
20
ENDCHAR
STARTCHAR 1EB9
ENCODING 7865
SWIDTH 603 0
DWIDTH 8 0
BBX 6 10 1 -3
BITMAP
78
84
84
FC
80
80
7C
00
00
10
ENDCHAR
STARTCHAR 1EBA
ENCODING 7866
SWIDTH 603 0
DWIDTH 8 0
BBX 5 13 2 0
BITMAP
20
10
20
F8
80
80
80
F0
80
80
80
80
F8
ENDCHAR
STARTCHAR 1EBB
ENCODING 7867
SWIDTH 603 0
DWIDTH 8 0
BBX 6 11 1 0
BITMAP
20
10
20
00
78
84
84
FC
80
80
7C
ENDCHAR
STARTCHAR 1EBC
ENCODING 7868
SWIDTH 603 0
DWIDTH 8 0
BBX 5 12 2 0
BITMAP
E8
10
F8
80
80
80
F0
80
80
80
80
F8
ENDCHAR
STARTCHAR 1EBD
ENCODING 7869
SWIDTH 603 0
DWIDTH 8 0
BBX 6 10 1 0
BITMAP
E4
98
00
78
84
84
FC
80
80
7C
ENDCHAR
STARTCHAR 1EBE
ENCODING 7870
SWIDTH 603 0
DWIDTH 8 0
BBX 6 13 2 0
BITMAP
04
28
58
F8
80
80
80
F0
80
80
80
80
F8
ENDCHAR
STARTCHAR 1EBF
ENCODING 7871
SWIDTH 603 0
DWIDTH 8 0
BBX 6 11 1 0
BITMAP
04
38
48
00
78
84
84
FC
80
80
7C
ENDCHAR
STARTCHAR 1EC0
ENCODING 7872
SWIDTH 603 0
DWIDTH 8 0
BBX 5 13 2 0
BITMAP
80
A0
58
F8
80
80
80
F0
80
80
80
80
F8
ENDCHAR
STARTCHAR 1EC1
ENCODING 7873
SWIDTH 603 0
DWIDTH 8 0
BBX 6 11 1 0
BITMAP
80
70
48
00
78
84
84
FC
80
80
7C
ENDCHAR
STARTCHAR 1EC2
ENCODING 7874
SWIDTH 603 0
DWIDTH 8 0
BBX 5 13 2 0
BITMAP
08
28
58
F8
80
80
80
F0
80
80
80
80
F8
ENDCHAR
STARTCHAR 1EC3
ENCODING 7875
SWIDTH 603 0
DWIDTH 8 0
BBX 6 11 1 0
BITMAP
0C
38
48
00
78
84
84
FC
80
80
7C
ENDCHAR
STARTCHAR 1EC4
ENCODING 7876
SWIDTH 603 0
DWIDTH 8 0
BBX 5 13 2 0
BITMAP
F8
20
58
F8
80
80
80
F0
80
80
80
80
F8
ENDCHAR
STARTCHAR 1EC5
ENCODING 7877
SWIDTH 603 0
DWIDTH 8 0
BBX 6 11 1 0
BITMAP
78
30
48
00
78
84
84
FC
80
80
7C
ENDCHAR
STARTCHAR 1EC6
ENCODING 7878
SWIDTH 603 0
DWIDTH 8 0
BBX 5 15 2 -3
BITMAP
70
88
F8
80
80
80
F0
80
80
80
80
F8
00
00
20
ENDCHAR
STARTCHAR 1EC7
ENCODING 7879
SWIDTH 603 0
DWIDTH 8 0
BBX 6 14 1 -3
BITMAP
10
28
48
00
78
84
84
FC
80
80
7C
00
00
10
ENDCHAR
STARTCHAR 1EC8
ENCODING 7880
SWIDTH 301 0
DWIDTH 4 0
BBX 2 13 1 0
BITMAP
80
40
80
80
80
80
80
80
80
80
80
80
80
ENDCHAR
STARTCHAR 1EC9
ENCODING 7881
SWIDTH 226 0
DWIDTH 3 0
BBX 2 11 1 0
BITMAP
80
40
80
00
80
80
80
80
80
80
80
ENDCHAR
STARTCHAR 1ECA
ENCODING 7882
SWIDTH 301 0
DWIDTH 4 0
BBX 1 13 1 -3
BITMAP
80
80
80
80
80
80
80
80
80
80
00
00
80
ENDCHAR
STARTCHAR 1ECB
ENCODING 7883
SWIDTH 226 0
DWIDTH 3 0
BBX 1 13 1 -3
BITMAP
80
00
00
80
80
80
80
80
80
80
00
00
80
ENDCHAR
STARTCHAR 1ECC
ENCODING 7884
SWIDTH 754 0
DWIDTH 10 0
BBX 8 13 1 -3
BITMAP
3C
42
81
81
81
81
81
81
41
3E
00
00
08
ENDCHAR
STARTCHAR 1ECD
ENCODING 7885
SWIDTH 603 0
DWIDTH 8 0
BBX 7 10 1 -3
BITMAP
78
84
82
82
82
84
78
00
00
10
ENDCHAR
STARTCHAR 1ECE
ENCODING 7886
SWIDTH 754 0
DWIDTH 10 0
BBX 8 13 1 0
BITMAP
10
08
08
3C
42
81
81
81
81
81
81
41
3E
ENDCHAR
STARTCHAR 1ECF
ENCODING 7887
SWIDTH 603 0
DWIDTH 8 0
BBX 7 11 1 0
BITMAP
30
10
20
00
78
84
82
82
82
84
78
ENDCHAR
STARTCHAR 1ED0
ENCODING 7888
SWIDTH 754 0
DWIDTH 10 0
BBX 8 13 1 0
BITMAP
02
1C
24
3C
42
81
81
81
81
81
81
41
3E
ENDCHAR
STARTCHAR 1ED1
ENCODING 7889
SWIDTH 603 0
DWIDTH 8 0
BBX 7 11 1 0
BITMAP
04
38
48
00
78
84
82
82
82
84
78
ENDCHAR
STARTCHAR 1ED2
ENCODING 7890
SWIDTH 754 0
DWIDTH 10 0
BBX 8 13 1 0
BITMAP
40
38
24
3C
42
81
81
81
81
81
81
41
3E
ENDCHAR
STARTCHAR 1ED3
ENCODING 7891
SWIDTH 603 0
DWIDTH 8 0
BBX 7 11 1 0
BITMAP
80
70
48
00
78
84
82
82
82
84
78
ENDCHAR
STARTCHAR 1ED4
ENCODING 7892
SWIDTH 754 0
DWIDTH 10 0
BBX 8 13 1 0
BITMAP
06
1A
24
3C
42
81
81
81
81
81
81
41
3E
ENDCHAR
STARTCHAR 1ED5
ENCODING 7893
SWIDTH 603 0
DWIDTH 8 0
BBX 7 11 1 0
BITMAP
0C
34
48
00
78
84
82
82
82
84
78
ENDCHAR
STARTCHAR 1ED6
ENCODING 7894
SWIDTH 754 0
DWIDTH 10 0
BBX 8 13 1 0
BITMAP
3C
18
24
3C
42
81
81
81
81
81
81
41
3E
ENDCHAR
STARTCHAR 1ED7
ENCODING 7895
SWIDTH 603 0
DWIDTH 8 0
BBX 7 11 1 0
BITMAP
78
30
48
00
78
84
82
82
82
84
78
ENDCHAR
STARTCHAR 1ED8
ENCODING 7896
SWIDTH 754 0
DWIDTH 10 0
BBX 8 15 1 -3
BITMAP
18
24
3C
42
81
81
81
81
81
81
41
3E
00
00
08
ENDCHAR
STARTCHAR 1ED9
ENCODING 7897
SWIDTH 603 0
DWIDTH 8 0
BBX 7 14 1 -3
BITMAP
10
28
48
00
78
84
82
82
82
84
78
00
00
10
ENDCHAR
STARTCHAR 1EDA
ENCODING 7898
SWIDTH 754 0
DWIDTH 10 0
BBX 8 12 1 0
BITMAP
0D
11
3D
42
81
81
81
81
81
81
41
3E
ENDCHAR
STARTCHAR 1EDB
ENCODING 7899
SWIDTH 603 0
DWIDTH 8 0
BBX 7 11 1 0
BITMAP
08
10
22
02
7C
84
82
82
82
84
78
ENDCHAR
STARTCHAR 1EDC
ENCODING 7900
SWIDTH 754 0
DWIDTH 10 0
BBX 8 12 1 0
BITMAP
31
09
3D
42
81
81
81
81
81
81
41
3E
ENDCHAR
STARTCHAR 1EDD
ENCODING 7901
SWIDTH 603 0
DWIDTH 8 0
BBX 7 11 1 0
BITMAP
40
20
12
02
7C
84
82
82
82
84
78
ENDCHAR
STARTCHAR 1EDE
ENCODING 7902
SWIDTH 754 0
DWIDTH 10 0
BBX 8 13 1 0
BITMAP
10
09
09
3D
42
81
81
81
81
81
81
41
3E
ENDCHAR
STARTCHAR 1EDF
ENCODING 7903
SWIDTH 603 0
DWIDTH 8 0
BBX 7 11 1 0
BITMAP
30
10
22
02
7C
84
82
82
82
84
78
ENDCHAR
STARTCHAR 1EE0
ENCODING 7904
SWIDTH 754 0
DWIDTH 10 0
BBX 8 12 1 0
BITMAP
3B
05
3D
42
81
81
81
81
81
81
41
3E
ENDCHAR
STARTCHAR 1EE1
ENCODING 7905
SWIDTH 603 0
DWIDTH 8 0
BBX 7 10 1 0
BITMAP
74
8A
02
7C
84
82
82
82
84
78
ENDCHAR
STARTCHAR 1EE2
ENCODING 7906
SWIDTH 754 0
DWIDTH 10 0
BBX 8 15 1 -3
BITMAP
01
01
3D
42
81
81
81
81
81
81
41
3E
00
00
08
ENDCHAR
STARTCHAR 1EE3
ENCODING 7907
SWIDTH 603 0
DWIDTH 8 0
BBX 7 12 1 -3
BITMAP
02
02
7C
84
82
82
82
84
78
00
00
10
ENDCHAR
STARTCHAR 1EE4
ENCODING 7908
SWIDTH 754 0
DWIDTH 10 0
BBX 6 13 2 -3
BITMAP
84
84
84
84
84
84
84
84
84
78
00
00
20
ENDCHAR
STARTCHAR 1EE5
ENCODING 7909
SWIDTH 603 0
DWIDTH 8 0
BBX 6 10 1 -3
BITMAP
84
84
84
84
84
84
7C
00
00
10
ENDCHAR
STARTCHAR 1EE6
ENCODING 7910
SWIDTH 754 0
DWIDTH 10 0
BBX 6 13 2 0
BITMAP
20
10
20
84
84
84
84
84
84
84
84
84
78
ENDCHAR
STARTCHAR 1EE7
ENCODING 7911
SWIDTH 603 0
DWIDTH 8 0
BBX 6 11 1 0
BITMAP
20
10
20
00
84
84
84
84
84
84
7C
ENDCHAR
STARTCHAR 1EE8
ENCODING 7912
SWIDTH 754 0
DWIDTH 10 0
BBX 8 12 2 0
BITMAP
19
21
82
82
82
82
82
82
82
82
84
78
ENDCHAR
STARTCHAR 1EE9
ENCODING 7913
SWIDTH 603 0
DWIDTH 8 0
BBX 7 11 1 0
BITMAP
08
10
22
02
84
84
84
84
84
84
7C
ENDCHAR
STARTCHAR 1EEA
ENCODING 7914
SWIDTH 754 0
DWIDTH 10 0
BBX 8 12 2 0
BITMAP
61
11
82
82
82
82
82
82
82
82
84
78
ENDCHAR
STARTCHAR 1EEB
ENCODING 7915
SWIDTH 603 0
DWIDTH 8 0
BBX 7 11 1 0
BITMAP
40
20
12
02
84
84
84
84
84
84
7C
ENDCHAR
STARTCHAR 1EEC
ENCODING 7916
SWIDTH 754 0
DWIDTH 10 0
BBX 8 13 2 0
BITMAP
20
11
21
82
82
82
82
82
82
82
82
84
78
ENDCHAR
STARTCHAR 1EED
ENCODING 7917
SWIDTH 603 0
DWIDTH 8 0
BBX 7 11 1 0
BITMAP
20
10
22
02
84
84
84
84
84
84
7C
ENDCHAR
STARTCHAR 1EEE
ENCODING 7918
SWIDTH 754 0
DWIDTH 10 0
BBX 8 12 2 0
BITMAP
E5
19
82
82
82
82
82
82
82
82
84
78
ENDCHAR
STARTCHAR 1EEF
ENCODING 7919
SWIDTH 603 0
DWIDTH 8 0
BBX 7 10 1 0
BITMAP
E4
9A
02
84
84
84
84
84
84
7C
ENDCHAR
STARTCHAR 1EF0
ENCODING 7920
SWIDTH 754 0
DWIDTH 10 0
BBX 8 15 2 -3
BITMAP
01
01
82
82
82
82
82
82
82
82
84
78
00
00
20
ENDCHAR
STARTCHAR 1EF1
ENCODING 7921
SWIDTH 603 0
DWIDTH 8 0
BBX 7 12 1 -3
BITMAP
02
02
84
84
84
84
84
84
7C
00
00
10
ENDCHAR
STARTCHAR 1EF2
ENCODING 7922
SWIDTH 528 0
DWIDTH 7 0
BBX 7 12 0 0
BITMAP
20
10
82
84
44
28
28
10
10
10
10
10
ENDCHAR
STARTCHAR 1EF3
ENCODING 7923
SWIDTH 528 0
DWIDTH 7 0
BBX 6 14 0 -3
BITMAP
20
10
08
00
84
44
44
48
28
28
10
10
10
E0
ENDCHAR
STARTCHAR 1EF4
ENCODING 7924
SWIDTH 528 0
DWIDTH 7 0
BBX 7 13 0 -3
BITMAP
82
84
44
28
28
10
10
10
10
10
00
00
10
ENDCHAR
STARTCHAR 1EF5
ENCODING 7925
SWIDTH 528 0
DWIDTH 7 0
BBX 6 10 0 -3
BITMAP
84
44
44
48
28
28
10
10
10
E4
ENDCHAR
STARTCHAR 1EF6
ENCODING 7926
SWIDTH 528 0
DWIDTH 7 0
BBX 7 13 0 0
BITMAP
30
08
10
82
84
44
28
28
10
10
10
10
10
ENDCHAR
STARTCHAR 1EF7
ENCODING 7927
SWIDTH 528 0
DWIDTH 7 0
BBX 6 14 0 -3
BITMAP
10
08
10
00
84
44
44
48
28
28
10
10
10
E0
ENDCHAR
STARTCHAR 1EF8
ENCODING 7928
SWIDTH 528 0
DWIDTH 7 0
BBX 7 12 0 0
BITMAP
74
08
82
84
44
28
28
10
10
10
10
10
ENDCHAR
STARTCHAR 1EF9
ENCODING 7929
SWIDTH 528 0
DWIDTH 7 0
BBX 6 13 0 -3
BITMAP
74
48
00
84
44
44
48
28
28
10
10
10
E0
ENDCHAR
STARTCHAR 2002
ENCODING 8194
SWIDTH 528 0
DWIDTH 7 0
BBX 0 0 0 0
BITMAP
ENDCHAR
STARTCHAR 2003
ENCODING 8195
SWIDTH 1056 0
DWIDTH 14 0
BBX 0 0 0 0
BITMAP
ENDCHAR
STARTCHAR 2010
ENCODING 8208
SWIDTH 1056 0
DWIDTH 14 0
BBX 4 1 5 5
BITMAP
F0
ENDCHAR
STARTCHAR 2011
ENCODING 8209
SWIDTH 377 0
DWIDTH 5 0
BBX 3 1 1 3
BITMAP
E0
ENDCHAR
STARTCHAR 2012
ENCODING 8210
SWIDTH 603 0
DWIDTH 8 0
BBX 6 1 1 3
BITMAP
FC
ENDCHAR
STARTCHAR 2013
ENCODING 8211
SWIDTH 603 0
DWIDTH 8 0
BBX 6 1 1 3
BITMAP
FC
ENDCHAR
STARTCHAR 2014
ENCODING 8212
SWIDTH 981 0
DWIDTH 13 0
BBX 11 1 1 3
BITMAP
FFE0
ENDCHAR
STARTCHAR 2015
ENCODING 8213
SWIDTH 1056 0
DWIDTH 14 0
BBX 12 1 1 5
BITMAP
FFF0
ENDCHAR
STARTCHAR 2016
ENCODING 8214
SWIDTH 1056 0
DWIDTH 14 0
BBX 2 14 6 -2
BITMAP
C0
C0
C0
C0
C0
C0
C0
C0
C0
C0
C0
C0
C0
C0
ENDCHAR
STARTCHAR 2018
ENCODING 8216
SWIDTH 1056 0
DWIDTH 14 0
BBX 1 3 12 8
BITMAP
80
80
80
ENDCHAR
STARTCHAR 2019
ENCODING 8217
SWIDTH 1056 0
DWIDTH 14 0
BBX 2 3 1 8
BITMAP
C0
40
80
ENDCHAR
STARTCHAR 201A
ENCODING 8218
SWIDTH 226 0
DWIDTH 3 0
BBX 1 3 1 -2
BITMAP
80
80
80
ENDCHAR
STARTCHAR 201C
ENCODING 8220
SWIDTH 1056 0
DWIDTH 14 0
BBX 5 3 9 8
BITMAP
58
90
D8
ENDCHAR
STARTCHAR 201D
ENCODING 8221
SWIDTH 1056 0
DWIDTH 14 0
BBX 4 3 1 8
BITMAP
B0
50
B0
ENDCHAR
STARTCHAR 201E
ENCODING 8222
SWIDTH 377 0
DWIDTH 5 0
BBX 3 3 1 -2
BITMAP
A0
60
A0
ENDCHAR
STARTCHAR 2020
ENCODING 8224
SWIDTH 1056 0
DWIDTH 14 0
BBX 6 11 4 -1
BITMAP
10
10
10
FC
10
10
10
10
10
10
10
ENDCHAR
STARTCHAR 2021
ENCODING 8225
SWIDTH 1056 0
DWIDTH 14 0
BBX 6 11 4 -1
BITMAP
10
10
10
FC
10
10
10
FC
10
10
10
ENDCHAR
STARTCHAR 2022
ENCODING 8226
SWIDTH 1056 0
DWIDTH 14 0
BBX 2 2 6 4
BITMAP
C0
C0
ENDCHAR
STARTCHAR 2025
ENCODING 8229
SWIDTH 1056 0
DWIDTH 14 0
BBX 8 2 3 4
BITMAP
81
81
ENDCHAR
STARTCHAR 2026
ENCODING 8230
SWIDTH 1056 0
DWIDTH 14 0
BBX 11 2 2 4
BITMAP
8C60
8440
ENDCHAR
STARTCHAR 2027
ENCODING 8231
SWIDTH 1056 0
DWIDTH 14 0
BBX 2 2 6 4
BITMAP
C0
C0
ENDCHAR
STARTCHAR 2030
ENCODING 8240
SWIDTH 1056 0
DWIDTH 14 0
BBX 13 10 1 0
BITMAP
4200
A400
A400
A800
AA30
F548
1948
2948
2948
4770
ENDCHAR
STARTCHAR 2032
ENCODING 8242
SWIDTH 226 0
DWIDTH 3 0
BBX 1 3 1 7
BITMAP
80
80
80
ENDCHAR
STARTCHAR 2033
ENCODING 8243
SWIDTH 377 0
DWIDTH 5 0
BBX 3 3 1 7
BITMAP
A0
A0
A0
ENDCHAR
STARTCHAR 2035
ENCODING 8245
SWIDTH 1056 0
DWIDTH 14 0
BBX 3 1 5 11
BITMAP
E0
ENDCHAR
STARTCHAR 2039
ENCODING 8249
SWIDTH 301 0
DWIDTH 4 0
BBX 2 5 1 1
BITMAP
40
80
80
80
40
ENDCHAR
STARTCHAR 203A
ENCODING 8250
SWIDTH 301 0
DWIDTH 4 0
BBX 2 5 1 1
BITMAP
80
40
40
40
80
ENDCHAR
STARTCHAR 203B
ENCODING 8251
SWIDTH 1056 0
DWIDTH 14 0
BBX 10 10 2 0
BITMAP
8C40
4C80
2100
1200
CCC0
CCC0
1200
2100
4C80
8C40
ENDCHAR
STARTCHAR 203C
ENCODING 8252
SWIDTH 603 0
DWIDTH 8 0
BBX 5 10 1 0
BITMAP
88
88
88
88
88
88
88
00
00
C8
ENDCHAR
STARTCHAR 2042
ENCODING 8258
SWIDTH 1056 0
DWIDTH 14 0
BBX 12 10 1 0
BITMAP
0280
0B00
0700
1A80
0200
2040
ED50
30E0
ED70
2040
ENDCHAR
STARTCHAR 2047
ENCODING 8263
SWIDTH 905 0
DWIDTH 12 0
BBX 10 10 1 0
BITMAP
F380
1440
0840
1040
2080
2080
4100
0000
0000
4100
ENDCHAR
STARTCHAR 2048
ENCODING 8264
SWIDTH 754 0
DWIDTH 10 0
BBX 7 10 1 0
BITMAP
F2
12
0A
12
22
22
42
00
00
42
ENDCHAR
STARTCHAR 2049
ENCODING 8265
SWIDTH 754 0
DWIDTH 10 0
BBX 8 10 1 0
BITMAP
8E
91
81
81
82
84
84
00
00
C4
ENDCHAR
STARTCHAR 2051
ENCODING 8273
SWIDTH 1056 0
DWIDTH 14 0
BBX 5 12 5 -1
BITMAP
20
A8
50
70
A8
20
20
A8
70
D0
28
20
ENDCHAR
STARTCHAR 2074
ENCODING 8308
SWIDTH 452 0
DWIDTH 6 0
BBX 4 6 1 6
BITMAP
20
60
60
A0
70
20
ENDCHAR
STARTCHAR 20A9
ENCODING 8361
SWIDTH 528 0
DWIDTH 7 0
BBX 8 9 0 0
BITMAP
92
92
92
5A
EF
6A
6C
64
44
ENDCHAR
STARTCHAR 20AB
ENCODING 8363
SWIDTH 528 0
DWIDTH 7 0
BBX 6 10 1 0
BITMAP
08
3C
08
78
88
88
88
88
70
F8
ENDCHAR
STARTCHAR 20AC
ENCODING 8364
SWIDTH 528 0
DWIDTH 7 0
BBX 7 10 0 0
BITMAP
0C
32
20
40
FC
40
FC
40
20
1E
ENDCHAR
STARTCHAR 20DD
ENCODING 8413
SWIDTH 0 0
DWIDTH 0 0
BBX 13 12 -14 -1
BITMAP
1FC0
2030
4008
4008
8008
8008
8008
8008
4008
4010
2020
1FC0
ENDCHAR
STARTCHAR 20DE
ENCODING 8414
SWIDTH 0 0
DWIDTH 0 0
BBX 13 12 -14 -1
BITMAP
FFF8
8008
8008
8008
8008
8008
8008
8008
8008
8008
8008
FFF8
ENDCHAR
STARTCHAR 2100
ENCODING 8448
SWIDTH 1056 0
DWIDTH 14 0
BBX 11 10 2 0
BITMAP
6880
9080
9100
9200
F400
04E0
0900
1100
2200
61C0
ENDCHAR
STARTCHAR 2103
ENCODING 8451
SWIDTH 1056 0
DWIDTH 14 0
BBX 12 10 1 0
BITMAP
61E0
9210
9400
6400
0400
0400
0400
0400
0210
01F0
ENDCHAR
STARTCHAR 2105
ENCODING 8453
SWIDTH 1056 0
DWIDTH 14 0
BBX 11 10 2 0
BITMAP
7080
8080
8100
8200
E400
04C0
0920
1120
2220
61C0
ENDCHAR
STARTCHAR 2109
ENCODING 8457
SWIDTH 1056 0
DWIDTH 14 0
BBX 11 10 2 0
BITMAP
E7E0
A400
A400
4400
0400
07C0
0400
0400
0400
0400
ENDCHAR
STARTCHAR 210A
ENCODING 8458
SWIDTH 1056 0
DWIDTH 14 0
BBX 7 10 3 -3
BITMAP
1E
22
42
42
42
4C
34
44
84
F8
ENDCHAR
STARTCHAR 210F
ENCODING 8463
SWIDTH 1056 0
DWIDTH 14 0
BBX 6 10 4 0
BITMAP
20
F8
40
5C
64
44
84
84
84
88
ENDCHAR
STARTCHAR 2113
ENCODING 8467
SWIDTH 452 0
DWIDTH 6 0
BBX 5 11 0 0
BITMAP
10
28
48
48
48
50
50
20
C0
20
38
ENDCHAR
STARTCHAR 2116
ENCODING 8470
SWIDTH 981 0
DWIDTH 13 0
BBX 12 10 1 0
BITMAP
0200
44E0
C510
A510
A510
94E0
9400
8CF0
8400
8400
ENDCHAR
STARTCHAR 2121
ENCODING 8481
SWIDTH 1056 0
DWIDTH 14 0
BBX 14 10 0 0
BITMAP
F800
2000
2180
2220
2220
2220
23A0
2220
2220
23BC
ENDCHAR
STARTCHAR 2122
ENCODING 8482
SWIDTH 679 0
DWIDTH 9 0
BBX 9 5 0 5
BITMAP
F480
4480
4780
4680
4480
ENDCHAR
STARTCHAR 2126
ENCODING 8486
SWIDTH 1056 0
DWIDTH 14 0
BBX 10 10 2 0
BITMAP
1E00
2180
4080
8040
8040
8040
8040
4080
2080
F3C0
ENDCHAR
STARTCHAR 2127
ENCODING 8487
SWIDTH 1056 0
DWIDTH 14 0
BBX 9 10 3 0
BITMAP
E780
4200
4100
8100
8100
8100
8100
8100
4100
3E00
ENDCHAR
STARTCHAR 212B
ENCODING 8491
SWIDTH 1056 0
DWIDTH 14 0
BBX 8 12 3 0
BITMAP
3C
24
18
18
18
24
24
22
3E
42
41
81
ENDCHAR
STARTCHAR 212E
ENCODING 8494
SWIDTH 981 0
DWIDTH 13 0
BBX 11 10 1 0
BITMAP
1E00
2180
4040
C040
C060
FF80
C000
C000
40C0
3F00
ENDCHAR
STARTCHAR 2135
ENCODING 8501
SWIDTH 1056 0
DWIDTH 14 0
BBX 9 10 3 0
BITMAP
8600
8180
4200
2200
5200
8A00
8400
8200
4100
8080
ENDCHAR
STARTCHAR 213B
ENCODING 8507
SWIDTH 1056 0
DWIDTH 14 0
BBX 13 10 1 0
BITMAP
F288
8648
8650
8630
8920
E920
8F30
8950
88C8
9088
ENDCHAR
STARTCHAR 2160
ENCODING 8544
SWIDTH 1056 0
DWIDTH 14 0
BBX 1 10 7 0
BITMAP
80
80
80
80
80
80
80
80
80
80
ENDCHAR
STARTCHAR 2161
ENCODING 8545
SWIDTH 1056 0
DWIDTH 14 0
BBX 4 10 5 0
BITMAP
90
90
90
90
90
90
90
90
90
90
ENDCHAR
STARTCHAR 2162
ENCODING 8546
SWIDTH 1056 0
DWIDTH 14 0
BBX 8 10 3 0
BITMAP
89
89
89
89
89
89
89
89
89
89
ENDCHAR
STARTCHAR 2163
ENCODING 8547
SWIDTH 1056 0
DWIDTH 14 0
BBX 10 10 3 0
BITMAP
A040
A080
9080
9080
9100
8900
8900
8600
8600
8400
ENDCHAR
STARTCHAR 2164
ENCODING 8548
SWIDTH 1056 0
DWIDTH 14 0
BBX 8 10 3 0
BITMAP
81
41
42
42
22
24
24
14
18
08
ENDCHAR
STARTCHAR 2165
ENCODING 8549
SWIDTH 1056 0
DWIDTH 14 0
BBX 9 10 2 0
BITMAP
8280
8280
8480
8480
4480
4880
2880
2880
3080
1080
ENDCHAR
STARTCHAR 2166
ENCODING 8550
SWIDTH 1056 0
DWIDTH 14 0
BBX 13 10 0 0
BITMAP
8248
8248
4248
4448
4448
4448
2848
2848
2848
1048
ENDCHAR
STARTCHAR 2167
ENCODING 8551
SWIDTH 1056 0
DWIDTH 14 0
BBX 13 10 0 0
BITMAP
8948
8948
8948
8948
5148
5148
5148
5148
2148
2148
ENDCHAR
STARTCHAR 2168
ENCODING 8552
SWIDTH 1056 0
DWIDTH 14 0
BBX 9 10 3 0
BITMAP
9080
9080
8900
8A00
8600
8600
8A00
8900
9080
9080
ENDCHAR
STARTCHAR 2169
ENCODING 8553
SWIDTH 1056 0
DWIDTH 14 0
BBX 7 10 4 0
BITMAP
84
84
48
28
30
30
28
48
84
86
ENDCHAR
STARTCHAR 216A
ENCODING 8554
SWIDTH 1056 0
DWIDTH 14 0
BBX 9 10 2 0
BITMAP
8280
4480
4880
2880
1080
1080
2880
4880
4480
8280
ENDCHAR
STARTCHAR 216B
ENCODING 8555
SWIDTH 1056 0
DWIDTH 14 0
BBX 13 10 0 0
BITMAP
8248
4448
4448
2848
1048
1048
2848
4448
4448
8248
ENDCHAR
STARTCHAR 2170
ENCODING 8560
SWIDTH 1056 0
DWIDTH 14 0
BBX 1 10 7 0
BITMAP
80
00
00
80
80
80
80
80
80
80
ENDCHAR
STARTCHAR 2171
ENCODING 8561
SWIDTH 1056 0
DWIDTH 14 0
BBX 4 10 5 0
BITMAP
90
00
00
90
90
90
90
90
90
90
ENDCHAR
STARTCHAR 2172
ENCODING 8562
SWIDTH 1056 0
DWIDTH 14 0
BBX 8 10 3 0
BITMAP
89
00
00
89
89
89
89
89
89
89
ENDCHAR
STARTCHAR 2173
ENCODING 8563
SWIDTH 1056 0
DWIDTH 14 0
BBX 9 10 3 0
BITMAP
8000
0000
0000
9080
9080
8900
8900
8A00
8600
8400
ENDCHAR
STARTCHAR 2174
ENCODING 8564
SWIDTH 1056 0
DWIDTH 14 0
BBX 6 7 4 0
BITMAP
84
84
48
48
28
30
10
ENDCHAR
STARTCHAR 2175
ENCODING 8565
SWIDTH 1056 0
DWIDTH 14 0
BBX 9 10 2 0
BITMAP
0080
0000
0000
8280
4480
4480
4880
2880
2880
1080
ENDCHAR
STARTCHAR 2176
ENCODING 8566
SWIDTH 1056 0
DWIDTH 14 0
BBX 13 10 0 0
BITMAP
0088
0000
0000
8288
4488
4488
4888
2888
2888
1088
ENDCHAR
STARTCHAR 2177
ENCODING 8567
SWIDTH 1056 0
DWIDTH 14 0
BBX 13 10 0 0
BITMAP
0248
0000
0000
8A48
8A48
9248
5248
5248
6248
2248
ENDCHAR
STARTCHAR 2178
ENCODING 8568
SWIDTH 1056 0
DWIDTH 14 0
BBX 9 10 3 0
BITMAP
C000
0000
0000
5180
4900
4600
4400
4600
4900
5080
ENDCHAR
STARTCHAR 2179
ENCODING 8569
SWIDTH 1056 0
DWIDTH 14 0
BBX 6 7 4 0
BITMAP
C4
48
30
10
30
48
84
ENDCHAR
STARTCHAR 217A
ENCODING 8570
SWIDTH 1056 0
DWIDTH 14 0
BBX 9 10 2 0
BITMAP
0080
0000
0000
4480
2880
2880
1080
2880
4880
C480
ENDCHAR
STARTCHAR 217B
ENCODING 8571
SWIDTH 1056 0
DWIDTH 14 0
BBX 13 10 0 0
BITMAP
0088
0000
0000
4488
2888
2888
1088
2888
4888
C488
ENDCHAR
STARTCHAR 2190
ENCODING 8592
SWIDTH 1056 0
DWIDTH 14 0
BBX 14 6 0 2
BITMAP
1800
2000
FFFC
4000
3000
0800
ENDCHAR
STARTCHAR 2191
ENCODING 8593
SWIDTH 1056 0
DWIDTH 14 0
BBX 6 12 4 -1
BITMAP
10
28
54
94
10
10
10
10
10
10
10
10
ENDCHAR
STARTCHAR 2192
ENCODING 8594
SWIDTH 1056 0
DWIDTH 14 0
BBX 13 6 1 2
BITMAP
0040
0020
FFF8
0010
0020
0040
ENDCHAR
STARTCHAR 2193
ENCODING 8595
SWIDTH 1056 0
DWIDTH 14 0
BBX 6 12 4 -1
BITMAP
10
10
10
10
10
10
10
10
94
54
28
10
ENDCHAR
STARTCHAR 2194
ENCODING 8596
SWIDTH 1056 0
DWIDTH 14 0
BBX 14 6 0 2
BITMAP
0820
3010
4008
FFFC
2010
1820
ENDCHAR
STARTCHAR 2195
ENCODING 8597
SWIDTH 1056 0
DWIDTH 14 0
BBX 6 12 4 -1
BITMAP
10
28
54
94
10
10
10
10
94
54
28
10
ENDCHAR
STARTCHAR 2196
ENCODING 8598
SWIDTH 1056 0
DWIDTH 14 0
BBX 10 8 2 1
BITMAP
F800
A000
5000
8800
0400
0200
0100
00C0
ENDCHAR
STARTCHAR 2197
ENCODING 8599
SWIDTH 1056 0
DWIDTH 14 0
BBX 10 8 2 1
BITMAP
07C0
0140
0240
0440
0800
1000
2000
C000
ENDCHAR
STARTCHAR 2198
ENCODING 8600
SWIDTH 1056 0
DWIDTH 14 0
BBX 10 9 2 1
BITMAP
8000
4000
2000
1000
0800
0440
0240
0140
07C0
ENDCHAR
STARTCHAR 2199
ENCODING 8601
SWIDTH 1056 0
DWIDTH 14 0
BBX 10 9 2 1
BITMAP
0040
0080
0100
0200
0400
4800
5000
A000
F800
ENDCHAR
STARTCHAR 21B8
ENCODING 8632
SWIDTH 1056 0
DWIDTH 14 0
BBX 12 10 1 1
BITMAP
FFF0
4000
3C00
5000
2800
4400
0200
0100
0080
0060
ENDCHAR
STARTCHAR 21B9
ENCODING 8633
SWIDTH 1056 0
DWIDTH 14 0
BBX 13 12 1 -1
BITMAP
9000
A000
C000
FFF8
A000
9000
0088
0068
FFD8
0028
0048
0088
ENDCHAR
STARTCHAR 21C4
ENCODING 8644
SWIDTH 1056 0
DWIDTH 14 0
BBX 14 12 0 -1
BITMAP
0020
0010
0008
7FFC
0010
0020
1800
2000
DFFC
6000
1000
0800
ENDCHAR
STARTCHAR 21C5
ENCODING 8645
SWIDTH 1056 0
DWIDTH 14 0
BBX 13 12 1 -1
BITMAP
3040
6840
A440
A440
2040
2040
2040
2040
2248
2150
20E0
2040
ENDCHAR
STARTCHAR 21C6
ENCODING 8646
SWIDTH 1056 0
DWIDTH 14 0
BBX 14 12 0 -1
BITMAP
0800
3000
4000
FFFC
2000
1800
0020
0010
7FFC
0008
0010
0020
ENDCHAR
STARTCHAR 21CB
ENCODING 8651
SWIDTH 1056 0
DWIDTH 14 0
BBX 14 10 0 0
BITMAP
0800
3000
FFFC
0000
0000
0000
0000
7FFC
0010
0060
ENDCHAR
STARTCHAR 21CC
ENCODING 8652
SWIDTH 1056 0
DWIDTH 14 0
BBX 14 10 0 0
BITMAP
0060
0010
7FFC
0000
0000
0000
0000
FFFC
2000
1800
ENDCHAR
STARTCHAR 21D0
ENCODING 8656
SWIDTH 1056 0
DWIDTH 14 0
BBX 14 8 0 1
BITMAP
0800
1000
2FFC
4000
C000
2FFC
1000
0800
ENDCHAR
STARTCHAR 21D2
ENCODING 8658
SWIDTH 1056 0
DWIDTH 14 0
BBX 13 8 1 1
BITMAP
0080
0040
FFA0
0010
0018
FFA0
0040
0080
ENDCHAR
STARTCHAR 21D4
ENCODING 8660
SWIDTH 1056 0
DWIDTH 14 0
BBX 14 8 0 1
BITMAP
0840
1020
2FD0
4008
C00C
2FD0
1020
0840
ENDCHAR
STARTCHAR 21E6
ENCODING 8678
SWIDTH 1056 0
DWIDTH 14 0
BBX 14 9 0 1
BITMAP
0200
0C00
17F8
2004
C004
4004
23FC
1C00
0400
ENDCHAR
STARTCHAR 21E7
ENCODING 8679
SWIDTH 1056 0
DWIDTH 14 0
BBX 10 12 2 -1
BITMAP
0C00
1200
2100
4080
C0C0
2100
2100
2100
2100
2100
2100
3F00
ENDCHAR
STARTCHAR 21E8
ENCODING 8680
SWIDTH 1056 0
DWIDTH 14 0
BBX 13 9 1 1
BITMAP
0100
0180
7F40
8020
8018
8010
FE20
0140
0180
ENDCHAR
STARTCHAR 21E9
ENCODING 8681
SWIDTH 1056 0
DWIDTH 14 0
BBX 10 12 2 -1
BITMAP
3F00
2100
2100
2100
2100
2100
2100
C0C0
4080
2100
1200
0C00
ENDCHAR
STARTCHAR 21F5
ENCODING 8693
SWIDTH 1056 0
DWIDTH 14 0
BBX 13 12 1 -1
BITMAP
2040
20E0
2150
2248
2040
2040
2040
2040
A440
6840
3040
2040
ENDCHAR
STARTCHAR 2200
ENCODING 8704
SWIDTH 1056 0
DWIDTH 14 0
BBX 11 10 2 0
BITMAP
8020
8040
4040
4080
3F00
2100
1200
1200
0C00
0400
ENDCHAR
STARTCHAR 2202
ENCODING 8706
SWIDTH 1056 0
DWIDTH 14 0
BBX 8 10 3 0
BITMAP
1E
21
01
01
3D
43
82
82
84
78
ENDCHAR
STARTCHAR 2203
ENCODING 8707
SWIDTH 1056 0
DWIDTH 14 0
BBX 8 10 3 0
BITMAP
FF
01
01
01
01
FF
01
01
01
FF
ENDCHAR
STARTCHAR 2205
ENCODING 8709
SWIDTH 1056 0
DWIDTH 14 0
BBX 10 10 2 0
BITMAP
1F00
60C0
8140
8240
8440
8840
9040
A040
6080
1F00
ENDCHAR
STARTCHAR 2206
ENCODING 8710
SWIDTH 1056 0
DWIDTH 14 0
BBX 10 10 2 0
BITMAP
0400
0C00
0A00
1200
1100
2100
2080
4080
4040
FFC0
ENDCHAR
STARTCHAR 2207
ENCODING 8711
SWIDTH 1056 0
DWIDTH 14 0
BBX 10 9 2 0
BITMAP
FFC0
4080
4080
2100
2100
1200
1200
0C00
0400
ENDCHAR
STARTCHAR 2208
ENCODING 8712
SWIDTH 1056 0
DWIDTH 14 0
BBX 10 8 2 1
BITMAP
3FC0
4000
8000
8000
FFC0
8000
8000
7FC0
ENDCHAR
STARTCHAR 2209
ENCODING 8713
SWIDTH 1056 0
DWIDTH 14 0
BBX 10 11 2 -1
BITMAP
0400
3FC0
4400
8400
8400
FFC0
8400
8400
6400
1FC0
0400
ENDCHAR
STARTCHAR 220A
ENCODING 8714
SWIDTH 1056 0
DWIDTH 14 0
BBX 7 7 4 0
BITMAP
7E
80
80
F8
80
80
7C
ENDCHAR
STARTCHAR 220B
ENCODING 8715
SWIDTH 1056 0
DWIDTH 14 0
BBX 10 8 2 1
BITMAP
FF80
0040
0040
0040
FFC0
0040
0040
FF80
ENDCHAR
STARTCHAR 220F
ENCODING 8719
SWIDTH 1056 0
DWIDTH 14 0
BBX 8 11 3 -2
BITMAP
FF
81
81
81
81
81
81
81
81
81
81
ENDCHAR
STARTCHAR 2211
ENCODING 8721
SWIDTH 1056 0
DWIDTH 14 0
BBX 8 10 3 0
BITMAP
FF
40
20
10
08
08
10
20
40
FF
ENDCHAR
STARTCHAR 2212
ENCODING 8722
SWIDTH 528 0
DWIDTH 7 0
BBX 6 1 1 4
BITMAP
FC
ENDCHAR
STARTCHAR 2213
ENCODING 8723
SWIDTH 1056 0
DWIDTH 14 0
BBX 10 10 2 0
BITMAP
FFC0
0000
0400
0400
0400
FFC0
0400
0400
0400
0400
ENDCHAR
STARTCHAR 2215
ENCODING 8725
SWIDTH 1056 0
DWIDTH 14 0
BBX 13 12 1 -1
BITMAP
0018
0020
0040
0080
0100
0200
0400
0800
1000
2000
4000
8000
ENDCHAR
STARTCHAR 221A
ENCODING 8730
SWIDTH 1056 0
DWIDTH 14 0
BBX 13 13 1 -1
BITMAP
01F8
0200
0200
0200
0400
0400
0400
0800
4800
D000
D000
2000
2000
ENDCHAR
STARTCHAR 221D
ENCODING 8733
SWIDTH 1056 0
DWIDTH 14 0
BBX 11 5 1 2
BITMAP
F9E0
8600
8600
8900
70E0
ENDCHAR
STARTCHAR 221E
ENCODING 8734
SWIDTH 1056 0
DWIDTH 14 0
BBX 13 5 1 2
BITMAP
F9F0
8608
8608
8910
70E0
ENDCHAR
STARTCHAR 221F
ENCODING 8735
SWIDTH 1056 0
DWIDTH 14 0
BBX 10 10 2 0
BITMAP
8000
8000
8000
8000
8000
8000
8000
8000
8000
FFC0
ENDCHAR
STARTCHAR 2220
ENCODING 8736
SWIDTH 1056 0
DWIDTH 14 0
BBX 10 9 2 0
BITMAP
0080
0100
0200
0400
0800
1000
2000
4000
FFC0
ENDCHAR
STARTCHAR 2223
ENCODING 8739
SWIDTH 1056 0
DWIDTH 14 0
BBX 1 10 7 0
BITMAP
80
80
80
80
80
80
80
80
80
80
ENDCHAR
STARTCHAR 2225
ENCODING 8741
SWIDTH 1056 0
DWIDTH 14 0
BBX 8 10 3 0
BITMAP
08
09
11
12
22
24
44
48
90
10
ENDCHAR
STARTCHAR 2226
ENCODING 8742
SWIDTH 1056 0
DWIDTH 14 0
BBX 8 10 3 0
BITMAP
08
09
51
22
32
2C
44
4A
90
10
ENDCHAR
STARTCHAR 2227
ENCODING 8743
SWIDTH 1056 0
DWIDTH 14 0
BBX 11 10 2 0
BITMAP
0400
0C00
1200
1200
2100
2100
4080
4040
8040
8020
ENDCHAR
STARTCHAR 2228
ENCODING 8744
SWIDTH 1056 0
DWIDTH 14 0
BBX 11 10 2 0
BITMAP
8020
8040
4040
4080
2080
2100
1200
1200
0C00
0400
ENDCHAR
STARTCHAR 2229
ENCODING 8745
SWIDTH 1056 0
DWIDTH 14 0
BBX 9 10 3 0
BITMAP
3C00
4300
8100
8080
8080
8080
8080
8080
8080
8080
ENDCHAR
STARTCHAR 222A
ENCODING 8746
SWIDTH 1056 0
DWIDTH 14 0
BBX 9 10 3 0
BITMAP
8080
8080
8080
8080
8080
8080
8080
8100
C100
3E00
ENDCHAR
STARTCHAR 222B
ENCODING 8747
SWIDTH 1056 0
DWIDTH 14 0
BBX 5 12 5 -1
BITMAP
38
20
20
20
20
20
20
20
20
20
40
C0
ENDCHAR
STARTCHAR 222C
ENCODING 8748
SWIDTH 1056 0
DWIDTH 14 0
BBX 10 12 2 -1
BITMAP
18C0
2100
2100
2100
2100
2100
2100
2100
2100
2100
2100
C600
ENDCHAR
STARTCHAR 222D
ENCODING 8749
SWIDTH 1056 0
DWIDTH 14 0
BBX 12 12 1 -1
BITMAP
1BB0
2220
2240
2240
2240
2240
2240
2240
2240
2240
2440
CDC0
ENDCHAR
STARTCHAR 222E
ENCODING 8750
SWIDTH 1056 0
DWIDTH 14 0
BBX 5 12 5 -1
BITMAP
38
20
20
20
F0
A8
B0
50
20
20
40
C0
ENDCHAR
STARTCHAR 2234
ENCODING 8756
SWIDTH 1056 0
DWIDTH 14 0
BBX 10 8 2 1
BITMAP
0C00
0400
0000
0000
0000
0000
0000
C0C0
ENDCHAR
STARTCHAR 2235
ENCODING 8757
SWIDTH 1056 0
DWIDTH 14 0
BBX 10 8 2 1
BITMAP
C0C0
4040
0000
0000
0000
0000
0000
0C00
ENDCHAR
STARTCHAR 2236
ENCODING 8758
SWIDTH 1056 0
DWIDTH 14 0
BBX 2 8 6 1
BITMAP
C0
40
00
00
00
00
00
C0
ENDCHAR
STARTCHAR 2237
ENCODING 8759
SWIDTH 1056 0
DWIDTH 14 0
BBX 10 8 2 1
BITMAP
C0C0
4040
0000
0000
0000
0000
0000
C0C0
ENDCHAR
STARTCHAR 223D
ENCODING 8765
SWIDTH 1056 0
DWIDTH 14 0
BBX 13 5 1 2
BITMAP
F1F0
8208
8408
8810
7060
ENDCHAR
STARTCHAR 2243
ENCODING 8771
SWIDTH 1056 0
DWIDTH 14 0
BBX 11 5 2 3
BITMAP
3020
CC40
8380
0000
FFC0
ENDCHAR
STARTCHAR 2245
ENCODING 8773
SWIDTH 1056 0
DWIDTH 14 0
BBX 11 6 2 2
BITMAP
3020
CC40
8380
0000
FFC0
FFC0
ENDCHAR
STARTCHAR 2248
ENCODING 8776
SWIDTH 1056 0
DWIDTH 14 0
BBX 11 5 2 3
BITMAP
3020
CC40
8380
7020
8FC0
ENDCHAR
STARTCHAR 224C
ENCODING 8780
SWIDTH 1056 0
DWIDTH 14 0
BBX 13 9 1 1
BITMAP
70E0
8110
8208
8408
8810
7060
0000
7FE0
7FE0
ENDCHAR
STARTCHAR 2260
ENCODING 8800
SWIDTH 1056 0
DWIDTH 14 0
BBX 10 10 2 0
BITMAP
0200
0200
0200
FFC0
0400
0800
FFC0
0800
1000
1000
ENDCHAR
STARTCHAR 2261
ENCODING 8801
SWIDTH 1056 0
DWIDTH 14 0
BBX 10 6 2 2
BITMAP
FFC0
0000
0000
FFC0
0000
FFC0
ENDCHAR
STARTCHAR 2262
ENCODING 8802
SWIDTH 1056 0
DWIDTH 14 0
BBX 10 10 2 0
BITMAP
0200
0200
FFC0
0400
0400
FBC0
0800
FFC0
1000
1000
ENDCHAR
STARTCHAR 2264
ENCODING 8804
SWIDTH 1056 0
DWIDTH 14 0
BBX 10 9 2 1
BITMAP
01C0
0600
3800
C000
7000
0C00
0380
0040
FFC0
ENDCHAR
STARTCHAR 2265
ENCODING 8805
SWIDTH 1056 0
DWIDTH 14 0
BBX 11 9 2 1
BITMAP
E000
1C00
0300
00E0
0180
0E00
7000
8000
FFC0
ENDCHAR
STARTCHAR 2266
ENCODING 8806
SWIDTH 1056 0
DWIDTH 14 0
BBX 11 12 2 -1
BITMAP
00E0
0700
3800
C000
6000
1C00
0380
0060
0000
FFC0
0000
FFC0
ENDCHAR
STARTCHAR 2267
ENCODING 8807
SWIDTH 1056 0
DWIDTH 14 0
BBX 11 12 2 -1
BITMAP
C000
3800
0700
00E0
0180
0E00
7000
8000
0000
FFC0
0000
FFC0
ENDCHAR
STARTCHAR 226A
ENCODING 8810
SWIDTH 1056 0
DWIDTH 14 0
BBX 12 10 1 0
BITMAP
0110
0660
0880
3300
4400
CC00
2200
1980
0640
0130
ENDCHAR
STARTCHAR 226B
ENCODING 8811
SWIDTH 1056 0
DWIDTH 14 0
BBX 12 10 1 0
BITMAP
C800
2600
1980
0440
0220
0330
0440
1980
2200
CC00
ENDCHAR
STARTCHAR 226E
ENCODING 8814
SWIDTH 1056 0
DWIDTH 14 0
BBX 12 11 1 -1
BITMAP
0230
02C0
0300
1C00
2400
E400
1800
0F00
08C0
0830
0800
ENDCHAR
STARTCHAR 226F
ENCODING 8815
SWIDTH 1056 0
DWIDTH 14 0
BBX 11 11 2 -1
BITMAP
8200
6200
1E00
0300
04C0
04E0
0700
0800
7800
8800
0800
ENDCHAR
STARTCHAR 2272
ENCODING 8818
SWIDTH 1056 0
DWIDTH 14 0
BBX 11 12 2 -1
BITMAP
0020
01C0
0E00
3000
C000
3000
0E00
01C0
0020
3020
CC40
8380
ENDCHAR
STARTCHAR 2273
ENCODING 8819
SWIDTH 1056 0
DWIDTH 14 0
BBX 11 12 2 -1
BITMAP
8000
6000
1C00
0380
0060
0380
1C00
6000
8000
3020
CC40
8380
ENDCHAR
STARTCHAR 2276
ENCODING 8822
SWIDTH 1056 0
DWIDTH 14 0
BBX 12 12 1 -1
BITMAP
0070
0380
1C00
E000
1C00
6380
1C70
0380
0070
01C0
1E00
6000
ENDCHAR
STARTCHAR 2277
ENCODING 8823
SWIDTH 1056 0
DWIDTH 14 0
BBX 12 12 1 -1
BITMAP
7000
0E00
0180
0070
0380
1C60
6380
1C00
E000
1C00
0380
0060
ENDCHAR
STARTCHAR 2282
ENCODING 8834
SWIDTH 1056 0
DWIDTH 14 0
BBX 10 8 2 1
BITMAP
3FC0
4000
8000
8000
8000
8000
8000
7FC0
ENDCHAR
STARTCHAR 2283
ENCODING 8835
SWIDTH 1056 0
DWIDTH 14 0
BBX 10 8 2 1
BITMAP
FF80
0040
0040
0040
0040
0040
0040
FF80
ENDCHAR
STARTCHAR 2284
ENCODING 8836
SWIDTH 1056 0
DWIDTH 14 0
BBX 10 10 2 0
BITMAP
0080
3FC0
4100
8100
8200
8200
8400
8800
6800
17C0
ENDCHAR
STARTCHAR 2285
ENCODING 8837
SWIDTH 1056 0
DWIDTH 14 0
BBX 10 10 2 0
BITMAP
0200
FF80
0440
0840
0840
1040
1040
2040
2180
DE00
ENDCHAR
STARTCHAR 2286
ENCODING 8838
SWIDTH 1056 0
DWIDTH 14 0
BBX 10 10 2 0
BITMAP
7FC0
8000
8000
8000
8000
4000
3FC0
0000
0000
FFC0
ENDCHAR
STARTCHAR 2287
ENCODING 8839
SWIDTH 1056 0
DWIDTH 14 0
BBX 10 10 2 0
BITMAP
FF80
0040
0040
0040
0040
0040
FF80
0000
0000
FFC0
ENDCHAR
STARTCHAR 228A
ENCODING 8842
SWIDTH 1056 0
DWIDTH 14 0
BBX 10 11 2 -1
BITMAP
7FC0
8000
8000
8000
8000
4000
3FC0
0000
0400
FFC0
0800
ENDCHAR
STARTCHAR 228B
ENCODING 8843
SWIDTH 1056 0
DWIDTH 14 0
BBX 10 11 2 -1
BITMAP
FF80
0040
0040
0040
0040
0040
FF80
0000
0400
FFC0
0800
ENDCHAR
STARTCHAR 2295
ENCODING 8853
SWIDTH 1056 0
DWIDTH 14 0
BBX 10 10 2 0
BITMAP
1F00
6080
8440
8440
FFC0
8440
8440
8440
6080
1F00
ENDCHAR
STARTCHAR 2296
ENCODING 8854
SWIDTH 1056 0
DWIDTH 14 0
BBX 10 10 2 0
BITMAP
1F00
6080
8040
8040
FFC0
8040
8040
8040
6080
1F00
ENDCHAR
STARTCHAR 2297
ENCODING 8855
SWIDTH 1056 0
DWIDTH 14 0
BBX 10 10 2 0
BITMAP
1F00
6080
A140
9240
8C40
8C40
9240
A140
6080
1F00
ENDCHAR
STARTCHAR 2298
ENCODING 8856
SWIDTH 1056 0
DWIDTH 14 0
BBX 10 10 2 0
BITMAP
1F00
6080
8140
8240
8440
8840
9040
A040
6080
1F00
ENDCHAR
STARTCHAR 2299
ENCODING 8857
SWIDTH 1056 0
DWIDTH 14 0
BBX 10 10 2 0
BITMAP
1F00
6080
8040
8040
8C40
8440
8040
8040
6080
1F00
ENDCHAR
STARTCHAR 22A0
ENCODING 8864
SWIDTH 1056 0
DWIDTH 14 0
BBX 12 10 1 0
BITMAP
FFF0
8010
90D0
8910
8610
8610
8910
90D0
8010
FFF0
ENDCHAR
STARTCHAR 22A5
ENCODING 8869
SWIDTH 1056 0
DWIDTH 14 0
BBX 11 9 2 1
BITMAP
0400
0400
0400
0400
0400
0400
0400
0400
FFE0
ENDCHAR
STARTCHAR 22BF
ENCODING 8895
SWIDTH 1056 0
DWIDTH 14 0
BBX 10 10 2 0
BITMAP
0040
00C0
0140
0240
0440
0840
1040
2040
4040
FFC0
ENDCHAR
STARTCHAR 22DA
ENCODING 8922
SWIDTH 1056 0
DWIDTH 14 0
BBX 12 12 1 -1
BITMAP
00F0
0F00
F000
1E00
01D0
7FE0
8000
7800
0700
00F0
0F00
F000
ENDCHAR
STARTCHAR 22DB
ENCODING 8923
SWIDTH 1056 0
DWIDTH 14 0
BBX 11 12 2 -1
BITMAP
E000
1E00
01E0
0700
7800
FFC0
0020
03C0
1C00
E000
1E00
01E0
ENDCHAR
STARTCHAR 22EF
ENCODING 8943
SWIDTH 1056 0
DWIDTH 14 0
BBX 11 2 2 4
BITMAP
8C60
8440
ENDCHAR
STARTCHAR 2305
ENCODING 8965
SWIDTH 1056 0
DWIDTH 14 0
BBX 8 8 3 1
BITMAP
FF
00
18
14
24
42
42
81
ENDCHAR
STARTCHAR 2306
ENCODING 8966
SWIDTH 1056 0
DWIDTH 14 0
BBX 8 9 3 0
BITMAP
FF
00
FF
18
24
22
42
81
81
ENDCHAR
STARTCHAR 2307
ENCODING 8967
SWIDTH 1056 0
DWIDTH 14 0
BBX 4 14 5 -2
BITMAP
80
40
30
10
10
60
80
80
60
10
10
30
40
80
ENDCHAR
STARTCHAR 2312
ENCODING 8978
SWIDTH 1056 0
DWIDTH 14 0
BBX 14 3 0 8
BITMAP
1FE0
6018
8004
ENDCHAR
STARTCHAR 2318
ENCODING 8984
SWIDTH 1056 0
DWIDTH 14 0
BBX 12 12 1 -1
BITMAP
6070
9090
9090
FFF0
1080
1080
1080
1080
FFF0
9090
9090
6060
ENDCHAR
STARTCHAR 2329
ENCODING 9001
SWIDTH 1056 0
DWIDTH 14 0
BBX 5 12 9 -1
BITMAP
18
10
20
40
40
80
80
40
40
20
10
08
ENDCHAR
STARTCHAR 232A
ENCODING 9002
SWIDTH 1056 0
DWIDTH 14 0
BBX 4 12 1 -1
BITMAP
80
80
40
20
10
10
10
10
20
40
80
80
ENDCHAR
STARTCHAR 23B0
ENCODING 9136
SWIDTH 1056 0
DWIDTH 14 0
BBX 3 13 6 -2
BITMAP
60
40
40
40
40
40
40
40
40
40
40
40
80
ENDCHAR
STARTCHAR 23B1
ENCODING 9137
SWIDTH 1056 0
DWIDTH 14 0
BBX 3 13 6 -1
BITMAP
80
40
40
40
40
40
40
40
40
40
40
40
60
ENDCHAR
STARTCHAR 23BE
ENCODING 9150
SWIDTH 1056 0
DWIDTH 14 0
BBX 7 14 7 -2
BITMAP
FE
80
80
80
80
80
80
80
80
80
80
80
80
80
ENDCHAR
STARTCHAR 23BF
ENCODING 9151
SWIDTH 1056 0
DWIDTH 14 0
BBX 7 14 7 -2
BITMAP
80
80
80
80
80
80
80
80
80
80
80
80
80
FE
ENDCHAR
STARTCHAR 23C0
ENCODING 9152
SWIDTH 1056 0
DWIDTH 14 0
BBX 9 14 3 -2
BITMAP
0800
0800
0800
7E00
8900
8880
8880
8880
8880
8900
7E00
0800
0800
0800
ENDCHAR
STARTCHAR 23C1
ENCODING 9153
SWIDTH 1056 0
DWIDTH 14 0
BBX 14 14 0 -2
BITMAP
FFFC
0100
0100
0FC0
1120
1110
2110
2110
1110
1120
0FC0
0100
0100
0100
ENDCHAR
STARTCHAR 23C2
ENCODING 9154
SWIDTH 1056 0
DWIDTH 14 0
BBX 14 14 0 -2
BITMAP
0100
0100
0100
0FC0
1120
1110
2110
2110
1110
1120
0FC0
0100
0100
FFFC
ENDCHAR
STARTCHAR 23C3
ENCODING 9155
SWIDTH 1056 0
DWIDTH 14 0
BBX 11 14 2 -2
BITMAP
0400
0400
0400
0C00
0A00
1600
2500
2500
4480
4440
FFC0
0420
0400
0400
ENDCHAR
STARTCHAR 23C4
ENCODING 9156
SWIDTH 1056 0
DWIDTH 14 0
BBX 14 14 0 -2
BITMAP
FFFC
0100
0100
0300
0280
0580
0940
0940
1120
1110
3FF0
0108
0100
0100
ENDCHAR
STARTCHAR 23C5
ENCODING 9157
SWIDTH 1056 0
DWIDTH 14 0
BBX 14 14 0 -2
BITMAP
0100
0100
0100
0300
0280
0580
0940
0940
1120
1110
3FF0
0108
0100
FFFC
ENDCHAR
STARTCHAR 23C6
ENCODING 9158
SWIDTH 1056 0
DWIDTH 14 0
BBX 9 14 3 -2
BITMAP
0800
0800
0800
0800
0800
6800
9080
8900
0E00
0800
0800
0800
0800
0800
ENDCHAR
STARTCHAR 23C7
ENCODING 9159
SWIDTH 1056 0
DWIDTH 14 0
BBX 14 14 0 -2
BITMAP
FFFC
0100
0100
0100
0100
0D00
1210
2120
01C0
0100
0100
0100
0100
0100
ENDCHAR
STARTCHAR 23C8
ENCODING 9160
SWIDTH 1056 0
DWIDTH 14 0
BBX 14 14 0 -2
BITMAP
0100
0100
0100
0100
0100
0D00
1210
2120
01C0
0100
0100
0100
0100
FFFC
ENDCHAR
STARTCHAR 23C9
ENCODING 9161
SWIDTH 1056 0
DWIDTH 14 0
BBX 14 14 0 -2
BITMAP
FFFC
0100
0100
0100
0100
0100
0100
0100
0100
0100
0100
0100
0100
0100
ENDCHAR
STARTCHAR 23CA
ENCODING 9162
SWIDTH 1056 0
DWIDTH 14 0
BBX 14 14 0 -2
BITMAP
0100
0100
0100
0100
0100
0100
0100
0100
0100
0100
0100
0100
0100
FFFC
ENDCHAR
STARTCHAR 23CB
ENCODING 9163
SWIDTH 1056 0
DWIDTH 14 0
BBX 7 14 0 -2
BITMAP
FE
02
02
02
02
02
02
02
02
02
02
02
02
02
ENDCHAR
STARTCHAR 23CC
ENCODING 9164
SWIDTH 1056 0
DWIDTH 14 0
BBX 7 14 0 -2
BITMAP
02
02
02
02
02
02
02
02
02
02
02
02
02
FE
ENDCHAR
STARTCHAR 23CE
ENCODING 9166
SWIDTH 1056 0
DWIDTH 14 0
BBX 13 12 0 -1
BITMAP
0078
0048
0048
0448
0C48
14C8
2308
C008
4030
37C0
0C00
0400
ENDCHAR
STARTCHAR 23DA
ENCODING 9178
SWIDTH 1056 0
DWIDTH 14 0
BBX 9 11 3 0
BITMAP
0800
0800
0800
0800
0800
0800
0800
FF80
7E00
0000
1C00
ENDCHAR
STARTCHAR 23DB
ENCODING 9179
SWIDTH 1056 0
DWIDTH 14 0
BBX 13 4 1 3
BITMAP
3FC0
FFF8
2040
3FC0
ENDCHAR
STARTCHAR 2423
ENCODING 9251
SWIDTH 1056 0
DWIDTH 14 0
BBX 10 2 2 -1
BITMAP
8040
FFC0
ENDCHAR
STARTCHAR 2460
ENCODING 9312
SWIDTH 1056 0
DWIDTH 14 0
BBX 13 12 1 -1
BITMAP
1FC0
6020
8210
8610
8208
8208
8208
8208
8210
4010
2060
1F80
ENDCHAR
STARTCHAR 2461
ENCODING 9313
SWIDTH 1056 0
DWIDTH 14 0
BBX 13 12 1 -1
BITMAP
1FC0
6020
8610
8910
8088
8108
8208
8408
8810
4790
2060
1F80
ENDCHAR
STARTCHAR 2462
ENCODING 9314
SWIDTH 1056 0
DWIDTH 14 0
BBX 13 12 1 -1
BITMAP
1FC0
6020
8610
8910
8108
8608
8108
8088
9910
4610
2060
1F80
ENDCHAR
STARTCHAR 2463
ENCODING 9315
SWIDTH 1056 0
DWIDTH 14 0
BBX 13 12 1 -1
BITMAP
1FC0
6020
8110
8210
8508
8908
9108
8F88
8110
4010
2060
1F80
ENDCHAR
STARTCHAR 2464
ENCODING 9316
SWIDTH 1056 0
DWIDTH 14 0
BBX 13 12 1 -1
BITMAP
1FC0
6020
8710
8810
8808
8F08
8088
8088
9910
4610
2060
1F80
ENDCHAR
STARTCHAR 2465
ENCODING 9317
SWIDTH 1056 0
DWIDTH 14 0
BBX 13 12 1 -1
BITMAP
1FC0
6020
8710
8810
9008
9F08
9108
9088
8910
4610
2060
1F80
ENDCHAR
STARTCHAR 2466
ENCODING 9318
SWIDTH 1056 0
DWIDTH 14 0
BBX 13 12 1 -1
BITMAP
1FC0
6020
8F90
8110
8208
8208
8208
8408
8410
4010
2060
1F80
ENDCHAR
STARTCHAR 2467
ENCODING 9319
SWIDTH 1056 0
DWIDTH 14 0
BBX 13 12 1 -1
BITMAP
1FC0
6020
8610
8910
8888
8708
8908
9088
8990
4610
2060
1F80
ENDCHAR
STARTCHAR 2468
ENCODING 9320
SWIDTH 1056 0
DWIDTH 14 0
BBX 13 12 1 -1
BITMAP
1FC0
6020
8610
8910
8888
8988
8688
8088
8910
4610
2060
1F80
ENDCHAR
STARTCHAR 2469
ENCODING 9321
SWIDTH 1056 0
DWIDTH 14 0
BBX 13 12 1 -1
BITMAP
1FC0
6020
9190
B250
9448
9448
9448
9248
9290
4110
2060
1F80
ENDCHAR
STARTCHAR 246A
ENCODING 9322
SWIDTH 1056 0
DWIDTH 14 0
BBX 13 12 1 -1
BITMAP
1FC0
6020
8990
9890
8888
8888
8888
8888
8890
4010
2060
1F80
ENDCHAR
STARTCHAR 246B
ENCODING 9323
SWIDTH 1056 0
DWIDTH 14 0
BBX 13 12 1 -1
BITMAP
1FC0
6020
9390
B450
9048
9088
9088
9108
9210
41D0
2060
1F80
ENDCHAR
STARTCHAR 246C
ENCODING 9324
SWIDTH 1056 0
DWIDTH 14 0
BBX 13 12 1 -1
BITMAP
1FC0
6020
9390
B050
9048
9188
9048
9048
9650
4190
2060
1F80
ENDCHAR
STARTCHAR 246D
ENCODING 9325
SWIDTH 1056 0
DWIDTH 14 0
BBX 13 12 1 -1
BITMAP
1FC0
6020
9090
B090
9188
9288
9488
93C8
9090
4010
2060
1F80
ENDCHAR
STARTCHAR 246E
ENCODING 9326
SWIDTH 1056 0
DWIDTH 14 0
BBX 13 12 1 -1
BITMAP
1FC0
6020
9390
B210
9208
9388
9048
9048
9650
4190
2060
1F80
ENDCHAR
STARTCHAR 246F
ENCODING 9327
SWIDTH 1056 0
DWIDTH 14 0
BBX 13 12 1 -1
BITMAP
1FC0
6020
9190
B250
9208
9388
9448
9248
9250
4190
2060
1F80
ENDCHAR
STARTCHAR 2470
ENCODING 9328
SWIDTH 1056 0
DWIDTH 14 0
BBX 13 12 1 -1
BITMAP
1FC0
6020
93D0
B050
9088
9088
9108
9108
9110
4010
2060
1F80
ENDCHAR
STARTCHAR 2471
ENCODING 9329
SWIDTH 1056 0
DWIDTH 14 0
BBX 13 12 1 -1
BITMAP
1FC0
6020
9190
B250
9248
91C8
9248
9248
9250
4190
2060
1F80
ENDCHAR
STARTCHAR 2472
ENCODING 9330
SWIDTH 1056 0
DWIDTH 14 0
BBX 13 12 1 -1
BITMAP
1FC0
6020
9190
B250
9248
9248
91C8
9048
9290
4110
2060
1F80
ENDCHAR
STARTCHAR 2473
ENCODING 9331
SWIDTH 1056 0
DWIDTH 14 0
BBX 13 12 1 -1
BITMAP
1FC0
6020
9890
A550
8628
8628
8A28
9228
A150
5C90
2060
1F80
ENDCHAR
STARTCHAR 2474
ENCODING 9332
SWIDTH 1056 0
DWIDTH 14 0
BBX 13 12 1 -1
BITMAP
4020
8210
8E10
8208
8208
8208
8208
8208
8208
8210
8F90
4020
ENDCHAR
STARTCHAR 2475
ENCODING 9333
SWIDTH 1056 0
DWIDTH 14 0
BBX 13 12 1 -1
BITMAP
4020
8F10
9090
8088
8088
8088
8108
8208
8408
8810
9FD0
4020
ENDCHAR
STARTCHAR 2476
ENCODING 9334
SWIDTH 1056 0
DWIDTH 14 0
BBX 13 12 1 -1
BITMAP
4020
8F10
9090
8088
8088
8708
8108
8088
8088
9090
8F10
4020
ENDCHAR
STARTCHAR 2477
ENCODING 9335
SWIDTH 1056 0
DWIDTH 14 0
BBX 13 12 1 -1
BITMAP
4020
8110
8310
8308
8508
8908
9108
9F88
8108
8110
8110
4020
ENDCHAR
STARTCHAR 2478
ENCODING 9336
SWIDTH 1056 0
DWIDTH 14 0
BBX 13 12 1 -1
BITMAP
4020
8F90
8810
8808
8808
8F08
8088
8088
8088
9090
8F10
4020
ENDCHAR
STARTCHAR 2479
ENCODING 9337
SWIDTH 1056 0
DWIDTH 14 0
BBX 13 12 1 -1
BITMAP
4020
8710
8890
9008
9008
9708
9888
9088
9088
8890
8710
4020
ENDCHAR
STARTCHAR 247A
ENCODING 9338
SWIDTH 1056 0
DWIDTH 14 0
BBX 13 12 1 -1
BITMAP
4020
9F90
8090
8108
8208
8208
8208
8408
8408
8410
8410
4020
ENDCHAR
STARTCHAR 247B
ENCODING 9339
SWIDTH 1056 0
DWIDTH 14 0
BBX 13 12 1 -1
BITMAP
4020
8710
8890
9088
8888
8508
8B08
9088
9088
9090
8F10
4020
ENDCHAR
STARTCHAR 247C
ENCODING 9340
SWIDTH 1056 0
DWIDTH 14 0
BBX 13 12 1 -1
BITMAP
4020
8E10
9110
9088
9088
9088
8F88
8088
8088
8110
9E10
4020
ENDCHAR
STARTCHAR 247D
ENCODING 9341
SWIDTH 1056 0
DWIDTH 14 0
BBX 13 12 1 -1
BITMAP
4020
9190
B250
9228
9428
9428
9428
9428
9228
9250
9190
4020
ENDCHAR
STARTCHAR 247E
ENCODING 9342
SWIDTH 1056 0
DWIDTH 14 0
BBX 13 12 1 -1
BITMAP
4020
8890
B990
8888
8888
8888
8888
8888
8888
8890
8890
4020
ENDCHAR
STARTCHAR 247F
ENCODING 9343
SWIDTH 1056 0
DWIDTH 14 0
BBX 13 12 1 -1
BITMAP
4020
9190
B250
9028
9048
9048
9048
9088
9108
9210
93F0
4020
ENDCHAR
STARTCHAR 2480
ENCODING 9344
SWIDTH 1056 0
DWIDTH 14 0
BBX 13 12 1 -1
BITMAP
4020
9190
B250
9028
9048
9188
9048
9028
9028
9430
93D0
4020
ENDCHAR
STARTCHAR 2481
ENCODING 9345
SWIDTH 1056 0
DWIDTH 14 0
BBX 13 12 1 -1
BITMAP
4020
9050
B090
9148
9148
9248
9248
97E8
9048
9050
9050
4020
ENDCHAR
STARTCHAR 2482
ENCODING 9346
SWIDTH 1056 0
DWIDTH 14 0
BBX 13 12 1 -1
BITMAP
4020
93D0
B210
9208
9208
93C8
9048
9028
9028
9450
9390
4020
ENDCHAR
STARTCHAR 2483
ENCODING 9347
SWIDTH 1056 0
DWIDTH 14 0
BBX 13 12 1 -1
BITMAP
4020
91D0
B210
9208
9408
9588
9648
9448
9448
9250
9190
4020
ENDCHAR
STARTCHAR 2484
ENCODING 9348
SWIDTH 1056 0
DWIDTH 14 0
BBX 13 12 1 -1
BITMAP
4020
97F0
B050
9048
9088
9088
9088
9108
9108
9110
9110
4020
ENDCHAR
STARTCHAR 2485
ENCODING 9349
SWIDTH 1056 0
DWIDTH 14 0
BBX 13 12 1 -1
BITMAP
4020
9190
B250
9248
9248
9148
92C8
9448
9428
9430
93D0
4020
ENDCHAR
STARTCHAR 2486
ENCODING 9350
SWIDTH 1056 0
DWIDTH 14 0
BBX 13 12 1 -1
BITMAP
4020
9190
B250
9448
9428
9248
93A8
9028
9048
9050
9390
4020
ENDCHAR
STARTCHAR 2487
ENCODING 9351
SWIDTH 1056 0
DWIDTH 14 0
BBX 13 12 1 -1
BITMAP
4020
B8D0
C530
8528
8628
8628
8A28
8A28
9128
A130
BCD0
4020
ENDCHAR
STARTCHAR 2488
ENCODING 9352
SWIDTH 1056 0
DWIDTH 14 0
BBX 9 9 3 0
BITMAP
6000
2000
2000
2000
2000
2000
2000
2000
F880
ENDCHAR
STARTCHAR 2489
ENCODING 9353
SWIDTH 1056 0
DWIDTH 14 0
BBX 9 9 2 0
BITMAP
F800
0400
0400
0400
0800
1000
2000
4000
FC80
ENDCHAR
STARTCHAR 248A
ENCODING 9354
SWIDTH 1056 0
DWIDTH 14 0
BBX 9 9 2 0
BITMAP
7C00
0400
0400
0800
3800
0400
0400
8400
7880
ENDCHAR
STARTCHAR 248B
ENCODING 9355
SWIDTH 1056 0
DWIDTH 14 0
BBX 10 9 2 0
BITMAP
0800
1800
2800
2800
4800
FE00
0800
0800
08C0
ENDCHAR
STARTCHAR 248C
ENCODING 9356
SWIDTH 1056 0
DWIDTH 14 0
BBX 9 9 2 0
BITMAP
7C00
4000
4000
7800
0400
0400
0400
8400
7880
ENDCHAR
STARTCHAR 248D
ENCODING 9357
SWIDTH 1056 0
DWIDTH 14 0
BBX 9 9 3 0
BITMAP
7800
8000
8000
F000
8800
8400
8400
8800
7980
ENDCHAR
STARTCHAR 248E
ENCODING 9358
SWIDTH 1056 0
DWIDTH 14 0
BBX 8 9 3 0
BITMAP
FC
08
10
10
10
20
20
20
21
ENDCHAR
STARTCHAR 248F
ENCODING 9359
SWIDTH 1056 0
DWIDTH 14 0
BBX 10 9 2 0
BITMAP
7C00
4400
4400
2400
5800
8400
8200
8400
7CC0
ENDCHAR
STARTCHAR 2490
ENCODING 9360
SWIDTH 1056 0
DWIDTH 14 0
BBX 10 9 2 0
BITMAP
7800
8400
8400
8400
5C00
2400
0400
0400
F8C0
ENDCHAR
STARTCHAR 2491
ENCODING 9361
SWIDTH 1056 0
DWIDTH 14 0
BBX 14 9 0 0
BITMAP
C3C0
2420
2420
2420
2420
2420
2420
2420
23C4
ENDCHAR
STARTCHAR 2492
ENCODING 9362
SWIDTH 1056 0
DWIDTH 14 0
BBX 12 9 1 0
BITMAP
C700
4100
4100
4100
4100
4100
4100
4100
4110
ENDCHAR
STARTCHAR 2493
ENCODING 9363
SWIDTH 1056 0
DWIDTH 14 0
BBX 13 9 1 0
BITMAP
CF80
4040
4040
4040
4080
4100
4200
4400
4FC8
ENDCHAR
STARTCHAR 2494
ENCODING 9364
SWIDTH 1056 0
DWIDTH 14 0
BBX 13 9 1 0
BITMAP
C7C0
4040
4040
4080
4380
4040
4040
4840
4788
ENDCHAR
STARTCHAR 2495
ENCODING 9365
SWIDTH 1056 0
DWIDTH 14 0
BBX 13 9 1 0
BITMAP
C080
4180
4280
4280
4480
4FC0
4080
4080
4088
ENDCHAR
STARTCHAR 2496
ENCODING 9366
SWIDTH 1056 0
DWIDTH 14 0
BBX 13 9 1 0
BITMAP
C7C0
4400
4400
4780
4040
4040
4040
4840
4788
ENDCHAR
STARTCHAR 2497
ENCODING 9367
SWIDTH 1056 0
DWIDTH 14 0
BBX 13 9 1 0
BITMAP
C3C0
4400
4400
4780
4440
4840
4440
4440
4388
ENDCHAR
STARTCHAR 2498
ENCODING 9368
SWIDTH 1056 0
DWIDTH 14 0
BBX 12 9 1 0
BITMAP
C7C0
4040
4080
4080
4100
4100
4100
4100
4110
ENDCHAR
STARTCHAR 2499
ENCODING 9369
SWIDTH 1056 0
DWIDTH 14 0
BBX 13 9 1 0
BITMAP
C7C0
4420
4440
4240
4380
4440
4820
4420
43C8
ENDCHAR
STARTCHAR 249A
ENCODING 9370
SWIDTH 1056 0
DWIDTH 14 0
BBX 13 9 1 0
BITMAP
C780
4440
4840
4440
46C0
4140
4040
4040
4788
ENDCHAR
STARTCHAR 249B
ENCODING 9371
SWIDTH 1056 0
DWIDTH 14 0
BBX 14 9 0 0
BITMAP
F9E0
0510
0510
0910
0910
1110
2110
4110
7CE4
ENDCHAR
STARTCHAR 249C
ENCODING 9372
SWIDTH 1056 0
DWIDTH 14 0
BBX 13 12 1 -1
BITMAP
4020
8010
8710
9888
8088
8788
8888
9088
9188
8E10
8010
4020
ENDCHAR
STARTCHAR 249D
ENCODING 9373
SWIDTH 1056 0
DWIDTH 14 0
BBX 13 12 1 -1
BITMAP
5020
9010
9010
9208
9D88
9088
9048
9048
9048
9090
9F10
4020
ENDCHAR
STARTCHAR 249E
ENCODING 9374
SWIDTH 1056 0
DWIDTH 14 0
BBX 13 12 1 -1
BITMAP
4020
8010
8710
8888
9008
9008
9008
9008
8888
8710
8010
4020
ENDCHAR
STARTCHAR 249F
ENCODING 9375
SWIDTH 1056 0
DWIDTH 14 0
BBX 13 12 1 -1
BITMAP
40A0
8090
8090
8688
8988
9088
9088
9088
9088
9090
8F90
4020
ENDCHAR
STARTCHAR 24A0
ENCODING 9376
SWIDTH 1056 0
DWIDTH 14 0
BBX 13 12 1 -1
BITMAP
4020
8010
8710
8888
9088
9FC8
9008
9008
8888
8710
8010
4020
ENDCHAR
STARTCHAR 24A1
ENCODING 9377
SWIDTH 1056 0
DWIDTH 14 0
BBX 13 12 1 -1
BITMAP
4320
8410
8410
8408
8F08
8408
8408
8408
8408
8410
8410
4020
ENDCHAR
STARTCHAR 24A2
ENCODING 9378
SWIDTH 1056 0
DWIDTH 14 0
BBX 13 12 1 -1
BITMAP
4020
8790
8910
9088
9108
8F08
9008
8F08
9088
9050
8D90
4220
ENDCHAR
STARTCHAR 24A3
ENCODING 9379
SWIDTH 1056 0
DWIDTH 14 0
BBX 13 12 1 -1
BITMAP
5020
9010
9010
9208
9D88
9088
9088
9088
9088
9090
9090
4020
ENDCHAR
STARTCHAR 24A4
ENCODING 9380
SWIDTH 1056 0
DWIDTH 14 0
BBX 13 12 1 -1
BITMAP
4020
8210
8010
8008
8208
8208
8208
8208
8208
8210
8210
4020
ENDCHAR
STARTCHAR 24A5
ENCODING 9381
SWIDTH 1056 0
DWIDTH 14 0
BBX 13 13 1 -2
BITMAP
4220
8010
8010
8208
8208
8208
8208
8208
8208
8210
8210
4220
0C00
ENDCHAR
STARTCHAR 24A6
ENCODING 9382
SWIDTH 1056 0
DWIDTH 14 0
BBX 13 12 1 -1
BITMAP
5020
9010
9010
9008
9188
9108
9208
9608
8908
9090
9090
4020
ENDCHAR
STARTCHAR 24A7
ENCODING 9383
SWIDTH 1056 0
DWIDTH 14 0
BBX 13 12 1 -1
BITMAP
4220
8210
8210
8208
8208
8208
8208
8208
8208
8210
8210
4020
ENDCHAR
STARTCHAR 24A8
ENCODING 9384
SWIDTH 1056 0
DWIDTH 14 0
BBX 13 12 1 -1
BITMAP
4020
8010
8D90
B248
A248
A248
A248
A248
A248
8010
8010
4020
ENDCHAR
STARTCHAR 24A9
ENCODING 9385
SWIDTH 1056 0
DWIDTH 14 0
BBX 13 12 1 -1
BITMAP
4020
8010
8710
9888
9088
9088
9088
9088
9088
8010
8010
4020
ENDCHAR
STARTCHAR 24AA
ENCODING 9386
SWIDTH 1056 0
DWIDTH 14 0
BBX 13 12 1 -1
BITMAP
4020
8010
8710
9888
9088
9048
9048
9088
9888
8710
8010
4020
ENDCHAR
STARTCHAR 24AB
ENCODING 9387
SWIDTH 1056 0
DWIDTH 14 0
BBX 13 12 1 -1
BITMAP
4020
9710
9890
9048
9048
9048
9088
9888
9708
9010
9010
4020
ENDCHAR
STARTCHAR 24AC
ENCODING 9388
SWIDTH 1056 0
DWIDTH 14 0
BBX 13 12 1 -1
BITMAP
4020
8790
9890
9088
9088
9088
9088
9188
8E88
8090
8090
4020
ENDCHAR
STARTCHAR 24AD
ENCODING 9389
SWIDTH 1056 0
DWIDTH 14 0
BBX 13 12 1 -1
BITMAP
4020
8010
8310
8408
8408
8408
8408
8408
8408
8010
8010
4020
ENDCHAR
STARTCHAR 24AE
ENCODING 9390
SWIDTH 1056 0
DWIDTH 14 0
BBX 13 12 1 -1
BITMAP
4020
8010
8710
8808
8808
8608
8108
8088
9888
8710
8010
4020
ENDCHAR
STARTCHAR 24AF
ENCODING 9391
SWIDTH 1056 0
DWIDTH 14 0
BBX 13 12 1 -1
BITMAP
4020
8410
8410
8F08
8408
8408
8408
8408
8408
8390
8010
4020
ENDCHAR
STARTCHAR 24B0
ENCODING 9392
SWIDTH 1056 0
DWIDTH 14 0
BBX 13 12 1 -1
BITMAP
4020
8010
8010
9088
9088
9088
9088
9088
9188
8E10
8010
4020
ENDCHAR
STARTCHAR 24B1
ENCODING 9393
SWIDTH 1056 0
DWIDTH 14 0
BBX 13 12 1 -1
BITMAP
4020
8010
8010
9088
8888
8908
8908
8508
8608
8010
8010
4020
ENDCHAR
STARTCHAR 24B2
ENCODING 9394
SWIDTH 1056 0
DWIDTH 14 0
BBX 13 12 1 -1
BITMAP
4020
8010
8010
C628
A648
A548
A948
9948
9988
8010
8010
4020
ENDCHAR
STARTCHAR 24B3
ENCODING 9395
SWIDTH 1056 0
DWIDTH 14 0
BBX 13 12 1 -1
BITMAP
4020
8010
9090
8908
8508
8208
8608
8908
8888
9010
8010
4020
ENDCHAR
STARTCHAR 24B4
ENCODING 9396
SWIDTH 1056 0
DWIDTH 14 0
BBX 13 12 1 -1
BITMAP
4020
9090
9090
8888
8908
8908
8508
8208
8208
8410
9C10
4020
ENDCHAR
STARTCHAR 24B5
ENCODING 9397
SWIDTH 1056 0
DWIDTH 14 0
BBX 13 12 1 -1
BITMAP
4020
8010
8E90
8108
8108
8208
8408
8808
8808
9790
8010
4020
ENDCHAR
STARTCHAR 24B6
ENCODING 9398
SWIDTH 1056 0
DWIDTH 14 0
BBX 13 12 1 -1
BITMAP
1FC0
6020
8210
8610
8608
8908
8F08
8888
9090
4010
2060
1F80
ENDCHAR
STARTCHAR 24B7
ENCODING 9399
SWIDTH 1056 0
DWIDTH 14 0
BBX 13 12 1 -1
BITMAP
1FC0
6020
8F10
8890
8888
8F08
8888
8888
8990
4610
2060
1F80
ENDCHAR
STARTCHAR 24B8
ENCODING 9400
SWIDTH 1056 0
DWIDTH 14 0
BBX 13 12 1 -1
BITMAP
1FC0
6020
8710
8890
9008
9008
9008
9008
8990
4610
2060
1F80
ENDCHAR
STARTCHAR 24B9
ENCODING 9401
SWIDTH 1056 0
DWIDTH 14 0
BBX 13 12 1 -1
BITMAP
1FC0
6020
8E10
8990
8888
8888
8888
8888
8910
4610
2060
1F80
ENDCHAR
STARTCHAR 24BA
ENCODING 9402
SWIDTH 1056 0
DWIDTH 14 0
BBX 13 12 1 -1
BITMAP
1FC0
6020
8F10
8810
8808
8F08
8808
8808
8810
4790
2060
1F80
ENDCHAR
STARTCHAR 24BB
ENCODING 9403
SWIDTH 1056 0
DWIDTH 14 0
BBX 13 12 1 -1
BITMAP
1FC0
6020
8F10
8810
8808
8F08
8808
8808
8810
4010
2060
1F80
ENDCHAR
STARTCHAR 24BC
ENCODING 9404
SWIDTH 1056 0
DWIDTH 14 0
BBX 13 12 1 -1
BITMAP
1FC0
6020
8710
8890
9008
9008
9388
9088
8890
4710
2060
1F80
ENDCHAR
STARTCHAR 24BD
ENCODING 9405
SWIDTH 1056 0
DWIDTH 14 0
BBX 13 12 1 -1
BITMAP
1FC0
6020
9090
9090
9088
9F88
9088
9088
9090
4010
2060
1F80
ENDCHAR
STARTCHAR 24BE
ENCODING 9406
SWIDTH 1056 0
DWIDTH 14 0
BBX 13 12 1 -1
BITMAP
1FC0
6020
8210
8210
8208
8208
8208
8208
8210
4010
2060
1F80
ENDCHAR
STARTCHAR 24BF
ENCODING 9407
SWIDTH 1056 0
DWIDTH 14 0
BBX 13 12 1 -1
BITMAP
1FC0
6020
8110
8110
8108
8108
8108
8108
8910
4610
2060
1F80
ENDCHAR
STARTCHAR 24C0
ENCODING 9408
SWIDTH 1056 0
DWIDTH 14 0
BBX 13 12 1 -1
BITMAP
1FC0
6020
8890
8910
8A08
8E08
8A08
8908
8890
4010
2060
1F80
ENDCHAR
STARTCHAR 24C1
ENCODING 9409
SWIDTH 1056 0
DWIDTH 14 0
BBX 13 12 1 -1
BITMAP
1FC0
6020
8810
8810
8808
8808
8808
8808
8810
4790
2060
1F80
ENDCHAR
STARTCHAR 24C2
ENCODING 9410
SWIDTH 1056 0
DWIDTH 14 0
BBX 13 12 1 -1
BITMAP
1FC0
6020
9090
9090
9988
9988
9688
9688
9290
4010
2060
1F80
ENDCHAR
STARTCHAR 24C3
ENCODING 9411
SWIDTH 1056 0
DWIDTH 14 0
BBX 13 12 1 -1
BITMAP
1FC0
6020
9090
9890
9488
9488
9288
9188
9090
4010
2060
1F80
ENDCHAR
STARTCHAR 24C4
ENCODING 9412
SWIDTH 1056 0
DWIDTH 14 0
BBX 13 12 1 -1
BITMAP
1FC0
6020
8710
9890
9088
9048
9048
9088
8990
4610
2060
1F80
ENDCHAR
STARTCHAR 24C5
ENCODING 9413
SWIDTH 1056 0
DWIDTH 14 0
BBX 13 12 1 -1
BITMAP
1FC0
6020
8F10
8890
8888
8988
8E08
8808
8810
4010
2060
1F80
ENDCHAR
STARTCHAR 24C6
ENCODING 9414
SWIDTH 1056 0
DWIDTH 14 0
BBX 13 12 1 -1
BITMAP
1FC0
6020
8F10
9090
9088
9048
9088
9088
8F10
4210
21E0
1F80
ENDCHAR
STARTCHAR 24C7
ENCODING 9415
SWIDTH 1056 0
DWIDTH 14 0
BBX 13 12 1 -1
BITMAP
1FC0
6020
8F10
8890
8888
8D08
8A08
8908
8890
4010
2060
1F80
ENDCHAR
STARTCHAR 24C8
ENCODING 9416
SWIDTH 1056 0
DWIDTH 14 0
BBX 13 12 1 -1
BITMAP
1FC0
6020
8710
8810
8808
8608
8108
8088
9990
4610
2060
1F80
ENDCHAR
STARTCHAR 24C9
ENCODING 9417
SWIDTH 1056 0
DWIDTH 14 0
BBX 13 12 1 -1
BITMAP
1FC0
6020
9F90
8210
8208
8208
8208
8208
8210
4010
2060
1F80
ENDCHAR
STARTCHAR 24CA
ENCODING 9418
SWIDTH 1056 0
DWIDTH 14 0
BBX 13 12 1 -1
BITMAP
1FC0
6020
9090
9090
9088
9088
9088
9088
8910
4610
2060
1F80
ENDCHAR
STARTCHAR 24CB
ENCODING 9419
SWIDTH 1056 0
DWIDTH 14 0
BBX 13 12 1 -1
BITMAP
1FC0
6020
9090
9090
8908
8908
8508
8608
8210
4010
2060
1F80
ENDCHAR
STARTCHAR 24CC
ENCODING 9420
SWIDTH 1056 0
DWIDTH 14 0
BBX 13 12 1 -1
BITMAP
1FC0
6020
A230
A250
A648
A548
9948
9988
9090
4010
2060
1F80
ENDCHAR
STARTCHAR 24CD
ENCODING 9421
SWIDTH 1056 0
DWIDTH 14 0
BBX 13 12 1 -1
BITMAP
1FC0
6020
9090
8910
8508
8208
8608
8908
8910
5090
2060
1F80
ENDCHAR
STARTCHAR 24CE
ENCODING 9422
SWIDTH 1056 0
DWIDTH 14 0
BBX 13 12 1 -1
BITMAP
1FC0
6020
9090
8910
8908
8608
8208
8208
8210
4010
2060
1F80
ENDCHAR
STARTCHAR 24CF
ENCODING 9423
SWIDTH 1056 0
DWIDTH 14 0
BBX 13 12 1 -1
BITMAP
1FC0
6020
8F90
8110
8108
8208
8408
8808
8810
5790
2060
1F80
ENDCHAR
STARTCHAR 24D0
ENCODING 9424
SWIDTH 1056 0
DWIDTH 14 0
BBX 13 12 1 -1
BITMAP
1FC0
6020
8010
8210
8D08
8308
8D08
8908
8610
4010
2060
1F80
ENDCHAR
STARTCHAR 24D1
ENCODING 9425
SWIDTH 1056 0
DWIDTH 14 0
BBX 13 12 1 -1
BITMAP
1FC0
6020
8810
8810
8F08
8888
8888
8888
8F10
4010
2060
1F80
ENDCHAR
STARTCHAR 24D2
ENCODING 9426
SWIDTH 1056 0
DWIDTH 14 0
BBX 13 12 1 -1
BITMAP
1FC0
6020
8010
8210
8D08
8808
8808
8808
8710
4010
2060
1F80
ENDCHAR
STARTCHAR 24D3
ENCODING 9427
SWIDTH 1056 0
DWIDTH 14 0
BBX 13 12 1 -1
BITMAP
1FC0
6020
8110
8110
8708
8908
8908
8908
8F10
4010
2060
1F80
ENDCHAR
STARTCHAR 24D4
ENCODING 9428
SWIDTH 1056 0
DWIDTH 14 0
BBX 13 12 1 -1
BITMAP
1FC0
6020
8010
8210
8D08
8F08
8808
8808
8710
4010
2060
1F80
ENDCHAR
STARTCHAR 24D5
ENCODING 9429
SWIDTH 1056 0
DWIDTH 14 0
BBX 13 12 1 -1
BITMAP
1FC0
6020
8310
8410
8608
8408
8408
8408
8410
4010
2060
1F80
ENDCHAR
STARTCHAR 24D6
ENCODING 9430
SWIDTH 1056 0
DWIDTH 14 0
BBX 13 12 1 -1
BITMAP
1FC0
6020
8010
8F10
8908
8F08
8808
8708
8890
4710
2060
1F80
ENDCHAR
STARTCHAR 24D7
ENCODING 9431
SWIDTH 1056 0
DWIDTH 14 0
BBX 13 12 1 -1
BITMAP
1FC0
6020
8810
8810
8F08
8908
8908
8908
8910
4010
2060
1F80
ENDCHAR
STARTCHAR 24D8
ENCODING 9432
SWIDTH 1056 0
DWIDTH 14 0
BBX 13 12 1 -1
BITMAP
1FC0
6020
8210
8010
8208
8208
8208
8208
8210
4010
2060
1F80
ENDCHAR
STARTCHAR 24D9
ENCODING 9433
SWIDTH 1056 0
DWIDTH 14 0
BBX 13 12 1 -1
BITMAP
1FC0
6020
8210
8010
8208
8208
8208
8208
8210
4210
2460
1F80
ENDCHAR
STARTCHAR 24DA
ENCODING 9434
SWIDTH 1056 0
DWIDTH 14 0
BBX 13 12 1 -1
BITMAP
1FC0
6020
8810
8810
8908
8A08
8E08
8908
8910
4010
2060
1F80
ENDCHAR
STARTCHAR 24DB
ENCODING 9435
SWIDTH 1056 0
DWIDTH 14 0
BBX 13 12 1 -1
BITMAP
1FC0
6020
8210
8210
8208
8208
8208
8208
8210
4010
2060
1F80
ENDCHAR
STARTCHAR 24DC
ENCODING 9436
SWIDTH 1056 0
DWIDTH 14 0
BBX 13 12 1 -1
BITMAP
1FC0
6020
8010
8990
9648
9248
9248
9248
8010
4010
2060
1F80
ENDCHAR
STARTCHAR 24DD
ENCODING 9437
SWIDTH 1056 0
DWIDTH 14 0
BBX 13 12 1 -1
BITMAP
1FC0
6020
8010
8210
8D08
8908
8908
8908
8010
4010
2060
1F80
ENDCHAR
STARTCHAR 24DE
ENCODING 9438
SWIDTH 1056 0
DWIDTH 14 0
BBX 13 12 1 -1
BITMAP
1FC0
6020
8010
8610
8908
8888
8888
8908
8610
4010
2060
1F80
ENDCHAR
STARTCHAR 24DF
ENCODING 9439
SWIDTH 1056 0
DWIDTH 14 0
BBX 13 12 1 -1
BITMAP
1FC0
6020
8010
8F10
8888
8888
8908
8E08
8810
4810
2060
1F80
ENDCHAR
STARTCHAR 24E0
ENCODING 9440
SWIDTH 1056 0
DWIDTH 14 0
BBX 13 12 1 -1
BITMAP
1FC0
6020
8010
8F10
8908
8908
8908
8708
8110
4110
2060
1F80
ENDCHAR
STARTCHAR 24E1
ENCODING 9441
SWIDTH 1056 0
DWIDTH 14 0
BBX 13 12 1 -1
BITMAP
1FC0
6020
8010
8110
8608
8408
8408
8408
8010
4010
2060
1F80
ENDCHAR
STARTCHAR 24E2
ENCODING 9442
SWIDTH 1056 0
DWIDTH 14 0
BBX 13 12 1 -1
BITMAP
1FC0
6020
8010
8210
8D08
8408
8308
8908
8610
4010
2060
1F80
ENDCHAR
STARTCHAR 24E3
ENCODING 9443
SWIDTH 1056 0
DWIDTH 14 0
BBX 13 12 1 -1
BITMAP
1FC0
6020
8410
8410
8608
8408
8408
8408
8310
4010
2060
1F80
ENDCHAR
STARTCHAR 24E4
ENCODING 9444
SWIDTH 1056 0
DWIDTH 14 0
BBX 13 12 1 -1
BITMAP
1FC0
6020
8010
8010
8908
8908
8908
8908
8610
4010
2060
1F80
ENDCHAR
STARTCHAR 24E5
ENCODING 9445
SWIDTH 1056 0
DWIDTH 14 0
BBX 13 12 1 -1
BITMAP
1FC0
6020
8010
8010
8908
8908
8608
8608
8010
4010
2060
1F80
ENDCHAR
STARTCHAR 24E6
ENCODING 9446
SWIDTH 1056 0
DWIDTH 14 0
BBX 13 12 1 -1
BITMAP
1FC0
6020
8010
8010
9288
9688
9588
8908
8010
4010
2060
1F80
ENDCHAR
STARTCHAR 24E7
ENCODING 9447
SWIDTH 1056 0
DWIDTH 14 0
BBX 13 12 1 -1
BITMAP
1FC0
6020
8010
8810
8508
8608
8608
8908
8010
4010
2060
1F80
ENDCHAR
STARTCHAR 24E8
ENCODING 9448
SWIDTH 1056 0
DWIDTH 14 0
BBX 13 12 1 -1
BITMAP
1FC0
6020
8010
8890
8508
8508
8608
8208
8210
4C10
2060
1F80
ENDCHAR
STARTCHAR 24E9
ENCODING 9449
SWIDTH 1056 0
DWIDTH 14 0
BBX 13 12 1 -1
BITMAP
1FC0
6020
8010
8010
8708
8208
8408
8408
8B10
4010
2060
1F80
ENDCHAR
STARTCHAR 24EA
ENCODING 9450
SWIDTH 1056 0
DWIDTH 14 0
BBX 13 12 1 -1
BITMAP
1FC0
6020
8610
8910
9088
9088
9088
8888
8910
4610
2060
1F80
ENDCHAR
STARTCHAR 24EB
ENCODING 9451
SWIDTH 1056 0
DWIDTH 14 0
BBX 13 12 1 -1
BITMAP
1F80
3FE0
7FF0
F7F0
F7F8
F7F8
F7F8
F7F0
F7F0
7FE0
3FE0
1F80
ENDCHAR
STARTCHAR 24EC
ENCODING 9452
SWIDTH 1056 0
DWIDTH 14 0
BBX 13 12 1 -1
BITMAP
1F80
3FE0
7EF0
EFF0
EFF8
EFF8
EF78
EEF0
EDF0
7FE0
3FE0
1F80
ENDCHAR
STARTCHAR 24ED
ENCODING 9453
SWIDTH 1056 0
DWIDTH 14 0
BBX 13 12 1 -1
BITMAP
1F80
3FE0
7EF0
EFF0
EFF8
EE78
EFF8
EFB0
EFF0
7FE0
3FE0
1F80
ENDCHAR
STARTCHAR 24EE
ENCODING 9454
SWIDTH 1056 0
DWIDTH 14 0
BBX 13 12 1 -1
BITMAP
1F80
3FE0
7FF0
EF70
EF78
ED78
EF78
EF70
EF70
7FE0
3FE0
1F80
ENDCHAR
STARTCHAR 24EF
ENCODING 9455
SWIDTH 1056 0
DWIDTH 14 0
BBX 13 12 1 -1
BITMAP
1F80
3FE0
7FF0
EDF0
EDF8
ED78
EFB8
EFB0
EFF0
7FE0
3FE0
1F80
ENDCHAR
STARTCHAR 24F0
ENCODING 9456
SWIDTH 1056 0
DWIDTH 14 0
BBX 13 12 1 -1
BITMAP
1F80
3FE0
7E70
EDF0
EFF8
EE78
EFB8
EFB0
EDF0
7FE0
3FE0
1F80
ENDCHAR
STARTCHAR 24F1
ENCODING 9457
SWIDTH 1056 0
DWIDTH 14 0
BBX 13 12 1 -1
BITMAP
1F80
3FE0
7FF0
EFF0
EF78
EFF8
EFF8
EEF0
EEF0
7FE0
3FE0
1F80
ENDCHAR
STARTCHAR 24F2
ENCODING 9458
SWIDTH 1056 0
DWIDTH 14 0
BBX 13 12 1 -1
BITMAP
1F80
3FE0
7E70
EDB0
EDB8
EEF8
EDB8
EFF0
EDB0
7FE0
3FE0
1F80
ENDCHAR
STARTCHAR 24F3
ENCODING 9459
SWIDTH 1056 0
DWIDTH 14 0
BBX 13 12 1 -1
BITMAP
1F80
3FE0
7EF0
EDF0
EFB8
EDB8
EEB8
EFB0
EFF0
7FE0
3FE0
1F80
ENDCHAR
STARTCHAR 24F4
ENCODING 9460
SWIDTH 1056 0
DWIDTH 14 0
BBX 13 12 1 -1
BITMAP
1F80
3FE0
6770
FBF0
FBF8
FDD8
F5D8
EFF0
DEB0
7FE0
3FE0
1F80
ENDCHAR
STARTCHAR 24F5
ENCODING 9461
SWIDTH 1056 0
DWIDTH 14 0
BBX 13 12 1 -1
BITMAP
1FC0
7FA0
A250
C630
8218
8218
8218
8210
C230
6050
39A0
1FC0
ENDCHAR
STARTCHAR 24F6
ENCODING 9462
SWIDTH 1056 0
DWIDTH 14 0
BBX 13 12 1 -1
BITMAP
1FC0
7FA0
A650
C930
8098
8118
8218
8410
C830
67D0
39A0
1FC0
ENDCHAR
STARTCHAR 24F7
ENCODING 9463
SWIDTH 1056 0
DWIDTH 14 0
BBX 13 12 1 -1
BITMAP
1FC0
7FA0
A750
C8B0
8098
8718
8198
8090
C9B0
6650
39A0
1FC0
ENDCHAR
STARTCHAR 24F8
ENCODING 9464
SWIDTH 1056 0
DWIDTH 14 0
BBX 13 12 1 -1
BITMAP
1FC0
7FA0
A250
C230
8618
8A18
9218
8F10
C230
6050
39A0
1FC0
ENDCHAR
STARTCHAR 24F9
ENCODING 9465
SWIDTH 1056 0
DWIDTH 14 0
BBX 13 12 1 -1
BITMAP
1FC0
7FA0
A750
C830
8818
8F18
8098
8090
D930
6650
39A0
1FC0
ENDCHAR
STARTCHAR 24FA
ENCODING 9466
SWIDTH 1056 0
DWIDTH 14 0
BBX 13 12 1 -1
BITMAP
1FC0
7FA0
A750
C830
9018
9E18
9118
9090
C930
6650
39A0
1FC0
ENDCHAR
STARTCHAR 24FB
ENCODING 9467
SWIDTH 1056 0
DWIDTH 14 0
BBX 13 12 1 -1
BITMAP
1FC0
7FA0
AFD0
C130
8218
8218
8218
8410
C430
6050
39A0
1FC0
ENDCHAR
STARTCHAR 24FC
ENCODING 9468
SWIDTH 1056 0
DWIDTH 14 0
BBX 13 12 1 -1
BITMAP
1FC0
7FA0
A750
C8B0
8898
8718
8918
9090
C9B0
6650
39A0
1FC0
ENDCHAR
STARTCHAR 24FD
ENCODING 9469
SWIDTH 1056 0
DWIDTH 14 0
BBX 13 12 1 -1
BITMAP
1FC0
7FA0
A750
C8B0
8898
8898
8798
8090
C930
6650
39A0
1FC0
ENDCHAR
STARTCHAR 24FE
ENCODING 9470
SWIDTH 1056 0
DWIDTH 14 0
BBX 13 12 1 -1
BITMAP
1FC0
7FA0
A9D0
DA70
8A58
8C58
8C58
8A50
CAB0
6150
39A0
1FC0
ENDCHAR
STARTCHAR 24FF
ENCODING 9471
SWIDTH 1056 0
DWIDTH 14 0
BBX 13 12 1 -1
BITMAP
1F80
3FE0
79F0
F7F0
FF78
FF78
FF78
FFF0
F6F0
7FE0
3FE0
1F80
ENDCHAR
STARTCHAR 2500
ENCODING 9472
SWIDTH 1056 0
DWIDTH 14 0
BBX 14 1 0 5
BITMAP
FFFC
ENDCHAR
STARTCHAR 2501
ENCODING 9473
SWIDTH 1056 0
DWIDTH 14 0
BBX 14 2 0 4
BITMAP
FFFC
FFFC
ENDCHAR
STARTCHAR 2502
ENCODING 9474
SWIDTH 1056 0
DWIDTH 14 0
BBX 1 14 7 -2
BITMAP
80
80
80
80
80
80
80
80
80
80
80
80
80
80
ENDCHAR
STARTCHAR 2503
ENCODING 9475
SWIDTH 1056 0
DWIDTH 14 0
BBX 2 14 6 -2
BITMAP
C0
C0
C0
C0
C0
C0
C0
C0
C0
C0
C0
C0
C0
C0
ENDCHAR
STARTCHAR 2504
ENCODING 9476
SWIDTH 1056 0
DWIDTH 14 0
BBX 12 1 1 5
BITMAP
E770
ENDCHAR
STARTCHAR 2505
ENCODING 9477
SWIDTH 1056 0
DWIDTH 14 0
BBX 12 2 1 4
BITMAP
E770
E770
ENDCHAR
STARTCHAR 2506
ENCODING 9478
SWIDTH 1056 0
DWIDTH 14 0
BBX 1 12 7 -1
BITMAP
80
80
80
00
80
80
80
00
00
80
80
80
ENDCHAR
STARTCHAR 2507
ENCODING 9479
SWIDTH 1056 0
DWIDTH 14 0
BBX 2 12 6 -1
BITMAP
C0
C0
C0
00
C0
C0
C0
00
00
C0
C0
C0
ENDCHAR
STARTCHAR 2508
ENCODING 9480
SWIDTH 1056 0
DWIDTH 14 0
BBX 14 1 0 5
BITMAP
EEDC
ENDCHAR
STARTCHAR 2509
ENCODING 9481
SWIDTH 1056 0
DWIDTH 14 0
BBX 14 2 0 4
BITMAP
EEDC
EEDC
ENDCHAR
STARTCHAR 250A
ENCODING 9482
SWIDTH 1056 0
DWIDTH 14 0
BBX 1 12 7 -1
BITMAP
80
80
00
80
80
80
80
80
80
00
80
80
ENDCHAR
STARTCHAR 250B
ENCODING 9483
SWIDTH 1056 0
DWIDTH 14 0
BBX 2 12 6 -1
BITMAP
C0
C0
00
C0
C0
C0
C0
C0
C0
00
C0
C0
ENDCHAR
STARTCHAR 250C
ENCODING 9484
SWIDTH 1056 0
DWIDTH 14 0
BBX 7 7 7 -2
BITMAP
FE
80
80
80
80
80
80
ENDCHAR
STARTCHAR 250D
ENCODING 9485
SWIDTH 1056 0
DWIDTH 14 0
BBX 7 8 7 -2
BITMAP
FE
FE
80
80
80
80
80
80
ENDCHAR
STARTCHAR 250E
ENCODING 9486
SWIDTH 1056 0
DWIDTH 14 0
BBX 8 7 6 -2
BITMAP
FF
C0
C0
C0
C0
C0
C0
ENDCHAR
STARTCHAR 250F
ENCODING 9487
SWIDTH 1056 0
DWIDTH 14 0
BBX 8 8 6 -2
BITMAP
FF
FF
C0
C0
C0
C0
C0
C0
ENDCHAR
STARTCHAR 2510
ENCODING 9488
SWIDTH 1056 0
DWIDTH 14 0
BBX 7 7 0 -2
BITMAP
FE
02
02
02
02
02
02
ENDCHAR
STARTCHAR 2511
ENCODING 9489
SWIDTH 1056 0
DWIDTH 14 0
BBX 7 8 0 -2
BITMAP
FE
FE
02
02
02
02
02
02
ENDCHAR
STARTCHAR 2512
ENCODING 9490
SWIDTH 1056 0
DWIDTH 14 0
BBX 8 7 0 -2
BITMAP
FF
03
03
03
03
03
03
ENDCHAR
STARTCHAR 2513
ENCODING 9491
SWIDTH 1056 0
DWIDTH 14 0
BBX 8 8 0 -2
BITMAP
FF
FF
03
03
03
03
03
03
ENDCHAR
STARTCHAR 2514
ENCODING 9492
SWIDTH 1056 0
DWIDTH 14 0
BBX 7 7 7 5
BITMAP
80
80
80
80
80
80
FE
ENDCHAR
STARTCHAR 2515
ENCODING 9493
SWIDTH 1056 0
DWIDTH 14 0
BBX 7 8 7 4
BITMAP
80
80
80
80
80
80
FE
FE
ENDCHAR
STARTCHAR 2516
ENCODING 9494
SWIDTH 1056 0
DWIDTH 14 0
BBX 8 7 6 5
BITMAP
C0
C0
C0
C0
C0
C0
FF
ENDCHAR
STARTCHAR 2517
ENCODING 9495
SWIDTH 1056 0
DWIDTH 14 0
BBX 8 8 6 4
BITMAP
C0
C0
C0
C0
C0
C0
FF
FF
ENDCHAR
STARTCHAR 2518
ENCODING 9496
SWIDTH 1056 0
DWIDTH 14 0
BBX 7 7 0 5
BITMAP
02
02
02
02
02
02
FE
ENDCHAR
STARTCHAR 2519
ENCODING 9497
SWIDTH 1056 0
DWIDTH 14 0
BBX 7 8 0 4
BITMAP
02
02
02
02
02
02
FE
FE
ENDCHAR
STARTCHAR 251A
ENCODING 9498
SWIDTH 1056 0
DWIDTH 14 0
BBX 8 7 0 5
BITMAP
03
03
03
03
03
03
FF
ENDCHAR
STARTCHAR 251B
ENCODING 9499
SWIDTH 1056 0
DWIDTH 14 0
BBX 8 8 0 4
BITMAP
03
03
03
03
03
03
FF
FF
ENDCHAR
STARTCHAR 251C
ENCODING 9500
SWIDTH 1056 0
DWIDTH 14 0
BBX 7 14 7 -2
BITMAP
80
80
80
80
80
80
FE
80
80
80
80
80
80
80
ENDCHAR
STARTCHAR 251D
ENCODING 9501
SWIDTH 1056 0
DWIDTH 14 0
BBX 7 14 7 -2
BITMAP
80
80
80
80
80
80
FE
FE
80
80
80
80
80
80
ENDCHAR
STARTCHAR 251E
ENCODING 9502
SWIDTH 1056 0
DWIDTH 14 0
BBX 8 14 6 -2
BITMAP
C0
C0
C0
C0
C0
C0
FF
40
40
40
40
40
40
40
ENDCHAR
STARTCHAR 251F
ENCODING 9503
SWIDTH 1056 0
DWIDTH 14 0
BBX 8 14 6 -2
BITMAP
40
40
40
40
40
40
7F
C0
C0
C0
C0
C0
C0
C0
ENDCHAR
STARTCHAR 2520
ENCODING 9504
SWIDTH 1056 0
DWIDTH 14 0
BBX 8 14 6 -2
BITMAP
C0
C0
C0
C0
C0
C0
FF
C0
C0
C0
C0
C0
C0
C0
ENDCHAR
STARTCHAR 2521
ENCODING 9505
SWIDTH 1056 0
DWIDTH 14 0
BBX 8 14 6 -2
BITMAP
C0
C0
C0
C0
C0
C0
FF
FF
40
40
40
40
40
40
ENDCHAR
STARTCHAR 2522
ENCODING 9506
SWIDTH 1056 0
DWIDTH 14 0
BBX 8 14 6 -2
BITMAP
40
40
40
40
40
40
FF
FF
C0
C0
C0
C0
C0
C0
ENDCHAR
STARTCHAR 2523
ENCODING 9507
SWIDTH 1056 0
DWIDTH 14 0
BBX 8 14 6 -2
BITMAP
C0
C0
C0
C0
C0
C0
FF
FF
C0
C0
C0
C0
C0
C0
ENDCHAR
STARTCHAR 2524
ENCODING 9508
SWIDTH 1056 0
DWIDTH 14 0
BBX 7 14 0 -2
BITMAP
02
02
02
02
02
02
FE
02
02
02
02
02
02
02
ENDCHAR
STARTCHAR 2525
ENCODING 9509
SWIDTH 1056 0
DWIDTH 14 0
BBX 7 14 0 -2
BITMAP
02
02
02
02
02
02
FE
FE
02
02
02
02
02
02
ENDCHAR
STARTCHAR 2526
ENCODING 9510
SWIDTH 1056 0
DWIDTH 14 0
BBX 8 14 0 -2
BITMAP
03
03
03
03
03
03
FF
01
01
01
01
01
01
01
ENDCHAR
STARTCHAR 2527
ENCODING 9511
SWIDTH 1056 0
DWIDTH 14 0
BBX 8 14 0 -2
BITMAP
01
01
01
01
01
01
FD
03
03
03
03
03
03
03
ENDCHAR
STARTCHAR 2528
ENCODING 9512
SWIDTH 1056 0
DWIDTH 14 0
BBX 8 14 0 -2
BITMAP
03
03
03
03
03
03
FF
03
03
03
03
03
03
03
ENDCHAR
STARTCHAR 2529
ENCODING 9513
SWIDTH 1056 0
DWIDTH 14 0
BBX 8 14 0 -2
BITMAP
03
03
03
03
03
03
FF
FF
01
01
01
01
01
01
ENDCHAR
STARTCHAR 252A
ENCODING 9514
SWIDTH 1056 0
DWIDTH 14 0
BBX 8 14 0 -2
BITMAP
01
01
01
01
01
01
FF
FF
03
03
03
03
03
03
ENDCHAR
STARTCHAR 252B
ENCODING 9515
SWIDTH 1056 0
DWIDTH 14 0
BBX 8 14 0 -2
BITMAP
03
03
03
03
03
03
FF
FF
03
03
03
03
03
03
ENDCHAR
STARTCHAR 252C
ENCODING 9516
SWIDTH 1056 0
DWIDTH 14 0
BBX 14 7 0 -2
BITMAP
FFFC
0100
0100
0100
0100
0100
0100
ENDCHAR
STARTCHAR 252D
ENCODING 9517
SWIDTH 1056 0
DWIDTH 14 0
BBX 14 8 0 -2
BITMAP
FFFC
FE00
0100
0100
0100
0100
0100
0100
ENDCHAR
STARTCHAR 252E
ENCODING 9518
SWIDTH 1056 0
DWIDTH 14 0
BBX 14 8 0 -2
BITMAP
FFFC
01FC
0100
0100
0100
0100
0100
0100
ENDCHAR
STARTCHAR 252F
ENCODING 9519
SWIDTH 1056 0
DWIDTH 14 0
BBX 14 8 0 -2
BITMAP
FFFC
FFFC
0100
0100
0100
0100
0100
0100
ENDCHAR
STARTCHAR 2530
ENCODING 9520
SWIDTH 1056 0
DWIDTH 14 0
BBX 14 7 0 -2
BITMAP
FFFC
0300
0300
0300
0300
0300
0300
ENDCHAR
STARTCHAR 2531
ENCODING 9521
SWIDTH 1056 0
DWIDTH 14 0
BBX 14 8 0 -2
BITMAP
FFFC
FF00
0300
0300
0300
0300
0300
0300
ENDCHAR
STARTCHAR 2532
ENCODING 9522
SWIDTH 1056 0
DWIDTH 14 0
BBX 14 8 0 -2
BITMAP
FFFC
03FC
0300
0300
0300
0300
0300
0300
ENDCHAR
STARTCHAR 2533
ENCODING 9523
SWIDTH 1056 0
DWIDTH 14 0
BBX 14 8 0 -2
BITMAP
FFFC
FFFC
0300
0300
0300
0300
0300
0300
ENDCHAR
STARTCHAR 2534
ENCODING 9524
SWIDTH 1056 0
DWIDTH 14 0
BBX 14 7 0 5
BITMAP
0100
0100
0100
0100
0100
0100
FFFC
ENDCHAR
STARTCHAR 2535
ENCODING 9525
SWIDTH 1056 0
DWIDTH 14 0
BBX 14 8 0 4
BITMAP
0100
0100
0100
0100
0100
0100
FFFC
FE00
ENDCHAR
STARTCHAR 2536
ENCODING 9526
SWIDTH 1056 0
DWIDTH 14 0
BBX 14 8 0 4
BITMAP
0100
0100
0100
0100
0100
0100
FFFC
01FC
ENDCHAR
STARTCHAR 2537
ENCODING 9527
SWIDTH 1056 0
DWIDTH 14 0
BBX 14 8 0 4
BITMAP
0100
0100
0100
0100
0100
0100
FFFC
FFFC
ENDCHAR
STARTCHAR 2538
ENCODING 9528
SWIDTH 1056 0
DWIDTH 14 0
BBX 14 7 0 5
BITMAP
0300
0300
0300
0300
0300
0300
FFFC
ENDCHAR
STARTCHAR 2539
ENCODING 9529
SWIDTH 1056 0
DWIDTH 14 0
BBX 14 8 0 4
BITMAP
0300
0300
0300
0300
0300
0300
FFFC
FF00
ENDCHAR
STARTCHAR 253A
ENCODING 9530
SWIDTH 1056 0
DWIDTH 14 0
BBX 14 8 0 4
BITMAP
0300
0300
0300
0300
0300
0300
FFFC
03FC
ENDCHAR
STARTCHAR 253B
ENCODING 9531
SWIDTH 1056 0
DWIDTH 14 0
BBX 14 8 0 4
BITMAP
0300
0300
0300
0300
0300
0300
FFFC
FFFC
ENDCHAR
STARTCHAR 253C
ENCODING 9532
SWIDTH 1056 0
DWIDTH 14 0
BBX 14 14 0 -2
BITMAP
0100
0100
0100
0100
0100
0100
FFFC
0100
0100
0100
0100
0100
0100
0100
ENDCHAR
STARTCHAR 253D
ENCODING 9533
SWIDTH 1056 0
DWIDTH 14 0
BBX 14 14 0 -2
BITMAP
0100
0100
0100
0100
0100
0100
FFFC
FE00
0100
0100
0100
0100
0100
0100
ENDCHAR
STARTCHAR 253E
ENCODING 9534
SWIDTH 1056 0
DWIDTH 14 0
BBX 14 14 0 -2
BITMAP
0100
0100
0100
0100
0100
0100
FFFC
01FC
0100
0100
0100
0100
0100
0100
ENDCHAR
STARTCHAR 253F
ENCODING 9535
SWIDTH 1056 0
DWIDTH 14 0
BBX 14 14 0 -2
BITMAP
0100
0100
0100
0100
0100
0100
FFFC
FFFC
0100
0100
0100
0100
0100
0100
ENDCHAR
STARTCHAR 2540
ENCODING 9536
SWIDTH 1056 0
DWIDTH 14 0
BBX 14 14 0 -2
BITMAP
0300
0300
0300
0300
0300
0300
FFFC
0100
0100
0100
0100
0100
0100
0100
ENDCHAR
STARTCHAR 2541
ENCODING 9537
SWIDTH 1056 0
DWIDTH 14 0
BBX 14 14 0 -2
BITMAP
0100
0100
0100
0100
0100
0100
FDFC
0300
0300
0300
0300
0300
0300
0300
ENDCHAR
STARTCHAR 2542
ENCODING 9538
SWIDTH 1056 0
DWIDTH 14 0
BBX 14 14 0 -2
BITMAP
0300
0300
0300
0300
0300
0300
FFFC
0300
0300
0300
0300
0300
0300
0300
ENDCHAR
STARTCHAR 2543
ENCODING 9539
SWIDTH 1056 0
DWIDTH 14 0
BBX 14 14 0 -2
BITMAP
0300
0300
0300
0300
0300
0300
FFFC
FF00
0100
0100
0100
0100
0100
0100
ENDCHAR
STARTCHAR 2544
ENCODING 9540
SWIDTH 1056 0
DWIDTH 14 0
BBX 14 14 0 -2
BITMAP
0300
0300
0300
0300
0300
0300
FFFC
03FC
0100
0100
0100
0100
0100
0100
ENDCHAR
STARTCHAR 2545
ENCODING 9541
SWIDTH 1056 0
DWIDTH 14 0
BBX 14 14 0 -2
BITMAP
0100
0100
0100
0100
0100
0100
FFFC
FF00
0300
0300
0300
0300
0300
0300
ENDCHAR
STARTCHAR 2546
ENCODING 9542
SWIDTH 1056 0
DWIDTH 14 0
BBX 14 14 0 -2
BITMAP
0100
0100
0100
0100
0100
0100
FFFC
03FC
0300
0300
0300
0300
0300
0300
ENDCHAR
STARTCHAR 2547
ENCODING 9543
SWIDTH 1056 0
DWIDTH 14 0
BBX 14 14 0 -2
BITMAP
0300
0300
0300
0300
0300
0300
FFFC
FFFC
0100
0100
0100
0100
0100
0100
ENDCHAR
STARTCHAR 2548
ENCODING 9544
SWIDTH 1056 0
DWIDTH 14 0
BBX 14 14 0 -2
BITMAP
0100
0100
0100
0100
0100
0100
FFFC
FFFC
0300
0300
0300
0300
0300
0300
ENDCHAR
STARTCHAR 2549
ENCODING 9545
SWIDTH 1056 0
DWIDTH 14 0
BBX 14 14 0 -2
BITMAP
0300
0300
0300
0300
0300
0300
FFFC
FF00
0300
0300
0300
0300
0300
0300
ENDCHAR
STARTCHAR 254A
ENCODING 9546
SWIDTH 1056 0
DWIDTH 14 0
BBX 14 14 0 -2
BITMAP
0300
0300
0300
0300
0300
0300
FFFC
03FC
0300
0300
0300
0300
0300
0300
ENDCHAR
STARTCHAR 254B
ENCODING 9547
SWIDTH 1056 0
DWIDTH 14 0
BBX 14 14 0 -2
BITMAP
0300
0300
0300
0300
0300
0300
FFFC
FFFC
0300
0300
0300
0300
0300
0300
ENDCHAR
STARTCHAR 254C
ENCODING 9548
SWIDTH 1056 0
DWIDTH 14 0
BBX 10 1 2 5
BITMAP
E1C0
ENDCHAR
STARTCHAR 254D
ENCODING 9549
SWIDTH 1056 0
DWIDTH 14 0
BBX 10 2 2 4
BITMAP
E1C0
E1C0
ENDCHAR
STARTCHAR 254E
ENCODING 9550
SWIDTH 1056 0
DWIDTH 14 0
BBX 1 10 7 0
BITMAP
80
80
80
00
00
00
00
80
80
80
ENDCHAR
STARTCHAR 254F
ENCODING 9551
SWIDTH 1056 0
DWIDTH 14 0
BBX 2 10 6 0
BITMAP
C0
C0
C0
00
00
00
00
C0
C0
C0
ENDCHAR
STARTCHAR 2550
ENCODING 9552
SWIDTH 1056 0
DWIDTH 14 0
BBX 14 2 0 4
BITMAP
FFFC
FFFC
ENDCHAR
STARTCHAR 2551
ENCODING 9553
SWIDTH 1056 0
DWIDTH 14 0
BBX 2 14 6 -2
BITMAP
C0
C0
C0
C0
C0
C0
C0
C0
C0
C0
C0
C0
C0
C0
ENDCHAR
STARTCHAR 2552
ENCODING 9554
SWIDTH 1056 0
DWIDTH 14 0
BBX 7 8 7 -2
BITMAP
FE
FE
80
80
80
80
80
80
ENDCHAR
STARTCHAR 2553
ENCODING 9555
SWIDTH 1056 0
DWIDTH 14 0
BBX 8 7 6 -2
BITMAP
FF
C0
C0
C0
C0
C0
C0
ENDCHAR
STARTCHAR 2554
ENCODING 9556
SWIDTH 1056 0
DWIDTH 14 0
BBX 8 8 6 -2
BITMAP
FF
FF
C0
C0
C0
C0
C0
C0
ENDCHAR
STARTCHAR 2555
ENCODING 9557
SWIDTH 1056 0
DWIDTH 14 0
BBX 7 8 0 -2
BITMAP
FE
FE
02
02
02
02
02
02
ENDCHAR
STARTCHAR 2556
ENCODING 9558
SWIDTH 1056 0
DWIDTH 14 0
BBX 8 7 0 -2
BITMAP
FF
03
03
03
03
03
03
ENDCHAR
STARTCHAR 2557
ENCODING 9559
SWIDTH 1056 0
DWIDTH 14 0
BBX 8 8 0 -2
BITMAP
FF
FF
03
03
03
03
03
03
ENDCHAR
STARTCHAR 2558
ENCODING 9560
SWIDTH 1056 0
DWIDTH 14 0
BBX 7 8 7 4
BITMAP
80
80
80
80
80
80
FE
FE
ENDCHAR
STARTCHAR 2559
ENCODING 9561
SWIDTH 1056 0
DWIDTH 14 0
BBX 8 7 6 5
BITMAP
C0
C0
C0
C0
C0
C0
FF
ENDCHAR
STARTCHAR 255A
ENCODING 9562
SWIDTH 1056 0
DWIDTH 14 0
BBX 8 8 6 4
BITMAP
C0
C0
C0
C0
C0
C0
FF
FF
ENDCHAR
STARTCHAR 255B
ENCODING 9563
SWIDTH 1056 0
DWIDTH 14 0
BBX 7 8 0 4
BITMAP
02
02
02
02
02
02
FE
FE
ENDCHAR
STARTCHAR 255C
ENCODING 9564
SWIDTH 1056 0
DWIDTH 14 0
BBX 8 7 0 5
BITMAP
03
03
03
03
03
03
FF
ENDCHAR
STARTCHAR 255D
ENCODING 9565
SWIDTH 1056 0
DWIDTH 14 0
BBX 8 8 0 4
BITMAP
03
03
03
03
03
03
FF
FF
ENDCHAR
STARTCHAR 255E
ENCODING 9566
SWIDTH 1056 0
DWIDTH 14 0
BBX 7 14 7 -2
BITMAP
80
80
80
80
80
80
FE
FE
80
80
80
80
80
80
ENDCHAR
STARTCHAR 255F
ENCODING 9567
SWIDTH 1056 0
DWIDTH 14 0
BBX 8 14 6 -2
BITMAP
C0
C0
C0
C0
C0
C0
FF
C0
C0
C0
C0
C0
C0
C0
ENDCHAR
STARTCHAR 2560
ENCODING 9568
SWIDTH 1056 0
DWIDTH 14 0
BBX 8 14 6 -2
BITMAP
C0
C0
C0
C0
C0
C0
FF
FF
C0
C0
C0
C0
C0
C0
ENDCHAR
STARTCHAR 2561
ENCODING 9569
SWIDTH 1056 0
DWIDTH 14 0
BBX 7 14 0 -2
BITMAP
02
02
02
02
02
02
FE
FE
02
02
02
02
02
02
ENDCHAR
STARTCHAR 2562
ENCODING 9570
SWIDTH 1056 0
DWIDTH 14 0
BBX 8 14 0 -2
BITMAP
03
03
03
03
03
03
FF
03
03
03
03
03
03
03
ENDCHAR
STARTCHAR 2563
ENCODING 9571
SWIDTH 1056 0
DWIDTH 14 0
BBX 8 14 0 -2
BITMAP
03
03
03
03
03
03
FF
FF
03
03
03
03
03
03
ENDCHAR
STARTCHAR 2564
ENCODING 9572
SWIDTH 1056 0
DWIDTH 14 0
BBX 14 8 0 -2
BITMAP
FFFC
FFFC
0100
0100
0100
0100
0100
0100
ENDCHAR
STARTCHAR 2565
ENCODING 9573
SWIDTH 1056 0
DWIDTH 14 0
BBX 14 7 0 -2
BITMAP
FFFC
0300
0300
0300
0300
0300
0300
ENDCHAR
STARTCHAR 2566
ENCODING 9574
SWIDTH 1056 0
DWIDTH 14 0
BBX 14 8 0 -2
BITMAP
FFFC
FFFC
0300
0300
0300
0300
0300
0300
ENDCHAR
STARTCHAR 2567
ENCODING 9575
SWIDTH 1056 0
DWIDTH 14 0
BBX 14 8 0 4
BITMAP
0100
0100
0100
0100
0100
0100
FFFC
FFFC
ENDCHAR
STARTCHAR 2568
ENCODING 9576
SWIDTH 1056 0
DWIDTH 14 0
BBX 14 7 0 5
BITMAP
0300
0300
0300
0300
0300
0300
FFFC
ENDCHAR
STARTCHAR 2569
ENCODING 9577
SWIDTH 1056 0
DWIDTH 14 0
BBX 14 8 0 4
BITMAP
0300
0300
0300
0300
0300
0300
FFFC
FFFC
ENDCHAR
STARTCHAR 256A
ENCODING 9578
SWIDTH 1056 0
DWIDTH 14 0
BBX 14 14 0 -2
BITMAP
0100
0100
0100
0100
0100
0100
FFFC
FFFC
0100
0100
0100
0100
0100
0100
ENDCHAR
STARTCHAR 256B
ENCODING 9579
SWIDTH 1056 0
DWIDTH 14 0
BBX 14 14 0 -2
BITMAP
0300
0300
0300
0300
0300
0300
FFFC
0300
0300
0300
0300
0300
0300
0300
ENDCHAR
STARTCHAR 256C
ENCODING 9580
SWIDTH 1056 0
DWIDTH 14 0
BBX 14 14 0 -2
BITMAP
0300
0300
0300
0300
0300
0300
FFFC
FFFC
0300
0300
0300
0300
0300
0300
ENDCHAR
STARTCHAR 256D
ENCODING 9581
SWIDTH 1056 0
DWIDTH 14 0
BBX 7 7 7 -2
BITMAP
1E
20
40
80
80
80
80
ENDCHAR
STARTCHAR 256E
ENCODING 9582
SWIDTH 1056 0
DWIDTH 14 0
BBX 7 7 0 -2
BITMAP
F0
08
04
02
02
02
02
ENDCHAR
STARTCHAR 256F
ENCODING 9583
SWIDTH 1056 0
DWIDTH 14 0
BBX 7 7 0 5
BITMAP
02
02
02
02
04
08
F0
ENDCHAR
STARTCHAR 2570
ENCODING 9584
SWIDTH 1056 0
DWIDTH 14 0
BBX 7 7 7 5
BITMAP
80
80
80
80
40
30
0E
ENDCHAR
STARTCHAR 2571
ENCODING 9585
SWIDTH 1056 0
DWIDTH 14 0
BBX 14 14 0 -2
BITMAP
0004
0008
0010
0020
0040
0080
0100
0200
0400
0800
1000
2000
4000
8000
ENDCHAR
STARTCHAR 2572
ENCODING 9586
SWIDTH 1056 0
DWIDTH 14 0
BBX 14 14 0 -2
BITMAP
8000
4000
2000
1000
0800
0400
0200
0100
0080
0040
0020
0018
0004
0004
ENDCHAR
STARTCHAR 2573
ENCODING 9587
SWIDTH 1056 0
DWIDTH 14 0
BBX 14 14 0 -2
BITMAP
8004
4008
2010
1020
0840
0480
0300
0300
0480
0840
1020
2018
4004
8004
ENDCHAR
STARTCHAR 2574
ENCODING 9588
SWIDTH 1056 0
DWIDTH 14 0
BBX 7 1 0 5
BITMAP
FE
ENDCHAR
STARTCHAR 2575
ENCODING 9589
SWIDTH 1056 0
DWIDTH 14 0
BBX 1 7 7 5
BITMAP
80
80
80
80
80
80
80
ENDCHAR
STARTCHAR 2576
ENCODING 9590
SWIDTH 1056 0
DWIDTH 14 0
BBX 7 1 7 5
BITMAP
FE
ENDCHAR
STARTCHAR 2577
ENCODING 9591
SWIDTH 1056 0
DWIDTH 14 0
BBX 1 7 7 -2
BITMAP
80
80
80
80
80
80
80
ENDCHAR
STARTCHAR 2578
ENCODING 9592
SWIDTH 1056 0
DWIDTH 14 0
BBX 7 2 0 4
BITMAP
FE
FE
ENDCHAR
STARTCHAR 2579
ENCODING 9593
SWIDTH 1056 0
DWIDTH 14 0
BBX 2 7 6 5
BITMAP
C0
C0
C0
C0
C0
C0
C0
ENDCHAR
STARTCHAR 257A
ENCODING 9594
SWIDTH 1056 0
DWIDTH 14 0
BBX 7 2 7 4
BITMAP
FE
FE
ENDCHAR
STARTCHAR 257B
ENCODING 9595
SWIDTH 1056 0
DWIDTH 14 0
BBX 2 7 6 -2
BITMAP
C0
C0
C0
C0
C0
C0
C0
ENDCHAR
STARTCHAR 257C
ENCODING 9596
SWIDTH 1056 0
DWIDTH 14 0
BBX 14 2 0 4
BITMAP
FFFC
01FC
ENDCHAR
STARTCHAR 257D
ENCODING 9597
SWIDTH 1056 0
DWIDTH 14 0
BBX 2 14 6 -2
BITMAP
40
40
40
40
40
40
40
C0
C0
C0
C0
C0
C0
C0
ENDCHAR
STARTCHAR 257E
ENCODING 9598
SWIDTH 1056 0
DWIDTH 14 0
BBX 14 2 0 4
BITMAP
FFFC
FE00
ENDCHAR
STARTCHAR 257F
ENCODING 9599
SWIDTH 1056 0
DWIDTH 14 0
BBX 2 14 6 -2
BITMAP
C0
C0
C0
C0
C0
C0
C0
40
40
40
40
40
40
40
ENDCHAR
STARTCHAR 2580
ENCODING 9600
SWIDTH 1056 0
DWIDTH 14 0
BBX 14 7 0 5
BITMAP
FFFC
FFFC
FFFC
FFFC
FFFC
FFFC
FFFC
ENDCHAR
STARTCHAR 2581
ENCODING 9601
SWIDTH 1056 0
DWIDTH 14 0
BBX 14 2 0 -2
BITMAP
FFFC
FFFC
ENDCHAR
STARTCHAR 2582
ENCODING 9602
SWIDTH 1056 0
DWIDTH 14 0
BBX 14 4 0 -2
BITMAP
FFFC
FFFC
FFFC
FFFC
ENDCHAR
STARTCHAR 2583
ENCODING 9603
SWIDTH 1056 0
DWIDTH 14 0
BBX 14 5 0 -2
BITMAP
FFFC
FFFC
FFFC
FFFC
FFFC
ENDCHAR
STARTCHAR 2584
ENCODING 9604
SWIDTH 1056 0
DWIDTH 14 0
BBX 14 7 0 -2
BITMAP
FFFC
FFFC
FFFC
FFFC
FFFC
FFFC
FFFC
ENDCHAR
STARTCHAR 2585
ENCODING 9605
SWIDTH 1056 0
DWIDTH 14 0
BBX 14 9 0 -2
BITMAP
FFFC
FFFC
FFFC
FFFC
FFFC
FFFC
FFFC
FFFC
FFFC
ENDCHAR
STARTCHAR 2586
ENCODING 9606
SWIDTH 1056 0
DWIDTH 14 0
BBX 14 10 0 -2
BITMAP
FFFC
FFFC
FFFC
FFFC
FFFC
FFFC
FFFC
FFFC
FFFC
FFFC
ENDCHAR
STARTCHAR 2587
ENCODING 9607
SWIDTH 1056 0
DWIDTH 14 0
BBX 14 12 0 -2
BITMAP
FFFC
FFFC
FFFC
FFFC
FFFC
FFFC
FFFC
FFFC
FFFC
FFFC
FFFC
FFFC
ENDCHAR
STARTCHAR 2588
ENCODING 9608
SWIDTH 1056 0
DWIDTH 14 0
BBX 14 14 0 -2
BITMAP
FFFC
FFFC
FFFC
FFFC
FFFC
FFFC
FFFC
FFFC
FFFC
FFFC
FFFC
FFFC
FFFC
FFFC
ENDCHAR
STARTCHAR 2589
ENCODING 9609
SWIDTH 1056 0
DWIDTH 14 0
BBX 12 14 0 -2
BITMAP
FFF0
FFF0
FFF0
FFF0
FFF0
FFF0
FFF0
FFF0
FFF0
FFF0
FFF0
FFF0
FFF0
FFF0
ENDCHAR
STARTCHAR 258A
ENCODING 9610
SWIDTH 1056 0
DWIDTH 14 0
BBX 11 14 0 -2
BITMAP
FFE0
FFE0
FFE0
FFE0
FFE0
FFE0
FFE0
FFE0
FFE0
FFE0
FFE0
FFE0
FFE0
FFE0
ENDCHAR
STARTCHAR 258B
ENCODING 9611
SWIDTH 1056 0
DWIDTH 14 0
BBX 9 14 0 -2
BITMAP
FF80
FF80
FF80
FF80
FF80
FF80
FF80
FF80
FF80
FF80
FF80
FF80
FF80
FF80
ENDCHAR
STARTCHAR 258C
ENCODING 9612
SWIDTH 1056 0
DWIDTH 14 0
BBX 7 14 0 -2
BITMAP
FE
FE
FE
FE
FE
FE
FE
FE
FE
FE
FE
FE
FE
FE
ENDCHAR
STARTCHAR 258D
ENCODING 9613
SWIDTH 1056 0
DWIDTH 14 0
BBX 5 14 0 -2
BITMAP
F8
F8
F8
F8
F8
F8
F8
F8
F8
F8
F8
F8
F8
F8
ENDCHAR
STARTCHAR 258E
ENCODING 9614
SWIDTH 1056 0
DWIDTH 14 0
BBX 4 14 0 -2
BITMAP
F0
F0
F0
F0
F0
F0
F0
F0
F0
F0
F0
F0
F0
F0
ENDCHAR
STARTCHAR 258F
ENCODING 9615
SWIDTH 1056 0
DWIDTH 14 0
BBX 2 14 0 -2
BITMAP
C0
C0
C0
C0
C0
C0
C0
C0
C0
C0
C0
C0
C0
C0
ENDCHAR
STARTCHAR 2590
ENCODING 9616
SWIDTH 1056 0
DWIDTH 14 0
BBX 7 14 7 -2
BITMAP
FE
FE
FE
FE
FE
FE
FE
FE
FE
FE
FE
FE
FE
FE
ENDCHAR
STARTCHAR 2591
ENCODING 9617
SWIDTH 1056 0
DWIDTH 14 0
BBX 14 14 0 -2
BITMAP
8100
4080
2040
1020
0810
040C
8304
8080
6040
1020
0810
0408
0204
8104
ENDCHAR
STARTCHAR 2592
ENCODING 9618
SWIDTH 1056 0
DWIDTH 14 0
BBX 14 14 0 -2
BITMAP
8910
4488
2244
9124
4890
244C
9324
8890
6448
1224
8910
4488
2244
9124
ENDCHAR
STARTCHAR 2593
ENCODING 9619
SWIDTH 1056 0
DWIDTH 14 0
BBX 14 14 0 -2
BITMAP
AD58
D6AC
ABD4
F56C
5AB4
AD5C
D7AC
AAD4
F56C
5ABC
AD54
D7AC
AAD4
F56C
ENDCHAR
STARTCHAR 2594
ENCODING 9620
SWIDTH 1056 0
DWIDTH 14 0
BBX 14 2 0 10
BITMAP
FFFC
FFFC
ENDCHAR
STARTCHAR 2595
ENCODING 9621
SWIDTH 1056 0
DWIDTH 14 0
BBX 2 14 12 -2
BITMAP
C0
C0
C0
C0
C0
C0
C0
C0
C0
C0
C0
C0
C0
C0
ENDCHAR
STARTCHAR 2596
ENCODING 9622
SWIDTH 1056 0
DWIDTH 14 0
BBX 7 7 0 -2
BITMAP
FE
FE
FE
FE
FE
FE
FE
ENDCHAR
STARTCHAR 2597
ENCODING 9623
SWIDTH 1056 0
DWIDTH 14 0
BBX 7 7 7 -2
BITMAP
FE
FE
FE
FE
FE
FE
FE
ENDCHAR
STARTCHAR 2598
ENCODING 9624
SWIDTH 1056 0
DWIDTH 14 0
BBX 7 7 0 5
BITMAP
FE
FE
FE
FE
FE
FE
FE
ENDCHAR
STARTCHAR 2599
ENCODING 9625
SWIDTH 1056 0
DWIDTH 14 0
BBX 14 14 0 -2
BITMAP
FE00
FE00
FE00
FE00
FE00
FE00
FE00
FFFC
FFFC
FFFC
FFFC
FFFC
FFFC
FFFC
ENDCHAR
STARTCHAR 259A
ENCODING 9626
SWIDTH 1056 0
DWIDTH 14 0
BBX 14 14 0 -2
BITMAP
FE00
FE00
FE00
FE00
FE00
FE00
FE00
01FC
01FC
01FC
01FC
01FC
01FC
01FC
ENDCHAR
STARTCHAR 259B
ENCODING 9627
SWIDTH 1056 0
DWIDTH 14 0
BBX 14 14 0 -2
BITMAP
FFFC
FFFC
FFFC
FFFC
FFFC
FFFC
FFFC
FE00
FE00
FE00
FE00
FE00
FE00
FE00
ENDCHAR
STARTCHAR 259C
ENCODING 9628
SWIDTH 1056 0
DWIDTH 14 0
BBX 14 14 0 -2
BITMAP
FFFC
FFFC
FFFC
FFFC
FFFC
FFFC
FFFC
01FC
01FC
01FC
01FC
01FC
01FC
01FC
ENDCHAR
STARTCHAR 259D
ENCODING 9629
SWIDTH 1056 0
DWIDTH 14 0
BBX 7 7 7 5
BITMAP
FE
FE
FE
FE
FE
FE
FE
ENDCHAR
STARTCHAR 259E
ENCODING 9630
SWIDTH 1056 0
DWIDTH 14 0
BBX 14 14 0 -2
BITMAP
01FC
01FC
01FC
01FC
01FC
01FC
01FC
FE00
FE00
FE00
FE00
FE00
FE00
FE00
ENDCHAR
STARTCHAR 259F
ENCODING 9631
SWIDTH 1056 0
DWIDTH 14 0
BBX 14 14 0 -2
BITMAP
01FC
01FC
01FC
01FC
01FC
01FC
01FC
FFFC
FFFC
FFFC
FFFC
FFFC
FFFC
FFFC
ENDCHAR
STARTCHAR 25A0
ENCODING 9632
SWIDTH 1056 0
DWIDTH 14 0
BBX 12 10 1 0
BITMAP
FFF0
FFF0
FFF0
FFF0
FFF0
FFF0
FFF0
FFF0
FFF0
FFF0
ENDCHAR
STARTCHAR 25A1
ENCODING 9633
SWIDTH 1056 0
DWIDTH 14 0
BBX 12 10 1 0
BITMAP
FFF0
8010
8010
8010
8010
8010
8010
8010
8010
FFF0
ENDCHAR
STARTCHAR 25A2
ENCODING 9634
SWIDTH 1056 0
DWIDTH 14 0
BBX 13 12 1 -1
BITMAP
FFF8
8008
8008
8008
8008
8008
8008
8008
8008
8008
8008
FFF8
ENDCHAR
STARTCHAR 25A3
ENCODING 9635
SWIDTH 1056 0
DWIDTH 14 0
BBX 12 10 1 0
BITMAP
FFF0
8010
8010
8F10
8F10
8F10
8F10
8010
8010
FFF0
ENDCHAR
STARTCHAR 25A4
ENCODING 9636
SWIDTH 1056 0
DWIDTH 14 0
BBX 12 10 1 0
BITMAP
FFF0
8010
FFF0
8010
FFF0
8010
8010
FFF0
8010
FFF0
ENDCHAR
STARTCHAR 25A5
ENCODING 9637
SWIDTH 1056 0
DWIDTH 14 0
BBX 12 10 1 0
BITMAP
FFF0
9290
9290
9290
9290
9290
9290
9290
9290
FFF0
ENDCHAR
STARTCHAR 25A6
ENCODING 9638
SWIDTH 1056 0
DWIDTH 14 0
BBX 12 10 1 0
BITMAP
FFF0
9290
FFF0
9290
FFF0
9290
9290
FFF0
9290
FFF0
ENDCHAR
STARTCHAR 25A7
ENCODING 9639
SWIDTH 1056 0
DWIDTH 14 0
BBX 12 10 1 0
BITMAP
FFF0
A530
9290
C970
A490
DA50
A530
9290
C950
FFF0
ENDCHAR
STARTCHAR 25A8
ENCODING 9640
SWIDTH 1056 0
DWIDTH 14 0
BBX 12 10 1 0
BITMAP
FFF0
C950
9290
AD30
D250
A4B0
C950
9290
A530
FFF0
ENDCHAR
STARTCHAR 25A9
ENCODING 9641
SWIDTH 1056 0
DWIDTH 14 0
BBX 12 10 1 0
BITMAP
FFF0
ED70
9290
ED70
F6D0
F6D0
ED70
9290
ED70
FFF0
ENDCHAR
STARTCHAR 25AA
ENCODING 9642
SWIDTH 1056 0
DWIDTH 14 0
BBX 4 4 5 3
BITMAP
F0
F0
F0
F0
ENDCHAR
STARTCHAR 25AB
ENCODING 9643
SWIDTH 1056 0
DWIDTH 14 0
BBX 4 4 5 3
BITMAP
F0
90
90
F0
ENDCHAR
STARTCHAR 25B1
ENCODING 9649
SWIDTH 1056 0
DWIDTH 14 0
BBX 13 4 1 3
BITMAP
3FF8
4010
8020
FFE0
ENDCHAR
STARTCHAR 25B2
ENCODING 9650
SWIDTH 1056 0
DWIDTH 14 0
BBX 14 11 0 0
BITMAP
0100
0300
0380
0780
0FC0
0FE0
1FE0
1FF0
3FF0
7FF8
FFFC
ENDCHAR
STARTCHAR 25B3
ENCODING 9651
SWIDTH 1056 0
DWIDTH 14 0
BBX 14 11 0 0
BITMAP
0100
0300
0480
0440
0840
1020
1020
2010
2008
4008
FFFC
ENDCHAR
STARTCHAR 25B6
ENCODING 9654
SWIDTH 1056 0
DWIDTH 14 0
BBX 11 12 2 -1
BITMAP
8000
E000
F800
FE00
FF80
FFC0
FFE0
FF80
FE00
F800
E000
8000
ENDCHAR
STARTCHAR 25B7
ENCODING 9655
SWIDTH 1056 0
DWIDTH 14 0
BBX 11 12 2 -1
BITMAP
C000
A000
9800
8600
8180
8040
8060
8180
8600
9800
A000
C000
ENDCHAR
STARTCHAR 25BC
ENCODING 9660
SWIDTH 1056 0
DWIDTH 14 0
BBX 14 11 0 -1
BITMAP
FFFC
7FF8
3FF0
1FF0
1FE0
0FC0
0FC0
0780
0380
0300
0100
ENDCHAR
STARTCHAR 25BD
ENCODING 9661
SWIDTH 1056 0
DWIDTH 14 0
BBX 14 11 0 -1
BITMAP
FFFC
4008
2008
2010
1020
0820
0840
0480
0480
0300
0100
ENDCHAR
STARTCHAR 25C0
ENCODING 9664
SWIDTH 1056 0
DWIDTH 14 0
BBX 12 12 1 -1
BITMAP
0030
00F0
03F0
07F0
1FF0
7FF0
FFF0
1FF0
07F0
03F0
00F0
0030
ENDCHAR
STARTCHAR 25C1
ENCODING 9665
SWIDTH 1056 0
DWIDTH 14 0
BBX 12 12 1 -1
BITMAP
0030
00D0
0310
0C10
3010
4010
C010
3010
0C10
0310
00D0
0030
ENDCHAR
STARTCHAR 25C6
ENCODING 9670
SWIDTH 1056 0
DWIDTH 14 0
BBX 14 13 0 -1
BITMAP
0100
0300
0780
0FC0
1FE0
3FF0
FFFC
7FFC
3FF0
1FE0
0FC0
0780
0300
ENDCHAR
STARTCHAR 25C7
ENCODING 9671
SWIDTH 1056 0
DWIDTH 14 0
BBX 14 13 0 -1
BITMAP
0100
0300
04C0
0820
1010
2008
C004
4004
2008
1010
0860
0480
0300
ENDCHAR
STARTCHAR 25C9
ENCODING 9673
SWIDTH 1056 0
DWIDTH 14 0
BBX 13 12 1 -1
BITMAP
1F80
2060
4F10
9F90
BFC8
BFC8
BFC8
BFC8
9F90
4F10
2060
1F80
ENDCHAR
STARTCHAR 25CA
ENCODING 9674
SWIDTH 1056 0
DWIDTH 14 0
BBX 7 10 4 0
BITMAP
10
30
48
44
84
82
84
48
28
30
ENDCHAR
STARTCHAR 25CB
ENCODING 9675
SWIDTH 1056 0
DWIDTH 14 0
BBX 13 12 1 -1
BITMAP
1F80
2060
4010
8010
8008
8008
8008
8008
8010
4010
2060
1F80
ENDCHAR
STARTCHAR 25CC
ENCODING 9676
SWIDTH 1056 0
DWIDTH 14 0
BBX 13 12 1 -1
BITMAP
1500
4040
0020
8000
0010
8008
8000
0010
8000
0020
4040
1500
ENDCHAR
STARTCHAR 25CE
ENCODING 9678
SWIDTH 1056 0
DWIDTH 14 0
BBX 13 12 1 -1
BITMAP
1F80
2060
4F90
9050
A048
A028
A028
A048
9050
4F90
2060
1F80
ENDCHAR
STARTCHAR 25CF
ENCODING 9679
SWIDTH 1056 0
DWIDTH 14 0
BBX 13 12 1 -1
BITMAP
0F80
3FC0
7FE0
FFF0
FFF0
FFF8
FFF8
FFF0
FFF0
7FE0
3FC0
0F80
ENDCHAR
STARTCHAR 25D0
ENCODING 9680
SWIDTH 1056 0
DWIDTH 14 0
BBX 12 12 1 -1
BITMAP
0F80
3C40
7C20
FC10
FC10
FC10
FC10
FC10
FC10
7C20
3C40
0F80
ENDCHAR
STARTCHAR 25D1
ENCODING 9681
SWIDTH 1056 0
DWIDTH 14 0
BBX 12 12 1 -1
BITMAP
1F00
23C0
43E0
83F0
83F0
83F0
83F0
83F0
83F0
43E0
23C0
1F00
ENDCHAR
STARTCHAR 25D2
ENCODING 9682
SWIDTH 1056 0
DWIDTH 14 0
BBX 12 12 1 -1
BITMAP
1F80
2040
4020
8010
8010
8010
FFF0
FFF0
FFF0
7FE0
3FC0
0F00
ENDCHAR
STARTCHAR 25D3
ENCODING 9683
SWIDTH 1056 0
DWIDTH 14 0
BBX 12 12 1 -1
BITMAP
0F00
3FC0
7FE0
FFF0
FFF0
FFF0
8010
8010
8010
4020
2040
1F80
ENDCHAR
STARTCHAR 25E2
ENCODING 9698
SWIDTH 1056 0
DWIDTH 14 0
BBX 14 14 0 -2
BITMAP
0004
0004
000C
001C
003C
007C
00FC
01FC
07FC
0FFC
1FFC
3FFC
7FFC
FFFC
ENDCHAR
STARTCHAR 25E3
ENCODING 9699
SWIDTH 1056 0
DWIDTH 14 0
BBX 14 14 0 -2
BITMAP
8000
8000
C000
E000
F000
FC00
FE00
FF00
FF80
FFC0
FFE0
FFF0
FFF8
FFFC
ENDCHAR
STARTCHAR 25E4
ENCODING 9700
SWIDTH 1056 0
DWIDTH 14 0
BBX 14 14 0 -2
BITMAP
FFFC
FFF8
FFF0
FFE0
FFC0
FF80
FF00
FE00
F800
F000
E000
C000
8000
8000
ENDCHAR
STARTCHAR 25E5
ENCODING 9701
SWIDTH 1056 0
DWIDTH 14 0
BBX 14 14 0 -2
BITMAP
FFFC
7FFC
3FFC
1FFC
0FFC
03FC
01FC
00FC
007C
003C
001C
000C
0004
0004
ENDCHAR
STARTCHAR 25E6
ENCODING 9702
SWIDTH 1056 0
DWIDTH 14 0
BBX 4 4 5 3
BITMAP
70
90
90
70
ENDCHAR
STARTCHAR 25EF
ENCODING 9711
SWIDTH 1056 0
DWIDTH 14 0
BBX 13 12 1 -1
BITMAP
1FC0
6020
8010
8010
8008
8008
8008
8008
8010
4010
2020
1FC0
ENDCHAR
STARTCHAR 2600
ENCODING 9728
SWIDTH 1056 0
DWIDTH 14 0
BBX 14 12 0 -1
BITMAP
0300
2010
17B0
0FC0
1FE0
DFEC
9FE4
1FE0
0FC0
13B0
2010
0300
ENDCHAR
STARTCHAR 2601
ENCODING 9729
SWIDTH 1056 0
DWIDTH 14 0
BBX 13 9 1 0
BITMAP
3E00
41E0
7110
8010
8010
8028
9010
7820
07C0
ENDCHAR
STARTCHAR 2602
ENCODING 9730
SWIDTH 1056 0
DWIDTH 14 0
BBX 12 12 1 -1
BITMAP
0440
3F80
7FE0
8FE0
0FF0
02F0
04F0
0410
0810
5000
9000
6000
ENDCHAR
STARTCHAR 2603
ENCODING 9731
SWIDTH 1056 0
DWIDTH 14 0
BBX 14 12 0 -1
BITMAP
03C0
07C0
0860
14A0
372C
D3A8
2FF0
2068
2348
2008
2308
1FF0
ENDCHAR
STARTCHAR 2605
ENCODING 9733
SWIDTH 1056 0
DWIDTH 14 0
BBX 13 12 1 -1
BITMAP
0200
0200
0600
0600
8708
7FF0
3FC0
0F80
1F80
1980
30C0
2040
ENDCHAR
STARTCHAR 2606
ENCODING 9734
SWIDTH 1056 0
DWIDTH 14 0
BBX 13 12 1 -1
BITMAP
0200
0200
0600
0500
B9C8
4030
2040
1080
1080
1F40
30C0
2040
ENDCHAR
STARTCHAR 2609
ENCODING 9737
SWIDTH 1056 0
DWIDTH 14 0
BBX 8 8 3 1
BITMAP
3C
42
81
99
89
81
42
3C
ENDCHAR
STARTCHAR 260E
ENCODING 9742
SWIDTH 1056 0
DWIDTH 14 0
BBX 13 9 1 0
BITMAP
7FE0
C9B0
E9B8
DFD8
30C0
7060
70E0
78F0
7FE0
ENDCHAR
STARTCHAR 260F
ENCODING 9743
SWIDTH 1056 0
DWIDTH 14 0
BBX 14 9 0 0
BITMAP
7FF8
9BE4
9CE4
FBDC
1460
2850
4848
4488
3FF8
ENDCHAR
STARTCHAR 2616
ENCODING 9750
SWIDTH 1056 0
DWIDTH 14 0
BBX 12 12 1 -1
BITMAP
0600
1980
2040
4020
4020
4020
4020
4020
4020
8010
8010
FFF0
ENDCHAR
STARTCHAR 2617
ENCODING 9751
SWIDTH 1056 0
DWIDTH 14 0
BBX 12 12 1 -1
BITMAP
0600
0F00
3FC0
7FE0
7FE0
7FE0
7FE0
7FE0
7FE0
7FE0
7FE0
FFF0
ENDCHAR
STARTCHAR 261C
ENCODING 9756
SWIDTH 1056 0
DWIDTH 14 0
BBX 14 6 0 2
BITMAP
7FE0
841C
7B84
16E4
0984
0FFC
ENDCHAR
STARTCHAR 261D
ENCODING 9757
SWIDTH 1056 0
DWIDTH 14 0
BBX 7 12 4 -1
BITMAP
E0
A0
B0
A8
EE
B6
BA
96
92
52
44
7C
ENDCHAR
STARTCHAR 261E
ENCODING 9758
SWIDTH 1056 0
DWIDTH 14 0
BBX 14 6 0 2
BITMAP
1FF8
E084
8778
9DE0
8220
FFC0
ENDCHAR
STARTCHAR 261F
ENCODING 9759
SWIDTH 1056 0
DWIDTH 14 0
BBX 7 12 4 -1
BITMAP
7C
44
52
92
BE
BA
B6
EE
A8
B0
A0
40
ENDCHAR
STARTCHAR 262F
ENCODING 9775
SWIDTH 1056 0
DWIDTH 14 0
BBX 14 12 0 -1
BITMAP
0FE0
1FD0
3FC8
7EC4
7FC4
FF84
F804
7004
7308
3108
1010
0FE0
ENDCHAR
STARTCHAR 2640
ENCODING 9792
SWIDTH 1056 0
DWIDTH 14 0
BBX 9 12 3 -1
BITMAP
3C00
4200
4200
4200
2400
1800
0800
FF80
0800
0800
0800
0800
ENDCHAR
STARTCHAR 2641
ENCODING 9793
SWIDTH 1056 0
DWIDTH 14 0
BBX 9 12 3 -1
BITMAP
0800
0800
0800
0800
FF80
0800
1800
2400
4200
4200
4200
3C00
ENDCHAR
STARTCHAR 2642
ENCODING 9794
SWIDTH 1056 0
DWIDTH 14 0
BBX 10 10 2 0
BITMAP
07C0
00C0
0140
0240
2440
D800
8800
8400
8800
7000
ENDCHAR
STARTCHAR 2660
ENCODING 9824
SWIDTH 1056 0
DWIDTH 14 0
BBX 12 12 1 -1
BITMAP
0600
0700
0F80
3FC0
7FE0
7FF0
FFF0
FFF0
FFF0
7BE0
0600
0F00
ENDCHAR
STARTCHAR 2661
ENCODING 9825
SWIDTH 1056 0
DWIDTH 14 0
BBX 12 12 1 -1
BITMAP
38C0
4530
8210
8010
8010
8010
4020
2040
1080
0900
0600
0200
ENDCHAR
STARTCHAR 2662
ENCODING 9826
SWIDTH 1056 0
DWIDTH 14 0
BBX 10 12 2 -1
BITMAP
0400
0A00
1200
2100
4080
8040
8040
4080
2100
1200
0C00
0400
ENDCHAR
STARTCHAR 2663
ENCODING 9827
SWIDTH 1056 0
DWIDTH 14 0
BBX 12 12 1 -1
BITMAP
0600
0F80
1F80
1F80
0F80
7FE0
FFF0
FFF0
FFF0
7BE0
0600
0F00
ENDCHAR
STARTCHAR 2664
ENCODING 9828
SWIDTH 1056 0
DWIDTH 14 0
BBX 12 12 1 -1
BITMAP
0600
0900
1080
2040
4020
8010
8010
8010
8610
7FE0
0600
0F00
ENDCHAR
STARTCHAR 2665
ENCODING 9829
SWIDTH 1056 0
DWIDTH 14 0
BBX 12 12 1 -1
BITMAP
1040
7DE0
FFF0
FFF0
FFF0
7FF0
7FE0
3FC0
1F80
0F00
0600
0200
ENDCHAR
STARTCHAR 2666
ENCODING 9830
SWIDTH 1056 0
DWIDTH 14 0
BBX 10 12 2 -1
BITMAP
0400
0C00
1E00
3F00
7F80
FFC0
7FC0
3F80
3F00
1E00
0C00
0400
ENDCHAR
STARTCHAR 2667
ENCODING 9831
SWIDTH 1056 0
DWIDTH 14 0
BBX 12 12 1 -1
BITMAP
0700
1880
1080
1080
1080
6970
8010
8010
8610
5FB0
2640
0F00
ENDCHAR
STARTCHAR 2668
ENCODING 9832
SWIDTH 1056 0
DWIDTH 14 0
BBX 12 11 1 0
BITMAP
0200
1480
1480
1480
1480
1280
4A70
9290
8410
4020
3FC0
ENDCHAR
STARTCHAR 2669
ENCODING 9833
SWIDTH 1056 0
DWIDTH 14 0
BBX 4 12 4 -1
BITMAP
10
10
10
10
10
10
10
10
10
70
F0
E0
ENDCHAR
STARTCHAR 266A
ENCODING 9834
SWIDTH 1056 0
DWIDTH 14 0
BBX 7 12 4 -1
BITMAP
10
10
18
1C
12
12
12
12
14
70
E0
E0
ENDCHAR
STARTCHAR 266B
ENCODING 9835
SWIDTH 1056 0
DWIDTH 14 0
BBX 12 12 0 -1
BITMAP
0070
0FF0
0F90
1010
1010
1010
1010
1010
1070
30F0
7040
F000
ENDCHAR
STARTCHAR 266C
ENCODING 9836
SWIDTH 1056 0
DWIDTH 14 0
BBX 12 12 0 -1
BITMAP
00F0
0FD0
0870
0FF0
0C10
1010
1010
1010
1070
30F0
7040
F000
ENDCHAR
STARTCHAR 266D
ENCODING 9837
SWIDTH 1056 0
DWIDTH 14 0
BBX 5 12 5 -1
BITMAP
80
80
80
80
90
E8
88
88
90
A0
C0
80
ENDCHAR
STARTCHAR 266E
ENCODING 9838
SWIDTH 1056 0
DWIDTH 14 0
BBX 5 12 5 -1
BITMAP
80
80
80
F8
88
88
88
B8
C8
08
08
08
ENDCHAR
STARTCHAR 266F
ENCODING 9839
SWIDTH 1056 0
DWIDTH 14 0
BBX 8 12 3 -1
BITMAP
04
24
24
27
FC
24
24
7F
A4
24
24
20
ENDCHAR
STARTCHAR 2672
ENCODING 9842
SWIDTH 1056 0
DWIDTH 14 0
BBX 14 12 0 -1
BITMAP
0FC0
1330
2310
1DE0
F418
5064
8824
9054
7EF8
6308
2310
1CE0
ENDCHAR
STARTCHAR 2673
ENCODING 9843
SWIDTH 1056 0
DWIDTH 14 0
BBX 14 12 0 -1
BITMAP
0380
0480
0C50
0860
11A0
6330
3118
6108
410C
C08C
7EF8
0080
ENDCHAR
STARTCHAR 2674
ENCODING 9844
SWIDTH 1056 0
DWIDTH 14 0
BBX 14 12 0 -1
BITMAP
0380
0480
0C50
0860
13A0
65B0
3118
6308
478C
C08C
7EF8
0080
ENDCHAR
STARTCHAR 2675
ENCODING 9845
SWIDTH 1056 0
DWIDTH 14 0
BBX 14 12 0 -1
BITMAP
0380
0480
0C50
0860
13A0
67B0
3318
6588
430C
C08C
7EF8
0080
ENDCHAR
STARTCHAR 2676
ENCODING 9846
SWIDTH 1056 0
DWIDTH 14 0
BBX 14 12 0 -1
BITMAP
0380
0480
0C50
0860
11A0
6330
3518
6788
410C
C08C
7EF8
0080
ENDCHAR
STARTCHAR 2677
ENCODING 9847
SWIDTH 1056 0
DWIDTH 14 0
BBX 14 12 0 -1
BITMAP
0380
0480
0C50
0860
13A0
6230
3318
6588
430C
C08C
7EF8
0080
ENDCHAR
STARTCHAR 2678
ENCODING 9848
SWIDTH 1056 0
DWIDTH 14 0
BBX 14 12 0 -1
BITMAP
0380
0480
0C50
0860
13A0
66B0
3718
6688
430C
C08C
7EF8
0080
ENDCHAR
STARTCHAR 2679
ENCODING 9849
SWIDTH 1056 0
DWIDTH 14 0
BBX 14 12 0 -1
BITMAP
0380
0480
0C50
0860
17A0
6130
3118
6308
420C
C08C
7EF8
0080
ENDCHAR
STARTCHAR 267A
ENCODING 9850
SWIDTH 1056 0
DWIDTH 14 0
BBX 14 12 0 -1
BITMAP
0380
0480
0C50
0860
10A0
6030
3018
6008
400C
C08C
7EF8
0080
ENDCHAR
STARTCHAR 267B
ENCODING 9851
SWIDTH 1056 0
DWIDTH 14 0
BBX 14 12 0 -1
BITMAP
0FC0
1FF0
1CE0
3DE0
F418
7038
F83C
605C
7EF8
5FF0
3EF0
0080
ENDCHAR
STARTCHAR 267C
ENCODING 9852
SWIDTH 1056 0
DWIDTH 14 0
BBX 14 12 0 -1
BITMAP
0FC0
3230
3118
6318
7BEC
C78C
8FC4
4FFC
7108
2118
3F70
0FC0
ENDCHAR
STARTCHAR 267D
ENCODING 9853
SWIDTH 1056 0
DWIDTH 14 0
BBX 14 12 0 -1
BITMAP
1FE0
27D0
4FE8
5CC4
8D14
B874
B43C
B094
6EF4
5FE8
2090
1FE0
ENDCHAR
STARTCHAR 26A0
ENCODING 9888
SWIDTH 1056 0
DWIDTH 14 0
BBX 12 11 1 0
BITMAP
0600
0900
1080
1280
2240
2220
4220
8010
8210
8010
FFF0
ENDCHAR
STARTCHAR 26BD
ENCODING 9917
SWIDTH 1056 0
DWIDTH 14 0
BBX 14 12 0 -1
BITMAP
0FE0
3110
2108
4108
739C
4FE4
8784
8784
4444
3858
1870
0FC0
ENDCHAR
STARTCHAR 26BE
ENCODING 9918
SWIDTH 1056 0
DWIDTH 14 0
BBX 13 12 1 -1
BITMAP
1F80
2060
5010
8890
8908
8908
8908
8008
8890
4010
2060
1F80
ENDCHAR
STARTCHAR 2702
ENCODING 9986
SWIDTH 1056 0
DWIDTH 14 0
BBX 13 10 1 0
BITMAP
E000
9008
D030
30C0
0F00
0F00
30C0
D038
9000
E000
ENDCHAR
STARTCHAR 2713
ENCODING 10003
SWIDTH 679 0
DWIDTH 9 0
BBX 9 10 0 0
BITMAP
0080
0100
0200
0200
0400
0800
8800
5000
5000
2000
ENDCHAR
STARTCHAR 271A
ENCODING 10010
SWIDTH 1056 0
DWIDTH 14 0
BBX 12 12 1 -1
BITMAP
0700
0700
0700
0700
0700
FFF0
FFF0
0700
0700
0700
0700
0700
ENDCHAR
STARTCHAR 273D
ENCODING 10045
SWIDTH 1056 0
DWIDTH 14 0
BBX 9 10 3 0
BITMAP
0800
0800
8880
4B00
3400
3C00
CB00
0880
0800
0800
ENDCHAR
STARTCHAR 273F
ENCODING 10047
SWIDTH 1056 0
DWIDTH 14 0
BBX 14 12 0 -1
BITMAP
0780
0780
6788
7338
7F78
FCFC
0000
0FC0
1EF0
3CF8
0CE0
0C40
ENDCHAR
STARTCHAR 2740
ENCODING 10048
SWIDTH 1056 0
DWIDTH 14 0
BBX 14 12 0 -1
BITMAP
07C0
0440
6498
5CA8
47C8
8284
7CF8
1B60
2310
4308
34B0
0C40
ENDCHAR
STARTCHAR 2756
ENCODING 10070
SWIDTH 1056 0
DWIDTH 14 0
BBX 14 12 0 -1
BITMAP
0300
0780
07C0
0300
3030
F87C
7878
3030
0300
07C0
0780
0300
ENDCHAR
STARTCHAR 2776
ENCODING 10102
SWIDTH 1056 0
DWIDTH 14 0
BBX 13 12 1 -1
BITMAP
1F80
3FE0
7FF0
FDF0
FDF8
FDF8
FDF8
FDF0
FDF0
7FE0
3FE0
1F80
ENDCHAR
STARTCHAR 2777
ENCODING 10103
SWIDTH 1056 0
DWIDTH 14 0
BBX 13 12 1 -1
BITMAP
1F80
3FE0
79F0
FFF0
FFF8
FEF8
FFF8
FBF0
F7F0
7FE0
3FE0
1F80
ENDCHAR
STARTCHAR 2778
ENCODING 10104
SWIDTH 1056 0
DWIDTH 14 0
BBX 13 12 1 -1
BITMAP
1F80
3FE0
79F0
FFF0
FFF8
F9F8
FFF8
FF70
FFF0
7FE0
3FE0
1F80
ENDCHAR
STARTCHAR 2779
ENCODING 10105
SWIDTH 1056 0
DWIDTH 14 0
BBX 13 12 1 -1
BITMAP
1F80
3FE0
7FF0
FDF0
FBF8
F7F8
EFF8
FFF0
FFF0
7FE0
3FE0
1F80
ENDCHAR
STARTCHAR 277A
ENCODING 10106
SWIDTH 1056 0
DWIDTH 14 0
BBX 13 12 1 -1
BITMAP
1F80
3FE0
7FF0
F7F0
F7F8
F2F8
FF78
FF70
FFF0
7FE0
3FE0
1F80
ENDCHAR
STARTCHAR 277B
ENCODING 10107
SWIDTH 1056 0
DWIDTH 14 0
BBX 13 12 1 -1
BITMAP
1F80
3FE0
79F0
F7F0
FFF8
E8F8
EFF8
FFF0
F6F0
7FE0
3FE0
1F80
ENDCHAR
STARTCHAR 277C
ENCODING 10108
SWIDTH 1056 0
DWIDTH 14 0
BBX 13 12 1 -1
BITMAP
1F80
3FE0
7FF0
FEF0
FFF8
FDF8
FFF8
FFF0
FBF0
7FE0
3FE0
1F80
ENDCHAR
STARTCHAR 277D
ENCODING 10109
SWIDTH 1056 0
DWIDTH 14 0
BBX 13 12 1 -1
BITMAP
1F80
3FE0
79F0
F7F0
F7F8
FBF8
F6F8
FF70
F7F0
7FE0
3FE0
1F80
ENDCHAR
STARTCHAR 277E
ENCODING 10110
SWIDTH 1056 0
DWIDTH 14 0
BBX 13 12 1 -1
BITMAP
1F80
3FE0
79F0
F7F0
FF78
F778
F978
FF70
FEF0
7FE0
3FE0
1F80
ENDCHAR
STARTCHAR 277F
ENCODING 10111
SWIDTH 1056 0
DWIDTH 14 0
BBX 13 12 1 -1
BITMAP
1F80
3FE0
7EF0
EDF0
EFB8
EFB8
EFB8
EFB0
EDF0
7FE0
3FE0
1F80
ENDCHAR
STARTCHAR 2780
ENCODING 10112
SWIDTH 1056 0
DWIDTH 14 0
BBX 13 12 1 -1
BITMAP
1FC0
6020
8210
8610
8208
8208
8208
8208
8210
4010
2060
1F80
ENDCHAR
STARTCHAR 2781
ENCODING 10113
SWIDTH 1056 0
DWIDTH 14 0
BBX 13 12 1 -1
BITMAP
1FC0
6020
8610
8910
8088
8108
8208
8408
8810
4790
2060
1F80
ENDCHAR
STARTCHAR 2782
ENCODING 10114
SWIDTH 1056 0
DWIDTH 14 0
BBX 13 12 1 -1
BITMAP
1FC0
6020
8610
8910
8108
8608
8108
8088
9910
4610
2060
1F80
ENDCHAR
STARTCHAR 2783
ENCODING 10115
SWIDTH 1056 0
DWIDTH 14 0
BBX 13 12 1 -1
BITMAP
1FC0
6020
8110
8210
8508
8908
9108
8F88
8110
4010
2060
1F80
ENDCHAR
STARTCHAR 2784
ENCODING 10116
SWIDTH 1056 0
DWIDTH 14 0
BBX 13 12 1 -1
BITMAP
1FC0
6020
8710
8810
8808
8F08
8088
8088
9910
4610
2060
1F80
ENDCHAR
STARTCHAR 2785
ENCODING 10117
SWIDTH 1056 0
DWIDTH 14 0
BBX 13 12 1 -1
BITMAP
1FC0
6020
8710
8810
9008
9F08
9108
9088
8910
4610
2060
1F80
ENDCHAR
STARTCHAR 2786
ENCODING 10118
SWIDTH 1056 0
DWIDTH 14 0
BBX 13 12 1 -1
BITMAP
1FC0
6020
8F90
8110
8208
8208
8208
8408
8410
4010
2060
1F80
ENDCHAR
STARTCHAR 2787
ENCODING 10119
SWIDTH 1056 0
DWIDTH 14 0
BBX 13 12 1 -1
BITMAP
1FC0
6020
8610
8910
8888
8708
8908
9088
8990
4610
2060
1F80
ENDCHAR
STARTCHAR 2788
ENCODING 10120
SWIDTH 1056 0
DWIDTH 14 0
BBX 13 12 1 -1
BITMAP
1FC0
6020
8610
8910
8888
8988
8688
8088
8910
4610
2060
1F80
ENDCHAR
STARTCHAR 2789
ENCODING 10121
SWIDTH 1056 0
DWIDTH 14 0
BBX 13 12 1 -1
BITMAP
1FC0
6020
9190
B250
9448
9448
9448
9248
9290
4110
2060
1F80
ENDCHAR
STARTCHAR 278A
ENCODING 10122
SWIDTH 1056 0
DWIDTH 14 0
BBX 13 12 1 -1
BITMAP
1F80
3FE0
7FF0
FDF0
FDF8
FDF8
FDF8
FDF0
FDF0
7FE0
3FE0
1F80
ENDCHAR
STARTCHAR 278B
ENCODING 10123
SWIDTH 1056 0
DWIDTH 14 0
BBX 13 12 1 -1
BITMAP
1F80
3FE0
79F0
FFF0
FFF8
FEF8
FFF8
FBF0
F7F0
7FE0
3FE0
1F80
ENDCHAR
STARTCHAR 278C
ENCODING 10124
SWIDTH 1056 0
DWIDTH 14 0
BBX 13 12 1 -1
BITMAP
1F80
3FE0
79F0
FFF0
FFF8
F9F8
FFF8
FF70
FFF0
7FE0
3FE0
1F80
ENDCHAR
STARTCHAR 278D
ENCODING 10125
SWIDTH 1056 0
DWIDTH 14 0
BBX 13 12 1 -1
BITMAP
1F80
3FE0
7FF0
FDF0
FBF8
F7F8
EFF8
FFF0
FFF0
7FE0
3FE0
1F80
ENDCHAR
STARTCHAR 278E
ENCODING 10126
SWIDTH 1056 0
DWIDTH 14 0
BBX 13 12 1 -1
BITMAP
1F80
3FE0
7FF0
F7F0
F7F8
F2F8
FF78
FF70
FFF0
7FE0
3FE0
1F80
ENDCHAR
STARTCHAR 278F
ENCODING 10127
SWIDTH 1056 0
DWIDTH 14 0
BBX 13 12 1 -1
BITMAP
1F80
3FE0
79F0
F7F0
FFF8
E8F8
EFF8
FFF0
F6F0
7FE0
3FE0
1F80
ENDCHAR
STARTCHAR 2790
ENCODING 10128
SWIDTH 1056 0
DWIDTH 14 0
BBX 13 12 1 -1
BITMAP
1F80
3FE0
7FF0
FEF0
FFF8
FDF8
FFF8
FFF0
FBF0
7FE0
3FE0
1F80
ENDCHAR
STARTCHAR 2791
ENCODING 10129
SWIDTH 1056 0
DWIDTH 14 0
BBX 13 12 1 -1
BITMAP
1F80
3FE0
79F0
F7F0
F7F8
FBF8
F6F8
FF70
F7F0
7FE0
3FE0
1F80
ENDCHAR
STARTCHAR 2792
ENCODING 10130
SWIDTH 1056 0
DWIDTH 14 0
BBX 13 12 1 -1
BITMAP
1F80
3FE0
79F0
F7F0
FF78
F778
F978
FF70
FEF0
7FE0
3FE0
1F80
ENDCHAR
STARTCHAR 2793
ENCODING 10131
SWIDTH 1056 0
DWIDTH 14 0
BBX 13 12 1 -1
BITMAP
1F80
3FE0
7EF0
EDF0
EFB8
EFB8
EFB8
EFB0
EDF0
7FE0
3FE0
1F80
ENDCHAR
STARTCHAR 27A1
ENCODING 10145
SWIDTH 1056 0
DWIDTH 14 0
BBX 13 9 1 1
BITMAP
0100
0180
01C0
FFE0
FFF8
FFF0
FFE0
01C0
0100
ENDCHAR
STARTCHAR 2934
ENCODING 10548
SWIDTH 1056 0
DWIDTH 14 0
BBX 13 12 1 -1
BITMAP
0040
00E0
0150
0248
0040
0040
0080
0080
0100
0200
0C00
F000
ENDCHAR
STARTCHAR 2935
ENCODING 10549
SWIDTH 1056 0
DWIDTH 14 0
BBX 13 12 1 -1
BITMAP
F000
0C00
0200
0100
0080
0080
0040
0040
0248
0150
00E0
0040
ENDCHAR
STARTCHAR 29BF
ENCODING 10687
SWIDTH 1056 0
DWIDTH 14 0
BBX 13 12 1 -1
BITMAP
1F80
2060
4010
8010
8F08
8F08
8F08
8F08
8010
4010
2060
1F80
ENDCHAR
STARTCHAR 29FA
ENCODING 10746
SWIDTH 1056 0
DWIDTH 14 0
BBX 10 10 2 0
BITMAP
1200
1200
1200
1200
FFC0
1200
1200
1200
1200
1200
ENDCHAR
STARTCHAR 29FB
ENCODING 10747
SWIDTH 1056 0
DWIDTH 14 0
BBX 10 10 2 0
BITMAP
2500
2500
2500
2500
FFC0
2500
2500
2500
2500
2500
ENDCHAR
STARTCHAR 2B05
ENCODING 11013
SWIDTH 1056 0
DWIDTH 14 0
BBX 14 9 0 1
BITMAP
0200
0400
0C00
3FFC
FFFC
7FFC
3FFC
0C00
0400
ENDCHAR
STARTCHAR 2B06
ENCODING 11014
SWIDTH 1056 0
DWIDTH 14 0
BBX 10 12 2 -1
BITMAP
0C00
0E00
1F00
3F80
FFC0
1E00
1E00
1E00
1E00
1E00
1E00
1E00
ENDCHAR
STARTCHAR 2B07
ENCODING 11015
SWIDTH 1056 0
DWIDTH 14 0
BBX 10 12 2 -1
BITMAP
1E00
1E00
1E00
1E00
1E00
1E00
1E00
FFC0
3F80
1F00
0E00
0400
ENDCHAR
STARTCHAR 2B1A
ENCODING 11034
SWIDTH 1056 0
DWIDTH 14 0
BBX 13 12 1 -1
BITMAP
AD58
0000
8008
0000
8008
0000
8008
8008
0000
8008
0000
AD58
ENDCHAR
STARTCHAR 2B95
ENCODING 11157
SWIDTH 1056 0
DWIDTH 14 0
BBX 13 9 1 1
BITMAP
0100
0180
01C0
FFE0
FFF8
FFF0
FFE0
01C0
0100
ENDCHAR
STARTCHAR 2E3A
ENCODING 11834
SWIDTH 1811 0
DWIDTH 24 0
BBX 22 1 1 3
BITMAP
FFFFFC
ENDCHAR
STARTCHAR 2E3B
ENCODING 11835
SWIDTH 2641 0
DWIDTH 35 0
BBX 33 1 1 3
BITMAP
FFFFFFFF80
ENDCHAR
STARTCHAR 2E80
ENCODING 11904
SWIDTH 1056 0
DWIDTH 14 0
BBX 6 5 4 4
BITMAP
F0
0C
80
70
0C
ENDCHAR
STARTCHAR 2E81
ENCODING 11905
SWIDTH 1056 0
DWIDTH 14 0
BBX 11 12 1 -1
BITMAP
00E0
7F00
4000
4000
4000
4000
4000
4000
4000
4000
8000
8000
ENDCHAR
STARTCHAR 2E82
ENCODING 11906
SWIDTH 1056 0
DWIDTH 14 0
BBX 11 3 2 7
BITMAP
FFE0
0040
0040
ENDCHAR
STARTCHAR 2E83
ENCODING 11907
SWIDTH 1056 0
DWIDTH 14 0
BBX 9 11 3 0
BITMAP
8000
8000
8000
8000
8000
8000
8000
8000
8080
8080
FF80
ENDCHAR
STARTCHAR 2E84
ENCODING 11908
SWIDTH 1056 0
DWIDTH 14 0
BBX 13 11 1 -1
BITMAP
FFC0
0040
0040
0040
0040
0040
0040
0040
0028
0028
0010
ENDCHAR
STARTCHAR 2E85
ENCODING 11909
SWIDTH 1056 0
DWIDTH 14 0
BBX 5 12 1 -1
BITMAP
08
08
10
20
20
50
90
10
10
10
10
10
ENDCHAR
STARTCHAR 2E86
ENCODING 11910
SWIDTH 1056 0
DWIDTH 14 0
BBX 11 11 1 -1
BITMAP
3FE0
2020
2020
2020
2020
2020
2020
2020
4020
4020
80E0
ENDCHAR
STARTCHAR 2E87
ENCODING 11911
SWIDTH 1056 0
DWIDTH 14 0
BBX 13 11 1 -1
BITMAP
3FE0
2020
2020
2020
2020
4020
4020
4020
4028
8028
8010
ENDCHAR
STARTCHAR 2E88
ENCODING 11912
SWIDTH 1056 0
DWIDTH 14 0
BBX 10 6 1 5
BITMAP
0400
0FC0
1040
2080
C100
0100
ENDCHAR
STARTCHAR 2E89
ENCODING 11913
SWIDTH 1056 0
DWIDTH 14 0
BBX 5 12 7 -1
BITMAP
08
08
88
88
88
88
88
88
88
08
08
38
ENDCHAR
STARTCHAR 2E8A
ENCODING 11914
SWIDTH 1056 0
DWIDTH 14 0
BBX 5 12 6 -1
BITMAP
80
80
80
80
80
F8
80
80
80
80
80
80
ENDCHAR
STARTCHAR 2E8B
ENCODING 11915
SWIDTH 1056 0
DWIDTH 14 0
BBX 11 10 3 0
BITMAP
FF80
8080
8080
8080
8080
8780
8000
8000
8020
FFC0
ENDCHAR
STARTCHAR 2E8C
ENCODING 11916
SWIDTH 1056 0
DWIDTH 14 0
BBX 10 5 2 6
BITMAP
0400
8440
4440
4480
0400
ENDCHAR
STARTCHAR 2E8D
ENCODING 11917
SWIDTH 1056 0
DWIDTH 14 0
BBX 12 5 1 6
BITMAP
0800
8410
4420
2440
0080
ENDCHAR
STARTCHAR 2E8E
ENCODING 11918
SWIDTH 1056 0
DWIDTH 14 0
BBX 13 11 1 -1
BITMAP
FFF0
1080
1080
1080
1080
1080
1080
2080
2088
4088
80F0
ENDCHAR
STARTCHAR 2E8F
ENCODING 11919
SWIDTH 1056 0
DWIDTH 14 0
BBX 12 12 1 -1
BITMAP
0900
1080
1060
2010
C010
0900
1100
1100
1100
1110
2110
C0E0
ENDCHAR
STARTCHAR 2E90
ENCODING 11920
SWIDTH 1056 0
DWIDTH 14 0
BBX 13 12 1 -1
BITMAP
0400
0400
0400
FFF0
0400
0600
0600
0A00
0A00
1208
2208
C1F0
ENDCHAR
STARTCHAR 2E91
ENCODING 11921
SWIDTH 1056 0
DWIDTH 14 0
BBX 13 12 1 -1
BITMAP
0900
10C0
6020
8F10
1080
1080
1080
1080
1080
2088
6088
8070
ENDCHAR
STARTCHAR 2E92
ENCODING 11922
SWIDTH 1056 0
DWIDTH 14 0
BBX 11 11 2 -1
BITMAP
FFC0
8040
8040
8040
FFC0
8040
8000
8000
8020
8020
7FC0
ENDCHAR
STARTCHAR 2E93
ENCODING 11923
SWIDTH 1056 0
DWIDTH 14 0
BBX 11 11 2 0
BITMAP
0800
1000
1000
2180
4200
FC00
0800
1100
2080
40C0
FF20
ENDCHAR
STARTCHAR 2E94
ENCODING 11924
SWIDTH 1056 0
DWIDTH 14 0
BBX 12 11 1 0
BITMAP
0800
0800
1F80
1040
1040
2040
2040
3F80
0080
0080
FFF0
ENDCHAR
STARTCHAR 2E95
ENCODING 11925
SWIDTH 1056 0
DWIDTH 14 0
BBX 10 11 2 -1
BITMAP
FFC0
0040
0040
0040
FFC0
0040
0040
0040
0040
FFC0
0040
ENDCHAR
STARTCHAR 2E96
ENCODING 11926
SWIDTH 1056 0
DWIDTH 14 0
BBX 6 12 1 -1
BITMAP
10
10
18
54
54
90
10
10
10
10
10
10
ENDCHAR
STARTCHAR 2E97
ENCODING 11927
SWIDTH 1056 0
DWIDTH 14 0
BBX 10 6 2 -1
BITMAP
0800
4A80
4A40
8940
8800
3000
ENDCHAR
STARTCHAR 2E98
ENCODING 11928
SWIDTH 1056 0
DWIDTH 14 0
BBX 6 12 1 -1
BITMAP
10
10
10
FC
10
10
3C
D0
10
10
10
60
ENDCHAR
STARTCHAR 2E99
ENCODING 11929
SWIDTH 1056 0
DWIDTH 14 0
BBX 13 12 1 -1
BITMAP
0800
1000
1FB0
2040
6040
9080
8880
0900
0600
0D00
30C0
C038
ENDCHAR
STARTCHAR 2E9B
ENCODING 11931
SWIDTH 1056 0
DWIDTH 14 0
BBX 13 11 1 -1
BITMAP
7FF0
4200
4400
8400
FFF0
0600
0600
0A00
0A08
3208
C1F0
ENDCHAR
STARTCHAR 2E9C
ENCODING 11932
SWIDTH 1056 0
DWIDTH 14 0
BBX 10 5 2 5
BITMAP
FFC0
8040
FFC0
8040
FFC0
ENDCHAR
STARTCHAR 2E9D
ENCODING 11933
SWIDTH 1056 0
DWIDTH 14 0
BBX 6 11 2 -1
BITMAP
FC
84
84
FC
84
84
FC
84
84
84
9C
ENDCHAR
STARTCHAR 2E9E
ENCODING 11934
SWIDTH 1056 0
DWIDTH 14 0
BBX 11 12 2 -1
BITMAP
0400
07E0
0400
1400
1FC0
2040
5080
8C80
0300
0400
1800
6000
ENDCHAR
STARTCHAR 2E9F
ENCODING 11935
SWIDTH 1056 0
DWIDTH 14 0
BBX 12 11 1 -1
BITMAP
3FE0
2620
2120
2020
DFF0
4820
4620
4120
7FF0
0040
03C0
ENDCHAR
STARTCHAR 2EA0
ENCODING 11936
SWIDTH 1056 0
DWIDTH 14 0
BBX 12 11 1 -1
BITMAP
FFE0
8020
FBE0
8400
8400
FFF0
8200
8200
8110
9890
E060
ENDCHAR
STARTCHAR 2EA1
ENCODING 11937
SWIDTH 1056 0
DWIDTH 14 0
BBX 5 12 1 -1
BITMAP
40
30
00
00
C0
20
00
08
10
20
40
40
ENDCHAR
STARTCHAR 2EA2
ENCODING 11938
SWIDTH 1056 0
DWIDTH 14 0
BBX 13 12 1 -1
BITMAP
0200
0200
4210
2220
12C0
0200
0300
1A80
6260
8218
0200
1C00
ENDCHAR
STARTCHAR 2EA3
ENCODING 11939
SWIDTH 1056 0
DWIDTH 14 0
BBX 13 4 1 -1
BITMAP
4920
4920
8890
8888
ENDCHAR
STARTCHAR 2EA4
ENCODING 11940
SWIDTH 1056 0
DWIDTH 14 0
BBX 11 5 1 6
BITMAP
0FE0
F020
4420
2440
0080
ENDCHAR
STARTCHAR 2EA5
ENCODING 11941
SWIDTH 1056 0
DWIDTH 14 0
BBX 13 6 1 5
BITMAP
0DE0
3240
2240
2240
4220
8218
ENDCHAR
STARTCHAR 2EA6
ENCODING 11942
SWIDTH 1056 0
DWIDTH 14 0
BBX 4 12 4 -1
BITMAP
10
10
90
50
30
10
10
30
D0
10
10
10
ENDCHAR
STARTCHAR 2EA7
ENCODING 11943
SWIDTH 1056 0
DWIDTH 14 0
BBX 12 6 1 5
BITMAP
1200
2200
3FE0
4200
8200
FFF0
ENDCHAR
STARTCHAR 2EA8
ENCODING 11944
SWIDTH 1056 0
DWIDTH 14 0
BBX 6 12 1 -1
BITMAP
44
28
10
68
88
08
14
24
C4
08
08
30
ENDCHAR
STARTCHAR 2EA9
ENCODING 11945
SWIDTH 1056 0
DWIDTH 14 0
BBX 7 10 1 0
BITMAP
FC
10
10
10
FC
10
10
10
1E
E0
ENDCHAR
STARTCHAR 2EAA
ENCODING 11946
SWIDTH 1056 0
DWIDTH 14 0
BBX 7 10 1 0
BITMAP
7E
08
10
50
5E
50
50
50
56
F8
ENDCHAR
STARTCHAR 2EAB
ENCODING 11947
SWIDTH 1056 0
DWIDTH 14 0
BBX 11 5 2 5
BITMAP
FFE0
9220
9220
FFE0
8020
ENDCHAR
STARTCHAR 2EAC
ENCODING 11948
SWIDTH 1056 0
DWIDTH 14 0
BBX 6 11 1 -1
BITMAP
78
00
00
FC
10
58
94
94
90
10
60
ENDCHAR
STARTCHAR 2EAD
ENCODING 11949
SWIDTH 1056 0
DWIDTH 14 0
BBX 6 12 1 -1
BITMAP
20
10
7C
04
08
10
38
54
90
10
10
10
ENDCHAR
STARTCHAR 2EAE
ENCODING 11950
SWIDTH 1056 0
DWIDTH 14 0
BBX 14 4 0 7
BITMAP
1080
3EFC
2920
C710
ENDCHAR
STARTCHAR 2EAF
ENCODING 11951
SWIDTH 1056 0
DWIDTH 14 0
BBX 6 12 1 -1
BITMAP
20
20
48
90
E0
48
BC
C4
A4
94
94
80
ENDCHAR
STARTCHAR 2EB0
ENCODING 11952
SWIDTH 1056 0
DWIDTH 14 0
BBX 6 11 1 0
BITMAP
08
10
20
24
68
90
20
5C
A0
00
FC
ENDCHAR
STARTCHAR 2EB1
ENCODING 11953
SWIDTH 1056 0
DWIDTH 14 0
BBX 11 4 2 6
BITMAP
FFE0
B220
8E20
F120
ENDCHAR
STARTCHAR 2EB2
ENCODING 11954
SWIDTH 1056 0
DWIDTH 14 0
BBX 11 5 2 5
BITMAP
FFE0
9220
9220
FFE0
8020
ENDCHAR
STARTCHAR 2EB3
ENCODING 11955
SWIDTH 1056 0
DWIDTH 14 0
BBX 11 5 2 5
BITMAP
FFE0
8020
9120
60C0
8020
ENDCHAR
STARTCHAR 2EB4
ENCODING 11956
SWIDTH 1056 0
DWIDTH 14 0
BBX 13 11 1 -1
BITMAP
FFF0
8890
8890
0880
0880
1080
1080
1080
2088
4088
80F0
ENDCHAR
STARTCHAR 2EB5
ENCODING 11957
SWIDTH 1056 0
DWIDTH 14 0
BBX 12 6 1 2
BITMAP
FFF0
8890
8890
8890
8890
8890
ENDCHAR
STARTCHAR 2EB6
ENCODING 11958
SWIDTH 1056 0
DWIDTH 14 0
BBX 12 10 1 1
BITMAP
1080
7DF0
0200
0400
7FE0
0400
FBF0
1000
2000
C000
ENDCHAR
STARTCHAR 2EB7
ENCODING 11959
SWIDTH 1056 0
DWIDTH 14 0
BBX 12 7 1 4
BITMAP
1040
0880
7770
0200
7FE0
0200
FFF0
ENDCHAR
STARTCHAR 2EB8
ENCODING 11960
SWIDTH 1056 0
DWIDTH 14 0
BBX 12 12 1 -1
BITMAP
0900
0900
79E0
0900
0000
FFF0
0200
0200
7FE0
0200
0200
0200
ENDCHAR
STARTCHAR 2EB9
ENCODING 11961
SWIDTH 1056 0
DWIDTH 14 0
BBX 12 10 1 0
BITMAP
0410
0420
7FC0
0480
FDF0
0200
0C00
1000
6000
8000
ENDCHAR
STARTCHAR 2EBA
ENCODING 11962
SWIDTH 1056 0
DWIDTH 14 0
BBX 13 12 1 -1
BITMAP
0200
7FE0
0220
FFF8
0220
7FE0
0200
0200
0200
0200
0200
0200
ENDCHAR
STARTCHAR 2EBB
ENCODING 11963
SWIDTH 1056 0
DWIDTH 14 0
BBX 13 8 1 3
BITMAP
0200
7FE0
0220
FFF8
0220
7FE0
0200
7FE0
ENDCHAR
STARTCHAR 2EBC
ENCODING 11964
SWIDTH 1056 0
DWIDTH 14 0
BBX 6 11 1 -1
BITMAP
7C
44
74
4C
44
4C
B4
C4
84
84
9C
ENDCHAR
STARTCHAR 2EBD
ENCODING 11965
SWIDTH 1056 0
DWIDTH 14 0
BBX 11 12 2 -1
BITMAP
1800
63E0
8020
8020
8020
F3E0
8020
8020
8020
8020
F3E0
8020
ENDCHAR
STARTCHAR 2EBE
ENCODING 11966
SWIDTH 1056 0
DWIDTH 14 0
BBX 12 4 1 6
BITMAP
1080
FFF0
1080
1080
ENDCHAR
STARTCHAR 2EBF
ENCODING 11967
SWIDTH 1056 0
DWIDTH 14 0
BBX 12 5 1 6
BITMAP
1040
1040
FFF0
1040
1040
ENDCHAR
STARTCHAR 2EC0
ENCODING 11968
SWIDTH 1056 0
DWIDTH 14 0
BBX 12 5 1 6
BITMAP
0900
0900
F9F0
0900
0900
ENDCHAR
STARTCHAR 2EC1
ENCODING 11969
SWIDTH 1056 0
DWIDTH 14 0
BBX 13 12 1 -1
BITMAP
0400
07E0
3FE0
4010
47C0
7C00
47E0
4000
4F80
4880
8888
B0F0
ENDCHAR
STARTCHAR 2EC2
ENCODING 11970
SWIDTH 1056 0
DWIDTH 14 0
BBX 7 12 1 -1
BITMAP
10
10
7C
04
08
12
3C
54
92
10
10
10
ENDCHAR
STARTCHAR 2EC3
ENCODING 11971
SWIDTH 1056 0
DWIDTH 14 0
BBX 12 6 1 5
BITMAP
FFF0
0900
7FE0
8910
8910
F6F0
ENDCHAR
STARTCHAR 2EC4
ENCODING 11972
SWIDTH 1056 0
DWIDTH 14 0
BBX 12 11 1 -1
BITMAP
FFF0
0900
7FE0
8910
8910
8930
91F0
A010
8010
FFF0
8010
ENDCHAR
STARTCHAR 2EC5
ENCODING 11973
SWIDTH 1056 0
DWIDTH 14 0
BBX 12 11 1 -1
BITMAP
3FE0
2020
2420
2420
2420
2420
2620
0600
0A10
3210
C1F0
ENDCHAR
STARTCHAR 2EC6
ENCODING 11974
SWIDTH 1056 0
DWIDTH 14 0
BBX 11 12 1 -1
BITMAP
0800
1780
2100
5EE0
A220
3FE0
2220
4220
3FE0
4220
4220
82E0
ENDCHAR
STARTCHAR 2EC7
ENCODING 11975
SWIDTH 1056 0
DWIDTH 14 0
BBX 11 12 1 -1
BITMAP
0800
1780
2100
5EE0
A220
25A0
3860
4220
4520
58E0
4020
80E0
ENDCHAR
STARTCHAR 2EC8
ENCODING 11976
SWIDTH 1056 0
DWIDTH 14 0
BBX 6 11 1 0
BITMAP
40
20
10
00
E0
10
10
10
10
1C
30
ENDCHAR
STARTCHAR 2EC9
ENCODING 11977
SWIDTH 1056 0
DWIDTH 14 0
BBX 12 11 1 -1
BITMAP
3FE0
2220
2220
2220
2220
2220
2420
0400
0900
30C0
C030
ENDCHAR
STARTCHAR 2ECA
ENCODING 11978
SWIDTH 1056 0
DWIDTH 14 0
BBX 6 10 1 0
BITMAP
FC
84
84
7C
20
A0
BC
A0
A0
FC
ENDCHAR
STARTCHAR 2ECB
ENCODING 11979
SWIDTH 1056 0
DWIDTH 14 0
BBX 12 12 1 -1
BITMAP
0800
0800
F7F0
1000
2200
2200
5FE0
0200
FFF0
0200
0200
0200
ENDCHAR
STARTCHAR 2ECC
ENCODING 11980
SWIDTH 1056 0
DWIDTH 14 0
BBX 13 11 1 0
BITMAP
4000
2000
2000
0000
E000
2000
2000
2000
2000
2000
DFF8
ENDCHAR
STARTCHAR 2ECD
ENCODING 11981
SWIDTH 1056 0
DWIDTH 14 0
BBX 13 12 1 -1
BITMAP
C000
2000
0000
C000
2000
0000
E000
2000
2000
2000
5000
8FF8
ENDCHAR
STARTCHAR 2ECE
ENCODING 11982
SWIDTH 1056 0
DWIDTH 14 0
BBX 13 12 1 -1
BITMAP
8000
4000
0000
E000
4000
4000
E000
2000
2000
4000
6000
9FF8
ENDCHAR
STARTCHAR 2ECF
ENCODING 11983
SWIDTH 1056 0
DWIDTH 14 0
BBX 5 11 8 -1
BITMAP
F8
88
90
A0
90
88
88
88
B8
80
80
ENDCHAR
STARTCHAR 2ED0
ENCODING 11984
SWIDTH 1056 0
DWIDTH 14 0
BBX 7 12 1 -1
BITMAP
20
7E
80
80
7C
20
FC
20
20
20
3C
20
ENDCHAR
STARTCHAR 2ED1
ENCODING 11985
SWIDTH 1056 0
DWIDTH 14 0
BBX 13 11 1 -1
BITMAP
3FE0
3FE0
2000
3FE0
2000
FFF0
2430
2240
2180
2EC0
3038
ENDCHAR
STARTCHAR 2ED2
ENCODING 11986
SWIDTH 1056 0
DWIDTH 14 0
BBX 12 11 1 -1
BITMAP
3FE0
3FC0
2000
3FE0
2000
F7F0
0800
1040
1040
3FE0
4010
ENDCHAR
STARTCHAR 2ED3
ENCODING 11987
SWIDTH 1056 0
DWIDTH 14 0
BBX 13 12 1 -1
BITMAP
1020
1040
1180
1200
1400
FFF0
1200
1100
1100
10C0
1620
3818
ENDCHAR
STARTCHAR 2ED4
ENCODING 11988
SWIDTH 1056 0
DWIDTH 14 0
BBX 12 12 1 -1
BITMAP
4FE0
2010
9010
8010
8010
8010
8010
8010
8010
8010
8010
80F0
ENDCHAR
STARTCHAR 2ED5
ENCODING 11989
SWIDTH 1056 0
DWIDTH 14 0
BBX 8 12 4 -1
BITMAP
10
7C
82
82
FC
FE
82
FE
FF
81
FF
81
ENDCHAR
STARTCHAR 2ED6
ENCODING 11990
SWIDTH 1056 0
DWIDTH 14 0
BBX 5 11 2 -1
BITMAP
F8
90
A0
A0
90
88
88
88
F0
80
80
ENDCHAR
STARTCHAR 2ED7
ENCODING 11991
SWIDTH 1056 0
DWIDTH 14 0
BBX 12 5 1 5
BITMAP
7FE0
FFF0
8210
BBF0
7BE0
ENDCHAR
STARTCHAR 2ED8
ENCODING 11992
SWIDTH 1056 0
DWIDTH 14 0
BBX 12 12 1 -1
BITMAP
0200
7FF0
7FE0
0200
FFF0
0000
3FE0
3FE0
2020
3FC0
2020
20E0
ENDCHAR
STARTCHAR 2ED9
ENCODING 11993
SWIDTH 1056 0
DWIDTH 14 0
BBX 12 12 1 -1
BITMAP
0400
FFF0
0400
0400
7FE0
0400
0400
FFF0
0410
0410
04E0
0400
ENDCHAR
STARTCHAR 2EDA
ENCODING 11994
SWIDTH 1056 0
DWIDTH 14 0
BBX 12 11 1 -1
BITMAP
FFF0
0400
3FE0
4020
4220
4220
4220
4420
0580
1860
E010
ENDCHAR
STARTCHAR 2EDB
ENCODING 11995
SWIDTH 1056 0
DWIDTH 14 0
BBX 13 11 1 -1
BITMAP
7FE0
40A0
5120
4920
4620
4220
4520
48A0
50A8
A058
8010
ENDCHAR
STARTCHAR 2EDC
ENCODING 11996
SWIDTH 1056 0
DWIDTH 14 0
BBX 13 10 1 0
BITMAP
FF00
0110
00A0
00C0
00C0
00A0
0090
0080
0048
0078
ENDCHAR
STARTCHAR 2EDD
ENCODING 11997
SWIDTH 1056 0
DWIDTH 14 0
BBX 13 12 1 -1
BITMAP
0200
0500
1CC0
7FB0
A048
3FC0
2040
3BC0
2460
2380
2640
3820
ENDCHAR
STARTCHAR 2EDE
ENCODING 11998
SWIDTH 1056 0
DWIDTH 14 0
BBX 6 12 1 -1
BITMAP
20
58
A4
78
84
FC
FC
80
FC
80
FC
80
ENDCHAR
STARTCHAR 2EDF
ENCODING 11999
SWIDTH 1056 0
DWIDTH 14 0
BBX 6 12 1 -1
BITMAP
20
58
A4
10
E8
F8
88
78
90
88
F4
80
ENDCHAR
STARTCHAR 2EE0
ENCODING 12000
SWIDTH 1056 0
DWIDTH 14 0
BBX 7 12 1 -1
BITMAP
20
20
3E
44
54
90
10
10
10
14
18
20
ENDCHAR
STARTCHAR 2EE1
ENCODING 12001
SWIDTH 1056 0
DWIDTH 14 0
BBX 12 12 1 -1
BITMAP
2220
4440
C440
4220
2220
DDD0
7FE0
4020
7FE0
7FE0
4020
7FE0
ENDCHAR
STARTCHAR 2EE2
ENCODING 12002
SWIDTH 1056 0
DWIDTH 14 0
BBX 12 11 1 -1
BITMAP
7FC0
0040
2040
2040
2040
1FB0
0010
FF90
0010
0020
01E0
ENDCHAR
STARTCHAR 2EE3
ENCODING 12003
SWIDTH 1056 0
DWIDTH 14 0
BBX 12 11 1 -1
BITMAP
3FC0
3E40
2240
DDB0
9F90
2040
3FC0
2040
3FC0
2040
21C0
ENDCHAR
STARTCHAR 2EE4
ENCODING 12004
SWIDTH 1056 0
DWIDTH 14 0
BBX 13 12 1 -1
BITMAP
0400
7FE0
4420
7FE0
4420
4420
7FE0
0680
0AA0
13E0
2208
C3F0
ENDCHAR
STARTCHAR 2EE5
ENCODING 12005
SWIDTH 1056 0
DWIDTH 14 0
BBX 12 11 1 0
BITMAP
0800
1F80
2100
7FE0
C220
4220
3FE0
4220
4220
3DC0
FFF0
ENDCHAR
STARTCHAR 2EE6
ENCODING 12006
SWIDTH 1056 0
DWIDTH 14 0
BBX 12 12 1 -1
BITMAP
0400
3FC0
2040
2C40
2240
2180
3FF0
0010
FF90
0010
0010
00E0
ENDCHAR
STARTCHAR 2EE7
ENCODING 12007
SWIDTH 1056 0
DWIDTH 14 0
BBX 11 12 2 -1
BITMAP
0400
07E0
0400
FFE0
8120
B120
8A20
8E20
9120
E0A0
8020
FFE0
ENDCHAR
STARTCHAR 2EE8
ENCODING 12008
SWIDTH 1056 0
DWIDTH 14 0
BBX 13 12 1 -1
BITMAP
0200
7FF0
0200
7FE0
0200
FDF0
1F80
3040
C880
0700
1980
E078
ENDCHAR
STARTCHAR 2EE9
ENCODING 12009
SWIDTH 1056 0
DWIDTH 14 0
BBX 12 12 1 -1
BITMAP
1080
7FF0
1080
FFF0
0200
3FE0
4220
3FE0
4220
3FE0
10C0
E030
ENDCHAR
STARTCHAR 2EEA
ENCODING 12010
SWIDTH 1056 0
DWIDTH 14 0
BBX 12 11 2 -1
BITMAP
FFC0
8040
7FC0
0400
FFC0
FFC0
8440
FFC0
8410
0410
07E0
ENDCHAR
STARTCHAR 2EEB
ENCODING 12011
SWIDTH 1056 0
DWIDTH 14 0
BBX 13 12 1 -1
BITMAP
0400
FFF0
1080
0900
1F80
E078
3FC0
2040
3FC0
2040
4040
8040
ENDCHAR
STARTCHAR 2EEC
ENCODING 12012
SWIDTH 1056 0
DWIDTH 14 0
BBX 13 12 1 -1
BITMAP
0400
FFF0
1080
0900
0600
39C0
D0B8
1080
1080
1080
2080
4080
ENDCHAR
STARTCHAR 2EED
ENCODING 12013
SWIDTH 1056 0
DWIDTH 14 0
BBX 12 12 1 -1
BITMAP
0200
23E0
2200
FFF0
4250
5290
7BD0
4610
4B10
72D0
4010
7FF0
ENDCHAR
STARTCHAR 2EEE
ENCODING 12014
SWIDTH 1056 0
DWIDTH 14 0
BBX 12 12 1 -1
BITMAP
0200
23E0
2200
2200
FFF0
4210
4410
4710
4890
5050
7FF0
0010
ENDCHAR
STARTCHAR 2EEF
ENCODING 12015
SWIDTH 1056 0
DWIDTH 14 0
BBX 13 12 1 -1
BITMAP
0200
7FF0
1080
FFF8
0000
7FE0
4220
7FE0
4220
7FE0
0208
03F0
ENDCHAR
STARTCHAR 2EF0
ENCODING 12016
SWIDTH 1056 0
DWIDTH 14 0
BBX 13 12 1 -1
BITMAP
0880
0840
0820
FFF0
0A00
0A20
1240
1280
1100
2600
5A08
81F0
ENDCHAR
STARTCHAR 2EF1
ENCODING 12017
SWIDTH 1056 0
DWIDTH 14 0
BBX 13 12 1 -1
BITMAP
0400
7FE0
4020
78E0
0500
FDF0
15B0
6550
75B0
F9F0
7508
07F0
ENDCHAR
STARTCHAR 2EF2
ENCODING 12018
SWIDTH 1056 0
DWIDTH 14 0
BBX 12 12 1 -1
BITMAP
1000
2F00
7FE0
C220
7FE0
7FE0
3FE0
4210
7FF0
4210
7FF0
03F0
ENDCHAR
STARTCHAR 2EF3
ENCODING 12019
SWIDTH 1056 0
DWIDTH 14 0
BBX 13 12 1 -1
BITMAP
1000
1F80
2100
FFE0
4420
4420
7FE0
4420
7FE0
4408
0408
03F0
ENDCHAR
STARTCHAR 2F00
ENCODING 12032
SWIDTH 1056 0
DWIDTH 14 0
BBX 13 1 1 5
BITMAP
FFF8
ENDCHAR
STARTCHAR 2F01
ENCODING 12033
SWIDTH 1056 0
DWIDTH 14 0
BBX 1 12 7 -1
BITMAP
80
80
80
80
80
80
80
80
80
80
80
80
ENDCHAR
STARTCHAR 2F02
ENCODING 12034
SWIDTH 1056 0
DWIDTH 14 0
BBX 6 5 4 3
BITMAP
C0
20
10
08
04
ENDCHAR
STARTCHAR 2F03
ENCODING 12035
SWIDTH 1056 0
DWIDTH 14 0
BBX 5 12 3 -1
BITMAP
08
08
08
08
08
08
08
08
08
10
20
C0
ENDCHAR
STARTCHAR 2F04
ENCODING 12036
SWIDTH 1056 0
DWIDTH 14 0
BBX 12 10 1 0
BITMAP
FFC0
0080
0100
0600
0800
1000
2000
4010
8010
FFF0
ENDCHAR
STARTCHAR 2F05
ENCODING 12037
SWIDTH 1056 0
DWIDTH 14 0
BBX 3 12 4 -1
BITMAP
20
20
20
20
20
20
20
20
20
20
20
E0
ENDCHAR
STARTCHAR 2F06
ENCODING 12038
SWIDTH 1056 0
DWIDTH 14 0
BBX 12 8 1 1
BITMAP
7FE0
0000
0000
0000
0000
0000
0000
FFF0
ENDCHAR
STARTCHAR 2F07
ENCODING 12039
SWIDTH 1056 0
DWIDTH 14 0
BBX 12 3 1 8
BITMAP
0400
0400
FFF0
ENDCHAR
STARTCHAR 2F08
ENCODING 12040
SWIDTH 1056 0
DWIDTH 14 0
BBX 13 12 1 -1
BITMAP
0200
0200
0200
0200
0600
0500
0500
0900
1080
1040
6020
8018
ENDCHAR
STARTCHAR 2F09
ENCODING 12041
SWIDTH 1056 0
DWIDTH 14 0
BBX 13 11 1 -1
BITMAP
1080
1080
1080
1080
1080
1080
2080
2088
2088
4088
8070
ENDCHAR
STARTCHAR 2F0A
ENCODING 12042
SWIDTH 1056 0
DWIDTH 14 0
BBX 13 11 1 -1
BITMAP
3E00
0200
0200
0600
0600
0900
0900
1080
2040
4020
8018
ENDCHAR
STARTCHAR 2F0B
ENCODING 12043
SWIDTH 1056 0
DWIDTH 14 0
BBX 13 11 1 -1
BITMAP
1300
1100
1100
1080
1080
1080
2040
2040
4020
4020
8018
ENDCHAR
STARTCHAR 2F0C
ENCODING 12044
SWIDTH 1056 0
DWIDTH 14 0
BBX 11 11 2 -1
BITMAP
FFE0
8020
8020
8020
8020
8020
8020
8020
8020
8020
81E0
ENDCHAR
STARTCHAR 2F0D
ENCODING 12045
SWIDTH 1056 0
DWIDTH 14 0
BBX 12 3 1 4
BITMAP
FFF0
8010
8010
ENDCHAR
STARTCHAR 2F0E
ENCODING 12046
SWIDTH 1056 0
DWIDTH 14 0
BBX 4 10 1 0
BITMAP
40
20
10
00
00
10
10
20
40
80
ENDCHAR
STARTCHAR 2F0F
ENCODING 12047
SWIDTH 1056 0
DWIDTH 14 0
BBX 13 11 1 -1
BITMAP
1F80
1080
1080
1080
1080
1080
2080
2080
2088
4088
8070
ENDCHAR
STARTCHAR 2F10
ENCODING 12048
SWIDTH 1056 0
DWIDTH 14 0
BBX 11 11 2 -1
BITMAP
8020
8020
8020
8020
8020
8020
8020
8020
8020
FFE0
0020
ENDCHAR
STARTCHAR 2F11
ENCODING 12049
SWIDTH 1056 0
DWIDTH 14 0
BBX 12 10 1 -1
BITMAP
FFF0
0410
0810
0810
0810
0810
1010
1010
2020
C1E0
ENDCHAR
STARTCHAR 2F12
ENCODING 12050
SWIDTH 1056 0
DWIDTH 14 0
BBX 12 12 1 -1
BITMAP
0400
0400
0400
FFF0
0410
0410
0810
0810
1010
2020
4020
81E0
ENDCHAR
STARTCHAR 2F13
ENCODING 12051
SWIDTH 1056 0
DWIDTH 14 0
BBX 12 12 1 -1
BITMAP
1000
1000
3FF0
2010
4010
8010
8010
0010
0010
0010
0010
01E0
ENDCHAR
STARTCHAR 2F14
ENCODING 12052
SWIDTH 1056 0
DWIDTH 14 0
BBX 10 12 3 -1
BITMAP
8000
8000
8000
8000
FF80
8000
8000
8000
8040
8040
8040
7F80
ENDCHAR
STARTCHAR 2F15
ENCODING 12053
SWIDTH 1056 0
DWIDTH 14 0
BBX 11 10 2 0
BITMAP
FFC0
8000
8000
8000
8000
8000
8000
8000
8000
FFE0
ENDCHAR
STARTCHAR 2F16
ENCODING 12054
SWIDTH 1056 0
DWIDTH 14 0
BBX 12 9 1 0
BITMAP
FFF0
4000
4000
4000
4000
4000
4000
4000
7FF0
ENDCHAR
STARTCHAR 2F17
ENCODING 12055
SWIDTH 1056 0
DWIDTH 14 0
BBX 12 12 1 -1
BITMAP
0200
0200
0200
0200
0200
FFF0
0200
0200
0200
0200
0200
0200
ENDCHAR
STARTCHAR 2F18
ENCODING 12056
SWIDTH 1056 0
DWIDTH 14 0
BBX 7 12 6 -1
BITMAP
80
80
80
80
C0
B0
8C
82
80
80
80
80
ENDCHAR
STARTCHAR 2F19
ENCODING 12057
SWIDTH 1056 0
DWIDTH 14 0
BBX 6 11 4 -1
BITMAP
FC
84
84
84
84
84
84
9C
80
80
80
ENDCHAR
STARTCHAR 2F1A
ENCODING 12058
SWIDTH 1056 0
DWIDTH 14 0
BBX 12 11 1 -1
BITMAP
7FF0
4000
4000
4000
4000
4000
4000
4000
8000
8000
8000
ENDCHAR
STARTCHAR 2F1B
ENCODING 12059
SWIDTH 1056 0
DWIDTH 14 0
BBX 11 10 2 0
BITMAP
0800
0800
1000
1000
2000
2080
4080
4040
FFC0
0020
ENDCHAR
STARTCHAR 2F1C
ENCODING 12060
SWIDTH 1056 0
DWIDTH 14 0
BBX 13 11 1 -1
BITMAP
FFE0
2020
2040
1040
1080
0900
0600
0600
0900
30C0
C038
ENDCHAR
STARTCHAR 2F1D
ENCODING 12061
SWIDTH 1056 0
DWIDTH 14 0
BBX 10 11 2 -1
BITMAP
FFC0
8040
8040
8040
8040
8040
8040
8040
8040
FFC0
8000
ENDCHAR
STARTCHAR 2F1E
ENCODING 12062
SWIDTH 1056 0
DWIDTH 14 0
BBX 11 11 2 -1
BITMAP
FFE0
8020
8020
8020
8020
8020
8020
8020
8020
FFE0
8020
ENDCHAR
STARTCHAR 2F1F
ENCODING 12063
SWIDTH 1056 0
DWIDTH 14 0
BBX 12 11 1 0
BITMAP
0200
0200
0200
0200
7FF0
0200
0200
0200
0200
0200
FFF0
ENDCHAR
STARTCHAR 2F20
ENCODING 12064
SWIDTH 1056 0
DWIDTH 14 0
BBX 12 11 1 0
BITMAP
0200
0200
0200
0200
FFF0
0200
0200
0200
0200
0200
7FF0
ENDCHAR
STARTCHAR 2F21
ENCODING 12065
SWIDTH 1056 0
DWIDTH 14 0
BBX 13 12 1 -1
BITMAP
0800
0800
1FC0
2040
3040
5080
8900
0500
0600
0900
30C0
C038
ENDCHAR
STARTCHAR 2F22
ENCODING 12066
SWIDTH 1056 0
DWIDTH 14 0
BBX 13 12 1 -1
BITMAP
0400
0400
4FC0
3040
2040
5080
8900
0500
0600
0900
30C0
C038
ENDCHAR
STARTCHAR 2F23
ENCODING 12067
SWIDTH 1056 0
DWIDTH 14 0
BBX 12 12 1 -1
BITMAP
0400
0400
0BF0
1020
3020
C840
0640
0180
0100
0600
1800
6000
ENDCHAR
STARTCHAR 2F24
ENCODING 12068
SWIDTH 1056 0
DWIDTH 14 0
BBX 13 12 1 -1
BITMAP
0200
0200
0200
0400
FBF0
0600
0500
0900
0880
1040
6020
8018
ENDCHAR
STARTCHAR 2F25
ENCODING 12069
SWIDTH 1056 0
DWIDTH 14 0
BBX 12 12 1 -1
BITMAP
0400
0400
0840
FFF0
1040
1080
2080
3100
0E00
0580
1840
E030
ENDCHAR
STARTCHAR 2F26
ENCODING 12070
SWIDTH 1056 0
DWIDTH 14 0
BBX 13 11 1 -1
BITMAP
7FE0
00C0
0100
0200
0200
FFF8
0200
0200
0200
0200
1E00
ENDCHAR
STARTCHAR 2F27
ENCODING 12071
SWIDTH 1056 0
DWIDTH 14 0
BBX 12 5 1 6
BITMAP
0400
0200
FFF0
8010
8010
ENDCHAR
STARTCHAR 2F28
ENCODING 12072
SWIDTH 1056 0
DWIDTH 14 0
BBX 12 12 1 -1
BITMAP
0080
0080
0080
FFF0
0080
2080
1080
1080
0880
0080
0080
0780
ENDCHAR
STARTCHAR 2F29
ENCODING 12073
SWIDTH 1056 0
DWIDTH 14 0
BBX 13 12 1 -1
BITMAP
0200
0200
0200
2240
2220
4220
4210
8210
8208
0200
0200
1E00
ENDCHAR
STARTCHAR 2F2A
ENCODING 12074
SWIDTH 1056 0
DWIDTH 14 0
BBX 13 12 1 -1
BITMAP
0400
0400
0400
FFF0
0400
0600
0600
0A00
0A00
1208
2208
C1F0
ENDCHAR
STARTCHAR 2F2B
ENCODING 12075
SWIDTH 1056 0
DWIDTH 14 0
BBX 11 11 1 -1
BITMAP
3FE0
2020
2020
3FC0
4000
4000
4000
4000
4000
8000
8000
ENDCHAR
STARTCHAR 2F2C
ENCODING 12076
SWIDTH 1056 0
DWIDTH 14 0
BBX 10 12 2 -1
BITMAP
0400
0400
8440
8440
8440
8440
8440
7F80
0400
0400
0400
0400
ENDCHAR
STARTCHAR 2F2D
ENCODING 12077
SWIDTH 1056 0
DWIDTH 14 0
BBX 10 12 2 -1
BITMAP
0400
0400
0400
8440
8440
8440
8440
8440
8440
8440
FFC0
0040
ENDCHAR
STARTCHAR 2F2E
ENCODING 12078
SWIDTH 1056 0
DWIDTH 14 0
BBX 12 10 1 0
BITMAP
2220
2220
4440
4880
8880
8880
4440
2440
2220
1110
ENDCHAR
STARTCHAR 2F2F
ENCODING 12079
SWIDTH 1056 0
DWIDTH 14 0
BBX 12 9 1 0
BITMAP
7FF0
0200
0200
0200
0200
0200
0200
0200
FFF0
ENDCHAR
STARTCHAR 2F30
ENCODING 12080
SWIDTH 1056 0
DWIDTH 14 0
BBX 12 11 2 -1
BITMAP
FFC0
0040
0040
0040
FFC0
8040
8000
8000
8010
8020
7FC0
ENDCHAR
STARTCHAR 2F31
ENCODING 12081
SWIDTH 1056 0
DWIDTH 14 0
BBX 11 12 2 -1
BITMAP
0400
0400
0400
FFE0
8420
8420
8420
8420
8420
85E0
0400
0400
ENDCHAR
STARTCHAR 2F32
ENCODING 12082
SWIDTH 1056 0
DWIDTH 14 0
BBX 12 11 1 -1
BITMAP
7FF0
0200
0200
0200
FFF0
0200
0200
0200
0200
0200
0200
ENDCHAR
STARTCHAR 2F33
ENCODING 12083
SWIDTH 1056 0
DWIDTH 14 0
BBX 11 11 2 0
BITMAP
0800
1000
1000
2180
4200
FC00
0800
1100
2080
40C0
FF20
ENDCHAR
STARTCHAR 2F34
ENCODING 12084
SWIDTH 1056 0
DWIDTH 14 0
BBX 12 12 1 -1
BITMAP
0200
0200
7DF0
4000
4000
4000
4000
4000
4000
8000
8000
8000
ENDCHAR
STARTCHAR 2F35
ENCODING 12085
SWIDTH 1056 0
DWIDTH 14 0
BBX 13 11 1 -1
BITMAP
F000
1000
2000
7000
0800
5000
5000
2000
3000
4F88
8070
ENDCHAR
STARTCHAR 2F36
ENCODING 12086
SWIDTH 1056 0
DWIDTH 14 0
BBX 12 12 1 -1
BITMAP
1040
1040
1040
1040
1040
FFF0
1040
2040
2040
2040
4040
8040
ENDCHAR
STARTCHAR 2F37
ENCODING 12087
SWIDTH 1056 0
DWIDTH 14 0
BBX 13 12 1 -1
BITMAP
0500
04E0
0400
04F8
FB00
0200
0200
0200
0100
0108
0088
0070
ENDCHAR
STARTCHAR 2F38
ENCODING 12088
SWIDTH 1056 0
DWIDTH 14 0
BBX 10 11 2 -1
BITMAP
FFC0
0040
0040
FF80
8000
8000
7FC0
0040
0040
0040
0780
ENDCHAR
STARTCHAR 2F39
ENCODING 12089
SWIDTH 1056 0
DWIDTH 14 0
BBX 12 10 1 0
BITMAP
7FC0
0040
0040
0040
3FC0
0040
0040
0040
0040
FFF0
ENDCHAR
STARTCHAR 2F3A
ENCODING 12090
SWIDTH 1056 0
DWIDTH 14 0
BBX 9 12 3 -1
BITMAP
0200
0C00
3000
C100
0200
0C00
3000
C080
0300
0400
3800
C000
ENDCHAR
STARTCHAR 2F3B
ENCODING 12091
SWIDTH 1056 0
DWIDTH 14 0
BBX 7 11 3 -1
BITMAP
0C
10
E2
04
08
10
E8
08
08
08
08
ENDCHAR
STARTCHAR 2F3C
ENCODING 12092
SWIDTH 1056 0
DWIDTH 14 0
BBX 13 11 1 -1
BITMAP
0C00
0200
0100
1000
5020
5010
9010
9048
9048
1040
0F80
ENDCHAR
STARTCHAR 2F3D
ENCODING 12093
SWIDTH 1056 0
DWIDTH 14 0
BBX 12 12 1 -1
BITMAP
0980
0460
0400
7FF0
8420
0420
0240
0280
0300
0510
3890
C070
ENDCHAR
STARTCHAR 2F3E
ENCODING 12094
SWIDTH 1056 0
DWIDTH 14 0
BBX 11 12 1 -1
BITMAP
01C0
3E00
4000
3FE0
4020
4020
4020
3FE0
4000
4000
8000
8000
ENDCHAR
STARTCHAR 2F3F
ENCODING 12095
SWIDTH 1056 0
DWIDTH 14 0
BBX 12 12 1 -1
BITMAP
01E0
7E00
0200
7FF0
0200
0200
0200
FFF0
0200
0200
0200
1C00
ENDCHAR
STARTCHAR 2F40
ENCODING 12096
SWIDTH 1056 0
DWIDTH 14 0
BBX 13 12 1 -1
BITMAP
0200
0200
FFF0
0200
0200
7FE0
2040
1080
0900
0600
1980
E078
ENDCHAR
STARTCHAR 2F41
ENCODING 12097
SWIDTH 1056 0
DWIDTH 14 0
BBX 13 12 1 -1
BITMAP
0200
0200
03F0
0200
0200
7DC0
1040
1080
0900
0600
1980
E078
ENDCHAR
STARTCHAR 2F42
ENCODING 12098
SWIDTH 1056 0
DWIDTH 14 0
BBX 13 12 1 -1
BITMAP
0400
0200
FFF8
2040
1040
1080
0900
0500
0600
0900
30C0
C038
ENDCHAR
STARTCHAR 2F43
ENCODING 12099
SWIDTH 1056 0
DWIDTH 14 0
BBX 12 12 1 -1
BITMAP
0080
1880
0480
0080
6080
1880
0080
03F0
FC80
0080
0080
0080
ENDCHAR
STARTCHAR 2F44
ENCODING 12100
SWIDTH 1056 0
DWIDTH 14 0
BBX 12 12 1 -1
BITMAP
03E0
7C00
4000
4000
4000
7FF0
4100
4100
4100
4100
8100
8100
ENDCHAR
STARTCHAR 2F45
ENCODING 12101
SWIDTH 1056 0
DWIDTH 14 0
BBX 12 12 1 -1
BITMAP
0200
0200
FFF0
0800
0800
0FE0
0820
1020
1020
2040
4040
8380
ENDCHAR
STARTCHAR 2F46
ENCODING 12102
SWIDTH 1056 0
DWIDTH 14 0
BBX 13 11 1 -1
BITMAP
7FF0
0400
0400
0400
FFF0
0600
0A00
0A00
1208
2208
C1F0
ENDCHAR
STARTCHAR 2F47
ENCODING 12103
SWIDTH 1056 0
DWIDTH 14 0
BBX 9 11 3 -1
BITMAP
FF80
8080
8080
8080
FF80
8080
8080
8080
8080
FF80
8080
ENDCHAR
STARTCHAR 2F48
ENCODING 12104
SWIDTH 1056 0
DWIDTH 14 0
BBX 10 11 2 -1
BITMAP
FFC0
8040
8040
8040
FF40
8040
8040
8040
8040
FFC0
8040
ENDCHAR
STARTCHAR 2F49
ENCODING 12105
SWIDTH 1056 0
DWIDTH 14 0
BBX 10 11 1 -1
BITMAP
3FC0
2040
2040
3FC0
2040
2040
3FC0
4040
4040
8040
81C0
ENDCHAR
STARTCHAR 2F4A
ENCODING 12106
SWIDTH 1056 0
DWIDTH 14 0
BBX 13 12 1 -1
BITMAP
0200
0200
0200
FFF0
0600
0B00
0A80
1240
2220
C210
0208
0200
ENDCHAR
STARTCHAR 2F4B
ENCODING 12107
SWIDTH 1056 0
DWIDTH 14 0
BBX 12 12 1 -1
BITMAP
1000
2000
3FF0
4210
4220
8420
0200
0600
0900
1080
2040
C030
ENDCHAR
STARTCHAR 2F4C
ENCODING 12108
SWIDTH 1056 0
DWIDTH 14 0
BBX 12 11 1 0
BITMAP
0200
0200
0200
2200
23F0
2200
2200
2200
2200
2200
FFF0
ENDCHAR
STARTCHAR 2F4D
ENCODING 12109
SWIDTH 1056 0
DWIDTH 14 0
BBX 12 11 1 -1
BITMAP
7FF0
0400
0FC0
1020
3040
CC80
0280
0100
0600
1800
6000
ENDCHAR
STARTCHAR 2F4E
ENCODING 12110
SWIDTH 1056 0
DWIDTH 14 0
BBX 13 11 1 -1
BITMAP
1F80
1080
2080
20F0
DF80
2040
1080
0980
0600
0980
F078
ENDCHAR
STARTCHAR 2F4F
ENCODING 12111
SWIDTH 1056 0
DWIDTH 14 0
BBX 12 11 1 -1
BITMAP
3FE0
2220
2220
BFF0
4220
4420
4420
77F0
0820
1040
63C0
ENDCHAR
STARTCHAR 2F50
ENCODING 12112
SWIDTH 1056 0
DWIDTH 14 0
BBX 12 12 2 -1
BITMAP
8200
8200
8200
8200
FBE0
8200
8200
8200
8200
8A10
F210
01E0
ENDCHAR
STARTCHAR 2F51
ENCODING 12113
SWIDTH 1056 0
DWIDTH 14 0
BBX 13 12 1 -1
BITMAP
00E0
1F00
E400
0460
3F80
C400
0430
3FC0
C400
0408
0408
07F0
ENDCHAR
STARTCHAR 2F52
ENCODING 12114
SWIDTH 1056 0
DWIDTH 14 0
BBX 12 12 2 -1
BITMAP
01C0
7E00
8400
8400
8200
7FE0
8200
8200
8100
8510
F890
8060
ENDCHAR
STARTCHAR 2F53
ENCODING 12115
SWIDTH 1056 0
DWIDTH 14 0
BBX 13 12 1 -1
BITMAP
2000
3FF0
4000
5FE0
8000
7FC0
0040
0040
0040
0020
0028
0010
ENDCHAR
STARTCHAR 2F54
ENCODING 12116
SWIDTH 1056 0
DWIDTH 14 0
BBX 13 12 1 -1
BITMAP
0200
0200
0200
F220
0A40
1380
1280
2240
2220
4210
8208
0E00
ENDCHAR
STARTCHAR 2F55
ENCODING 12117
SWIDTH 1056 0
DWIDTH 14 0
BBX 12 12 1 -1
BITMAP
0200
0200
0200
4210
4220
2420
2240
0600
0900
0880
3040
C030
ENDCHAR
STARTCHAR 2F56
ENCODING 12118
SWIDTH 1056 0
DWIDTH 14 0
BBX 13 12 1 -1
BITMAP
0060
3FA0
4220
4220
4220
4220
4220
4220
4220
4210
8210
8208
ENDCHAR
STARTCHAR 2F57
ENCODING 12119
SWIDTH 1056 0
DWIDTH 14 0
BBX 13 12 1 -1
BITMAP
1080
1040
2020
4010
9080
1080
0900
0500
0200
0D00
30C0
C038
ENDCHAR
STARTCHAR 2F58
ENCODING 12120
SWIDTH 1056 0
DWIDTH 14 0
BBX 13 12 1 -1
BITMAP
0060
7880
0700
19C0
E020
2040
1080
0900
0600
0D00
30C0
C038
ENDCHAR
STARTCHAR 2F59
ENCODING 12121
SWIDTH 1056 0
DWIDTH 14 0
BBX 8 12 2 -1
BITMAP
01
21
21
3F
01
01
FF
21
21
21
41
81
ENDCHAR
STARTCHAR 2F5A
ENCODING 12122
SWIDTH 1056 0
DWIDTH 14 0
BBX 10 12 1 -1
BITMAP
2080
2080
2080
3F80
2000
2000
3FC0
2040
2040
4040
4040
8040
ENDCHAR
STARTCHAR 2F5B
ENCODING 12123
SWIDTH 1056 0
DWIDTH 14 0
BBX 12 11 1 -1
BITMAP
7FF0
2080
2080
4080
7FF0
0180
0280
0C80
1080
E080
0380
ENDCHAR
STARTCHAR 2F5C
ENCODING 12124
SWIDTH 1056 0
DWIDTH 14 0
BBX 12 12 1 -1
BITMAP
2200
2200
3FF0
4200
8200
0200
FFF0
0200
0200
0200
0200
0200
ENDCHAR
STARTCHAR 2F5D
ENCODING 12125
SWIDTH 1056 0
DWIDTH 14 0
BBX 13 12 1 -1
BITMAP
0280
0240
0220
0400
FBF0
0600
0500
0900
0880
1040
2020
C018
ENDCHAR
STARTCHAR 2F5E
ENCODING 12126
SWIDTH 1056 0
DWIDTH 14 0
BBX 12 12 1 -1
BITMAP
0400
0200
FFF0
0800
1040
1080
3F00
0400
0840
1020
7FD0
0010
ENDCHAR
STARTCHAR 2F5F
ENCODING 12127
SWIDTH 1056 0
DWIDTH 14 0
BBX 12 10 1 0
BITMAP
7FF0
0200
0200
0200
7FE0
0200
0280
0240
0220
FFF0
ENDCHAR
STARTCHAR 2F60
ENCODING 12128
SWIDTH 1056 0
DWIDTH 14 0
BBX 13 12 1 -1
BITMAP
01E0
3E00
4440
4440
4440
4420
4420
4520
4520
4890
8F90
8048
ENDCHAR
STARTCHAR 2F61
ENCODING 12129
SWIDTH 1056 0
DWIDTH 14 0
BBX 13 11 1 -1
BITMAP
FFF0
1000
1000
1FC0
1040
2C40
2240
2140
2048
3F48
C070
ENDCHAR
STARTCHAR 2F62
ENCODING 12130
SWIDTH 1056 0
DWIDTH 14 0
BBX 12 12 1 -1
BITMAP
2040
2040
FFF0
2040
2040
2040
3FC0
2040
2040
2040
3FC0
2040
ENDCHAR
STARTCHAR 2F63
ENCODING 12131
SWIDTH 1056 0
DWIDTH 14 0
BBX 12 11 1 0
BITMAP
2200
2200
3FF0
4200
4200
8200
7FE0
0200
0200
0200
FFF0
ENDCHAR
STARTCHAR 2F64
ENCODING 12132
SWIDTH 1056 0
DWIDTH 14 0
BBX 11 11 1 -1
BITMAP
7FE0
4220
4220
7FE0
4220
4220
7FE0
4220
4220
8220
82E0
ENDCHAR
STARTCHAR 2F65
ENCODING 12133
SWIDTH 1056 0
DWIDTH 14 0
BBX 11 11 2 -1
BITMAP
FFE0
8420
8420
8420
FFE0
8420
8420
8420
8420
FFE0
8020
ENDCHAR
STARTCHAR 2F66
ENCODING 12134
SWIDTH 1056 0
DWIDTH 14 0
BBX 13 11 1 -1
BITMAP
FFF0
0210
0220
2240
23E0
2200
2200
6200
5200
8E00
81F8
ENDCHAR
STARTCHAR 2F67
ENCODING 12135
SWIDTH 1056 0
DWIDTH 14 0
BBX 12 12 1 -1
BITMAP
0200
3FF0
A000
A000
6000
2000
E000
2000
2000
4000
4000
8000
ENDCHAR
STARTCHAR 2F68
ENCODING 12136
SWIDTH 1056 0
DWIDTH 14 0
BBX 13 7 1 2
BITMAP
7920
0940
4890
30A0
1040
6020
8018
ENDCHAR
STARTCHAR 2F69
ENCODING 12137
SWIDTH 1056 0
DWIDTH 14 0
BBX 10 12 2 -1
BITMAP
0800
0800
FFC0
8040
8040
8040
FFC0
8040
8040
8040
FFC0
8040
ENDCHAR
STARTCHAR 2F6A
ENCODING 12138
SWIDTH 1056 0
DWIDTH 14 0
BBX 13 12 1 -1
BITMAP
0200
0200
7FF0
4220
4220
7FE0
5020
4840
4480
8300
8CC0
F038
ENDCHAR
STARTCHAR 2F6B
ENCODING 12139
SWIDTH 1056 0
DWIDTH 14 0
BBX 13 10 1 0
BITMAP
7FE0
4910
4910
4910
4910
4910
4910
4910
4910
FFF8
ENDCHAR
STARTCHAR 2F6C
ENCODING 12140
SWIDTH 1056 0
DWIDTH 14 0
BBX 10 11 2 -1
BITMAP
FFC0
8040
8040
FFC0
8040
8040
FFC0
8040
8040
FFC0
8040
ENDCHAR
STARTCHAR 2F6D
ENCODING 12141
SWIDTH 1056 0
DWIDTH 14 0
BBX 12 11 1 -1
BITMAP
7FE0
1880
0700
0100
FEF0
0620
1A40
2200
C200
0200
1E00
ENDCHAR
STARTCHAR 2F6E
ENCODING 12142
SWIDTH 1056 0
DWIDTH 14 0
BBX 13 12 1 -1
BITMAP
2000
3DE0
4200
4200
8200
FFF0
0200
0600
0500
0880
3040
C038
ENDCHAR
STARTCHAR 2F6F
ENCODING 12143
SWIDTH 1056 0
DWIDTH 14 0
BBX 12 11 1 -1
BITMAP
FFF0
0800
1000
1000
3FE0
2010
6010
A010
2010
1FE0
2010
ENDCHAR
STARTCHAR 2F70
ENCODING 12144
SWIDTH 1056 0
DWIDTH 14 0
BBX 12 11 1 -1
BITMAP
7FE0
0000
0000
FFF0
0200
2240
2220
4210
4210
8210
0200
ENDCHAR
STARTCHAR 2F71
ENCODING 12145
SWIDTH 1056 0
DWIDTH 14 0
BBX 12 12 1 -1
BITMAP
0200
0200
FFF0
4210
4210
4290
4290
4FD0
5030
4010
4010
4070
ENDCHAR
STARTCHAR 2F72
ENCODING 12146
SWIDTH 1056 0
DWIDTH 14 0
BBX 13 12 1 -1
BITMAP
0060
7F80
0200
0200
0200
FFF0
0B00
1280
2240
4230
8208
0200
ENDCHAR
STARTCHAR 2F73
ENCODING 12147
SWIDTH 1056 0
DWIDTH 14 0
BBX 12 12 1 -1
BITMAP
0400
0400
FBF0
8010
0180
1080
1080
1040
2040
2020
4020
8010
ENDCHAR
STARTCHAR 2F74
ENCODING 12148
SWIDTH 1056 0
DWIDTH 14 0
BBX 12 11 1 0
BITMAP
0400
0200
FFF0
0000
2040
1080
1080
1080
0900
0900
FFF0
ENDCHAR
STARTCHAR 2F75
ENCODING 12149
SWIDTH 1056 0
DWIDTH 14 0
BBX 14 12 0 -1
BITMAP
1080
2080
2080
3F7C
5120
9220
1020
1020
1020
1020
1020
10E0
ENDCHAR
STARTCHAR 2F76
ENCODING 12150
SWIDTH 1056 0
DWIDTH 14 0
BBX 12 12 1 -1
BITMAP
0200
4220
2220
2240
0200
FFF0
0B00
0A80
1240
2220
4210
8210
ENDCHAR
STARTCHAR 2F77
ENCODING 12151
SWIDTH 1056 0
DWIDTH 14 0
BBX 12 12 1 -1
BITMAP
0400
0800
1080
3B00
4440
1820
7FE0
0210
12C0
2220
4210
8C00
ENDCHAR
STARTCHAR 2F78
ENCODING 12152
SWIDTH 1056 0
DWIDTH 14 0
BBX 12 12 1 -1
BITMAP
2000
3DE0
2200
4200
8200
FFF0
0200
4220
4220
4220
7FE0
0020
ENDCHAR
STARTCHAR 2F79
ENCODING 12153
SWIDTH 1056 0
DWIDTH 14 0
BBX 12 11 1 -1
BITMAP
FFF0
8410
A650
A950
9890
8890
9550
A550
E210
8010
8070
ENDCHAR
STARTCHAR 2F7A
ENCODING 12154
SWIDTH 1056 0
DWIDTH 14 0
BBX 12 12 1 -1
BITMAP
1040
1080
7FF0
0200
0200
7FE0
0200
0200
FFF0
0200
0200
0200
ENDCHAR
STARTCHAR 2F7B
ENCODING 12155
SWIDTH 1056 0
DWIDTH 14 0
BBX 12 11 1 -1
BITMAP
FFF0
8410
4510
2490
0410
0430
1CD0
6510
8610
0410
3870
ENDCHAR
STARTCHAR 2F7C
ENCODING 12156
SWIDTH 1056 0
DWIDTH 14 0
BBX 12 12 1 -1
BITMAP
0410
0420
7FC0
0480
FDF0
0600
1800
6800
8FE0
0810
0810
0FE0
ENDCHAR
STARTCHAR 2F7D
ENCODING 12157
SWIDTH 1056 0
DWIDTH 14 0
BBX 12 11 1 -1
BITMAP
FFF0
0400
76E0
8910
8910
8910
8910
8910
8910
8910
8070
ENDCHAR
STARTCHAR 2F7E
ENCODING 12158
SWIDTH 1056 0
DWIDTH 14 0
BBX 13 12 1 -1
BITMAP
0200
07E0
7A00
0200
7FE0
0200
FBF0
0600
0B80
3240
C230
0208
ENDCHAR
STARTCHAR 2F7F
ENCODING 12159
SWIDTH 1056 0
DWIDTH 14 0
BBX 13 11 1 -1
BITMAP
FFF0
2040
2040
3FC0
2040
3FC0
2040
2040
FFF8
0040
0040
ENDCHAR
STARTCHAR 2F80
ENCODING 12160
SWIDTH 1056 0
DWIDTH 14 0
BBX 12 12 1 -1
BITMAP
0200
7FE0
0220
FFF0
0220
7FE0
0200
7FE0
0200
FFF0
0200
0200
ENDCHAR
STARTCHAR 2F81
ENCODING 12161
SWIDTH 1056 0
DWIDTH 14 0
BBX 11 12 2 -1
BITMAP
0400
0400
FBE0
8C20
9320
E4A0
8820
8C20
9320
E0A0
8020
81E0
ENDCHAR
STARTCHAR 2F82
ENCODING 12162
SWIDTH 1056 0
DWIDTH 14 0
BBX 11 10 2 0
BITMAP
FFE0
8400
8400
FBC0
8040
8040
FFC0
8400
8400
FFE0
ENDCHAR
STARTCHAR 2F83
ENCODING 12163
SWIDTH 1056 0
DWIDTH 14 0
BBX 9 12 3 -1
BITMAP
1000
1000
EF80
8080
8080
FF80
8080
8080
FF80
8080
FF80
8080
ENDCHAR
STARTCHAR 2F84
ENCODING 12164
SWIDTH 1056 0
DWIDTH 14 0
BBX 12 10 1 0
BITMAP
FFF0
1180
2040
7FE0
0210
0200
7FE0
0200
0200
FFF0
ENDCHAR
STARTCHAR 2F85
ENCODING 12165
SWIDTH 1056 0
DWIDTH 14 0
BBX 11 12 2 -1
BITMAP
1800
63E0
8020
8020
8020
F3E0
8020
8020
8020
8020
FFE0
8020
ENDCHAR
STARTCHAR 2F86
ENCODING 12166
SWIDTH 1056 0
DWIDTH 14 0
BBX 12 11 1 -1
BITMAP
7FE0
0200
0200
FFF0
0200
0200
7DE0
4020
4020
4020
7FE0
ENDCHAR
STARTCHAR 2F87
ENCODING 12167
SWIDTH 1056 0
DWIDTH 14 0
BBX 13 12 1 -1
BITMAP
2040
2040
3BF0
4540
4A40
CA40
2A40
13F8
1040
2040
4040
8040
ENDCHAR
STARTCHAR 2F88
ENCODING 12168
SWIDTH 1056 0
DWIDTH 14 0
BBX 12 12 1 -1
BITMAP
0400
1F80
2040
2440
2340
2040
FFF0
2440
2240
4140
4040
81C0
ENDCHAR
STARTCHAR 2F89
ENCODING 12169
SWIDTH 1056 0
DWIDTH 14 0
BBX 12 11 2 -1
BITMAP
7F80
4080
7F80
4080
4080
7F20
4440
4580
4300
58C0
E030
ENDCHAR
STARTCHAR 2F8A
ENCODING 12170
SWIDTH 1056 0
DWIDTH 14 0
BBX 13 12 1 -1
BITMAP
0800
1F80
2100
7FC0
C220
4220
4220
7DE0
4000
4008
4008
3FF0
ENDCHAR
STARTCHAR 2F8B
ENCODING 12171
SWIDTH 1056 0
DWIDTH 14 0
BBX 12 12 1 -1
BITMAP
1040
1040
9550
9550
9550
9550
A550
79F0
2040
2040
4040
8040
ENDCHAR
STARTCHAR 2F8C
ENCODING 12172
SWIDTH 1056 0
DWIDTH 14 0
BBX 12 12 1 -1
BITMAP
0400
03E0
0400
7FF0
4410
4400
5FE0
6400
4400
83F0
8000
8000
ENDCHAR
STARTCHAR 2F8D
ENCODING 12173
SWIDTH 1056 0
DWIDTH 14 0
BBX 12 12 1 -1
BITMAP
0200
0200
7FE0
4210
4210
4210
7FF0
0200
0240
0220
FFE0
0010
ENDCHAR
STARTCHAR 2F8E
ENCODING 12174
SWIDTH 1056 0
DWIDTH 14 0
BBX 13 11 1 0
BITMAP
0400
0400
3EE0
4910
4910
4910
4910
4910
4910
4910
FFF8
ENDCHAR
STARTCHAR 2F8F
ENCODING 12175
SWIDTH 1056 0
DWIDTH 14 0
BBX 14 12 0 -1
BITMAP
1000
23F8
4000
0800
17FC
2020
D020
1020
1020
1020
1020
10E0
ENDCHAR
STARTCHAR 2F90
ENCODING 12176
SWIDTH 1056 0
DWIDTH 14 0
BBX 13 12 1 -1
BITMAP
0400
0200
FFF0
0600
0A10
3120
5140
9080
1080
1040
1F30
2008
ENDCHAR
STARTCHAR 2F91
ENCODING 12177
SWIDTH 1056 0
DWIDTH 14 0
BBX 12 10 1 0
BITMAP
FFF0
0900
0900
7FF0
4910
4910
4910
4610
4010
4010
ENDCHAR
STARTCHAR 2F92
ENCODING 12178
SWIDTH 1056 0
DWIDTH 14 0
BBX 13 11 1 -1
BITMAP
7FE0
4020
7FE0
4020
7FE0
4020
3FC0
1100
1108
2108
C1F0
ENDCHAR
STARTCHAR 2F93
ENCODING 12179
SWIDTH 1056 0
DWIDTH 14 0
BBX 11 12 1 -1
BITMAP
0800
1780
2100
5EE0
A220
3FE0
2220
4220
7FE0
4020
8020
80E0
ENDCHAR
STARTCHAR 2F94
ENCODING 12180
SWIDTH 1056 0
DWIDTH 14 0
BBX 12 12 1 -1
BITMAP
0400
0200
FFF0
0000
3FC0
0000
3FC0
0000
3FE0
2020
2020
3FE0
ENDCHAR
STARTCHAR 2F95
ENCODING 12181
SWIDTH 1056 0
DWIDTH 14 0
BBX 13 12 1 -1
BITMAP
0880
1040
2020
C610
0900
1080
6060
BFD8
2040
2040
2040
3FC0
ENDCHAR
STARTCHAR 2F96
ENCODING 12182
SWIDTH 1056 0
DWIDTH 14 0
BBX 12 10 1 0
BITMAP
FFF0
0000
7FE0
4020
4020
7FE0
0000
1080
1080
FFF0
ENDCHAR
STARTCHAR 2F97
ENCODING 12183
SWIDTH 1056 0
DWIDTH 14 0
BBX 13 11 1 -1
BITMAP
FFF0
0C00
3460
C480
0B80
7240
8540
1920
6118
8200
0E00
ENDCHAR
STARTCHAR 2F98
ENCODING 12184
SWIDTH 1056 0
DWIDTH 14 0
BBX 9 12 2 -1
BITMAP
0100
3E00
4480
2700
1C00
E200
0D00
F100
0700
3900
C100
0E00
ENDCHAR
STARTCHAR 2F99
ENCODING 12185
SWIDTH 1056 0
DWIDTH 14 0
BBX 12 11 1 -1
BITMAP
7FE0
4020
3FE0
4020
7FE0
4020
4020
3FE0
0880
3060
C010
ENDCHAR
STARTCHAR 2F9A
ENCODING 12186
SWIDTH 1056 0
DWIDTH 14 0
BBX 13 12 1 -1
BITMAP
0200
0200
3FE0
0200
F6F0
0900
2940
4920
4910
9108
1100
6700
ENDCHAR
STARTCHAR 2F9B
ENCODING 12187
SWIDTH 1056 0
DWIDTH 14 0
BBX 13 12 1 -1
BITMAP
0200
7FE0
0200
0200
FFF0
0200
2200
23E0
2200
5200
4A00
87F8
ENDCHAR
STARTCHAR 2F9C
ENCODING 12188
SWIDTH 1056 0
DWIDTH 14 0
BBX 13 11 1 -1
BITMAP
7FE0
4020
4020
7DE0
0200
2200
23E0
2200
5200
4A00
87F8
ENDCHAR
STARTCHAR 2F9D
ENCODING 12189
SWIDTH 1056 0
DWIDTH 14 0
BBX 12 12 1 -1
BITMAP
0400
3FC0
2040
3FC0
2040
3FD0
2060
3FC0
C140
0640
3840
C3C0
ENDCHAR
STARTCHAR 2F9E
ENCODING 12190
SWIDTH 1056 0
DWIDTH 14 0
BBX 12 12 1 -1
BITMAP
0200
FFF0
0200
7FE0
4220
7FE0
4220
7FE0
0200
FFF0
0200
0200
ENDCHAR
STARTCHAR 2F9F
ENCODING 12191
SWIDTH 1056 0
DWIDTH 14 0
BBX 12 12 1 -1
BITMAP
0400
0200
7DE0
1080
1080
FFF0
0200
0200
7FF0
0200
0200
0200
ENDCHAR
STARTCHAR 2FA0
ENCODING 12192
SWIDTH 1056 0
DWIDTH 14 0
BBX 13 11 1 -1
BITMAP
7FF0
4000
7FE0
4000
6DE0
5210
5120
5140
9080
9760
9818
ENDCHAR
STARTCHAR 2FA1
ENCODING 12193
SWIDTH 1056 0
DWIDTH 14 0
BBX 13 12 1 -1
BITMAP
03C0
7C00
03C0
7C00
01F0
FE00
0200
23E0
2200
3200
4A00
85F8
ENDCHAR
STARTCHAR 2FA2
ENCODING 12194
SWIDTH 1056 0
DWIDTH 14 0
BBX 11 11 2 -1
BITMAP
7FC0
4040
3F80
7B80
8440
8440
8440
FB80
8000
8020
7FE0
ENDCHAR
STARTCHAR 2FA3
ENCODING 12195
SWIDTH 1056 0
DWIDTH 14 0
BBX 12 11 1 -1
BITMAP
FFF0
0900
7FE0
4910
4910
51F0
6010
5FD0
4010
7FF0
4010
ENDCHAR
STARTCHAR 2FA4
ENCODING 12196
SWIDTH 1056 0
DWIDTH 14 0
BBX 13 12 1 -1
BITMAP
01E0
7E00
2240
2240
1280
FBF0
0600
0B00
12C0
6220
8218
0200
ENDCHAR
STARTCHAR 2FA5
ENCODING 12197
SWIDTH 1056 0
DWIDTH 14 0
BBX 12 11 1 -1
BITMAP
7FE0
4220
7FE0
4220
4220
3FC0
0200
7FF0
0200
0200
FFF0
ENDCHAR
STARTCHAR 2FA6
ENCODING 12198
SWIDTH 1056 0
DWIDTH 14 0
BBX 13 11 1 0
BITMAP
0200
0500
1880
6060
9FD8
0200
7FF0
0200
2240
1280
FFF0
ENDCHAR
STARTCHAR 2FA7
ENCODING 12199
SWIDTH 1056 0
DWIDTH 14 0
BBX 13 11 1 -1
BITMAP
3FE0
3FE0
2000
3FE0
2000
FFF0
2430
2240
2180
2EC0
3038
ENDCHAR
STARTCHAR 2FA8
ENCODING 12200
SWIDTH 1056 0
DWIDTH 14 0
BBX 12 11 1 -1
BITMAP
FDF0
FDF0
8510
8510
F8F0
8010
8010
8010
8010
8010
8070
ENDCHAR
STARTCHAR 2FA9
ENCODING 12201
SWIDTH 1056 0
DWIDTH 14 0
BBX 12 12 1 -1
BITMAP
0400
3FC0
4020
3FC0
4000
7FE0
4020
3FE0
0200
FFF0
0200
0200
ENDCHAR
STARTCHAR 2FAA
ENCODING 12202
SWIDTH 1056 0
DWIDTH 14 0
BBX 13 12 1 -1
BITMAP
0200
7FE0
0220
FFF0
0220
3FE0
4210
2220
17C0
1A40
E230
0E08
ENDCHAR
STARTCHAR 2FAB
ENCODING 12203
SWIDTH 1056 0
DWIDTH 14 0
BBX 12 12 1 -1
BITMAP
1200
2100
3EF0
4100
4100
BFE0
2100
2100
3FE0
2100
3FF0
2000
ENDCHAR
STARTCHAR 2FAC
ENCODING 12204
SWIDTH 1056 0
DWIDTH 14 0
BBX 12 11 1 -1
BITMAP
FFF0
0200
7FE0
8210
B270
8B90
8210
8B90
B250
8230
8270
ENDCHAR
STARTCHAR 2FAD
ENCODING 12205
SWIDTH 1056 0
DWIDTH 14 0
BBX 12 12 1 -1
BITMAP
0200
7FF0
7FE0
0200
FFF0
1DC0
2220
2220
3FE0
2020
2020
20E0
ENDCHAR
STARTCHAR 2FAE
ENCODING 12206
SWIDTH 1056 0
DWIDTH 14 0
BBX 13 12 1 -1
BITMAP
0900
0900
F9F0
0900
0900
79F0
0900
0900
F9F8
1100
3100
4100
ENDCHAR
STARTCHAR 2FAF
ENCODING 12207
SWIDTH 1056 0
DWIDTH 14 0
BBX 12 11 1 -1
BITMAP
FFF0
0400
6F60
9090
9090
9F90
9090
8F10
9090
9090
EF70
ENDCHAR
STARTCHAR 2FB0
ENCODING 12208
SWIDTH 1056 0
DWIDTH 14 0
BBX 12 12 1 -1
BITMAP
1080
FFF0
1080
1F80
0200
7FE0
4220
7FE0
0200
FFF0
0200
0200
ENDCHAR
STARTCHAR 2FB1
ENCODING 12209
SWIDTH 1056 0
DWIDTH 14 0
BBX 12 12 1 -1
BITMAP
0800
3FC0
0840
F7B0
3FE0
2020
3FE0
3FF0
4100
7FF0
0100
0100
ENDCHAR
STARTCHAR 2FB2
ENCODING 12210
SWIDTH 1056 0
DWIDTH 14 0
BBX 12 11 1 0
BITMAP
0900
0900
F9F0
0900
0900
78F0
0900
0900
F9F0
0900
FFF0
ENDCHAR
STARTCHAR 2FB3
ENCODING 12211
SWIDTH 1056 0
DWIDTH 14 0
BBX 12 12 1 -1
BITMAP
0600
7FF0
1040
1080
FFF0
0000
3FC0
2020
3FE0
2020
2020
3FE0
ENDCHAR
STARTCHAR 2FB4
ENCODING 12212
SWIDTH 1056 0
DWIDTH 14 0
BBX 12 11 1 -1
BITMAP
FFF0
3FC0
4020
4020
7FE0
4020
7FE0
4020
3FC0
38C0
C030
ENDCHAR
STARTCHAR 2FB5
ENCODING 12213
SWIDTH 1056 0
DWIDTH 14 0
BBX 13 11 1 -1
BITMAP
7FE0
5FA0
4420
4F20
54A0
54A0
5FA0
4420
44A8
BF50
8050
ENDCHAR
STARTCHAR 2FB6
ENCODING 12214
SWIDTH 1056 0
DWIDTH 14 0
BBX 13 11 1 -1
BITMAP
7FB0
1C40
E470
2448
FF30
2490
2460
4460
4450
8448
8438
ENDCHAR
STARTCHAR 2FB7
ENCODING 12215
SWIDTH 1056 0
DWIDTH 14 0
BBX 13 12 1 -1
BITMAP
0200
0D00
10C0
7FB0
A048
3FC0
2040
3FC0
2460
2380
2CC0
3020
ENDCHAR
STARTCHAR 2FB8
ENCODING 12216
SWIDTH 1056 0
DWIDTH 14 0
BBX 12 12 1 -1
BITMAP
1040
1080
EF70
0400
7BE0
4020
3FE0
4020
3FE0
4020
7FE0
4020
ENDCHAR
STARTCHAR 2FB9
ENCODING 12217
SWIDTH 1056 0
DWIDTH 14 0
BBX 13 12 1 -1
BITMAP
01E0
7E00
0200
FFF0
0B80
3240
5FF8
A020
2020
3FE0
2020
3FE0
ENDCHAR
STARTCHAR 2FBA
ENCODING 12218
SWIDTH 1056 0
DWIDTH 14 0
BBX 12 11 1 -1
BITMAP
7FE0
4200
7FE0
4200
3FE0
4200
3FF0
4090
5250
8A10
80F0
ENDCHAR
STARTCHAR 2FBB
ENCODING 12219
SWIDTH 1056 0
DWIDTH 14 0
BBX 12 11 1 -1
BITMAP
3FC0
27C0
2440
DBB0
9F90
2040
2FC0
2040
2FC0
3040
41C0
ENDCHAR
STARTCHAR 2FBC
ENCODING 12220
SWIDTH 1056 0
DWIDTH 14 0
BBX 12 12 1 -1
BITMAP
0400
FFF0
0000
3FC0
2040
1F80
7FF0
8F10
9090
9090
9F10
8030
ENDCHAR
STARTCHAR 2FBD
ENCODING 12221
SWIDTH 1056 0
DWIDTH 14 0
BBX 13 11 1 0
BITMAP
3C10
4020
7CC0
4100
7C10
4060
DD80
2008
2010
4460
7F80
ENDCHAR
STARTCHAR 2FBE
ENCODING 12222
SWIDTH 1056 0
DWIDTH 14 0
BBX 11 12 2 -1
BITMAP
D2E0
A120
F3A0
A120
F7E0
8020
8020
8020
8020
8020
8020
80E0
ENDCHAR
STARTCHAR 2FBF
ENCODING 12223
SWIDTH 1056 0
DWIDTH 14 0
BBX 11 12 2 -1
BITMAP
8D20
B220
EDA0
9A60
EDA0
8220
7DC0
8000
FFC0
8000
8020
7FC0
ENDCHAR
STARTCHAR 2FC0
ENCODING 12224
SWIDTH 1056 0
DWIDTH 14 0
BBX 12 11 1 -1
BITMAP
FFF0
3FC0
2040
3FC0
0000
FFF0
8890
BFD0
8210
8210
8270
ENDCHAR
STARTCHAR 2FC1
ENCODING 12225
SWIDTH 1056 0
DWIDTH 14 0
BBX 13 12 1 -1
BITMAP
0800
7FE0
4220
7FE0
4220
4220
7FE0
0A80
0AA0
13E0
2218
C1F0
ENDCHAR
STARTCHAR 2FC2
ENCODING 12226
SWIDTH 1056 0
DWIDTH 14 0
BBX 13 12 1 -1
BITMAP
0800
1700
2100
5EE0
C220
7FE0
4220
4220
3FE0
4920
4910
8888
ENDCHAR
STARTCHAR 2FC3
ENCODING 12227
SWIDTH 1056 0
DWIDTH 14 0
BBX 12 12 1 -1
BITMAP
0400
3FC0
4020
7FE0
7FE0
4000
3FF0
4000
3FF0
5490
9250
80F0
ENDCHAR
STARTCHAR 2FC4
ENCODING 12228
SWIDTH 1056 0
DWIDTH 14 0
BBX 11 12 2 -1
BITMAP
0400
07E0
0400
FFE0
8920
A520
9AA0
CC60
9320
ECA0
8220
FDE0
ENDCHAR
STARTCHAR 2FC5
ENCODING 12229
SWIDTH 1056 0
DWIDTH 14 0
BBX 12 12 1 -1
BITMAP
0200
7FF0
4880
7FF0
4890
4890
7760
6100
9FF0
A100
A110
BEF0
ENDCHAR
STARTCHAR 2FC6
ENCODING 12230
SWIDTH 1056 0
DWIDTH 14 0
BBX 13 12 1 -1
BITMAP
0200
FFF0
1240
2240
56A0
99D0
E438
5B80
6880
0700
0CC0
F020
ENDCHAR
STARTCHAR 2FC7
ENCODING 12231
SWIDTH 1056 0
DWIDTH 14 0
BBX 14 12 0 -1
BITMAP
0100
3BD8
4420
4420
5EF8
4420
56B0
56B0
56B0
56B0
65AC
8520
ENDCHAR
STARTCHAR 2FC8
ENCODING 12232
SWIDTH 1056 0
DWIDTH 14 0
BBX 13 12 1 -1
BITMAP
1080
7FF0
1080
0F00
FFF0
3FE0
4220
3FE0
4220
3FE0
3060
C018
ENDCHAR
STARTCHAR 2FC9
ENCODING 12233
SWIDTH 1056 0
DWIDTH 14 0
BBX 13 12 1 -1
BITMAP
05E0
7A00
F270
0F80
3260
C710
1A80
6270
9288
1F80
6260
0E00
ENDCHAR
STARTCHAR 2FCA
ENCODING 12234
SWIDTH 1056 0
DWIDTH 14 0
BBX 12 11 1 -1
BITMAP
7FE0
52A0
4B20
7FE0
0200
7FE0
0200
FFF0
0020
4910
8890
ENDCHAR
STARTCHAR 2FCB
ENCODING 12235
SWIDTH 1056 0
DWIDTH 14 0
BBX 13 12 1 -1
BITMAP
4920
2940
ED30
12C0
6230
FFE8
4B20
4AA0
52A0
7260
4220
42E0
ENDCHAR
STARTCHAR 2FCC
ENCODING 12236
SWIDTH 1056 0
DWIDTH 14 0
BBX 12 11 2 -1
BITMAP
FFC0
9240
73C0
73C0
9220
9220
F3E0
9220
F3E0
1010
0FE0
ENDCHAR
STARTCHAR 2FCD
ENCODING 12237
SWIDTH 1056 0
DWIDTH 14 0
BBX 12 12 1 -1
BITMAP
1F80
9090
9F90
9F90
9090
9F90
79E0
0900
F9F0
4910
4910
8910
ENDCHAR
STARTCHAR 2FCE
ENCODING 12238
SWIDTH 1056 0
DWIDTH 14 0
BBX 13 12 1 -1
BITMAP
2040
FC40
23F8
FC40
0040
FFF0
8510
F920
48A0
4840
7DA0
8618
ENDCHAR
STARTCHAR 2FCF
ENCODING 12239
SWIDTH 1056 0
DWIDTH 14 0
BBX 12 12 2 -1
BITMAP
7380
8040
FBC0
8040
FFC0
0040
8840
FF40
FF40
8840
BBD0
CC20
ENDCHAR
STARTCHAR 2FD0
ENCODING 12240
SWIDTH 1056 0
DWIDTH 14 0
BBX 12 12 1 -1
BITMAP
0400
3BC0
3FC0
3FC0
3FC0
0000
7FF0
4210
3DE0
FFF0
1080
6080
ENDCHAR
STARTCHAR 2FD1
ENCODING 12241
SWIDTH 1056 0
DWIDTH 14 0
BBX 13 12 1 -1
BITMAP
0200
FFF0
B910
4EE0
4AA0
92F8
2020
3FC0
2020
3FC0
4020
8020
ENDCHAR
STARTCHAR 2FD2
ENCODING 12242
SWIDTH 1056 0
DWIDTH 14 0
BBX 12 12 1 -1
BITMAP
0200
23E0
2200
FFF0
8890
9990
A650
DDB0
9090
9D90
A270
5DD0
ENDCHAR
STARTCHAR 2FD3
ENCODING 12243
SWIDTH 1056 0
DWIDTH 14 0
BBX 13 12 1 -1
BITMAP
2100
FDF0
4900
48F0
B410
79E0
C5F0
B500
8DF0
F5F0
8508
99F0
ENDCHAR
STARTCHAR 2FD4
ENCODING 12244
SWIDTH 1056 0
DWIDTH 14 0
BBX 13 12 1 -1
BITMAP
1E00
2100
DFE0
5DE0
6500
1500
FFE0
65D0
75A0
FFE0
7408
07F0
ENDCHAR
STARTCHAR 2FD5
ENCODING 12245
SWIDTH 1056 0
DWIDTH 14 0
BBX 13 12 1 -1
BITMAP
0600
0900
7FF0
8008
7FE0
59A0
2640
7FE0
4920
7FE0
4920
4960
ENDCHAR
STARTCHAR 2FF0
ENCODING 12272
SWIDTH 1056 0
DWIDTH 14 0
BBX 13 12 1 -1
BITMAP
AD58
0200
8008
0200
8008
0200
8208
8008
0200
8008
0200
AD58
ENDCHAR
STARTCHAR 2FF1
ENCODING 12273
SWIDTH 1056 0
DWIDTH 14 0
BBX 13 12 1 -1
BITMAP
AD58
0000
8008
0000
8008
56A0
8008
8008
0000
8008
0000
AD58
ENDCHAR
STARTCHAR 2FF2
ENCODING 12274
SWIDTH 1056 0
DWIDTH 14 0
BBX 13 12 1 -1
BITMAP
AD58
0880
8008
0880
8008
0880
8888
8008
0880
8008
0880
AD58
ENDCHAR
STARTCHAR 2FF3
ENCODING 12275
SWIDTH 1056 0
DWIDTH 14 0
BBX 13 12 1 -1
BITMAP
AD58
0000
8008
0000
D6A8
0000
8008
D6A8
0000
8008
0000
AD58
ENDCHAR
STARTCHAR 2FF4
ENCODING 12276
SWIDTH 1056 0
DWIDTH 14 0
BBX 13 12 1 -1
BITMAP
AD58
0000
AD48
0000
A028
0000
A028
A028
0000
AD48
0000
AD58
ENDCHAR
STARTCHAR 2FF5
ENCODING 12277
SWIDTH 1056 0
DWIDTH 14 0
BBX 13 12 1 -1
BITMAP
AD58
0000
8008
1680
8008
1080
9088
8008
1080
8008
1080
AD58
ENDCHAR
STARTCHAR 2FF6
ENCODING 12278
SWIDTH 1056 0
DWIDTH 14 0
BBX 13 12 1 -1
BITMAP
AD58
1080
8008
1080
8008
1080
9088
8008
1680
8008
0000
AD58
ENDCHAR
STARTCHAR 2FF7
ENCODING 12279
SWIDTH 1056 0
DWIDTH 14 0
BBX 13 12 1 -1
BITMAP
AD58
0000
8008
16A0
8008
1000
9008
8008
16A0
8008
0000
AD58
ENDCHAR
STARTCHAR 2FF8
ENCODING 12280
SWIDTH 1056 0
DWIDTH 14 0
BBX 13 12 1 -1
BITMAP
AD58
0000
8008
16A0
8008
1000
9008
8008
1000
8008
1000
AD58
ENDCHAR
STARTCHAR 2FF9
ENCODING 12281
SWIDTH 1056 0
DWIDTH 14 0
BBX 13 12 1 -1
BITMAP
AD58
0000
8008
5680
8008
0080
8088
8008
0080
8008
0080
AD58
ENDCHAR
STARTCHAR 2FFA
ENCODING 12282
SWIDTH 1056 0
DWIDTH 14 0
BBX 13 12 1 -1
BITMAP
AD58
1000
8008
1000
8008
1000
9008
8008
16A0
8008
0000
AD58
ENDCHAR
STARTCHAR 2FFB
ENCODING 12283
SWIDTH 1056 0
DWIDTH 14 0
BBX 13 12 1 -1
BITMAP
AD00
0000
8100
0000
8D58
0000
8908
AD08
0000
0808
0000
0D58
ENDCHAR
STARTCHAR 3000
ENCODING 12288
SWIDTH 1056 0
DWIDTH 14 0
BBX 0 0 0 0
BITMAP
ENDCHAR
STARTCHAR 3001
ENCODING 12289
SWIDTH 1056 0
DWIDTH 14 0
BBX 4 4 5 3
BITMAP
80
40
20
10
ENDCHAR
STARTCHAR 3002
ENCODING 12290
SWIDTH 1056 0
DWIDTH 14 0
BBX 4 4 5 3
BITMAP
60
90
90
60
ENDCHAR
STARTCHAR 3003
ENCODING 12291
SWIDTH 1056 0
DWIDTH 14 0
BBX 7 6 4 2
BITMAP
26
44
44
88
88
90
ENDCHAR
STARTCHAR 3004
ENCODING 12292
SWIDTH 1056 0
DWIDTH 14 0
BBX 13 12 1 -1
BITMAP
1C80
2060
4050
8050
8288
8308
8E08
9208
9010
4810
2860
1380
ENDCHAR
STARTCHAR 3005
ENCODING 12293
SWIDTH 1056 0
DWIDTH 14 0
BBX 10 10 2 0
BITMAP
0800
1000
1FC0
2080
2080
4100
9100
0E00
0200
0180
ENDCHAR
STARTCHAR 3006
ENCODING 12294
SWIDTH 1056 0
DWIDTH 14 0
BBX 9 11 3 -1
BITMAP
0080
0100
4200
3400
0800
0E00
1100
A080
C000
8000
8000
ENDCHAR
STARTCHAR 3007
ENCODING 12295
SWIDTH 1056 0
DWIDTH 14 0
BBX 12 12 1 -1
BITMAP
1F80
2040
4020
8010
8010
8010
8010
8010
8010
4020
2040
1F80
ENDCHAR
STARTCHAR 3008
ENCODING 12296
SWIDTH 1056 0
DWIDTH 14 0
BBX 5 12 9 -1
BITMAP
18
10
20
40
40
80
80
40
40
20
10
08
ENDCHAR
STARTCHAR 3009
ENCODING 12297
SWIDTH 1056 0
DWIDTH 14 0
BBX 4 12 1 -1
BITMAP
80
80
40
20
10
10
10
10
20
40
80
80
ENDCHAR
STARTCHAR 300A
ENCODING 12298
SWIDTH 1056 0
DWIDTH 14 0
BBX 6 12 8 -1
BITMAP
14
28
50
50
A0
A0
A0
A0
50
50
28
14
ENDCHAR
STARTCHAR 300B
ENCODING 12299
SWIDTH 1056 0
DWIDTH 14 0
BBX 6 12 1 -1
BITMAP
A0
A0
50
50
28
14
24
28
50
50
A0
A0
ENDCHAR
STARTCHAR 300C
ENCODING 12300
SWIDTH 1056 0
DWIDTH 14 0
BBX 5 9 9 2
BITMAP
F8
80
80
80
80
80
80
80
80
ENDCHAR
STARTCHAR 300D
ENCODING 12301
SWIDTH 1056 0
DWIDTH 14 0
BBX 4 9 1 -1
BITMAP
10
10
10
10
10
10
10
10
F0
ENDCHAR
STARTCHAR 300E
ENCODING 12302
SWIDTH 1056 0
DWIDTH 14 0
BBX 5 9 9 2
BITMAP
F8
F8
C0
C0
C0
C0
C0
C0
C0
ENDCHAR
STARTCHAR 300F
ENCODING 12303
SWIDTH 1056 0
DWIDTH 14 0
BBX 5 9 1 -1
BITMAP
18
28
28
28
28
28
28
E8
F8
ENDCHAR
STARTCHAR 3010
ENCODING 12304
SWIDTH 1056 0
DWIDTH 14 0
BBX 4 12 10 -1
BITMAP
F0
C0
C0
80
80
80
80
80
80
C0
C0
F0
ENDCHAR
STARTCHAR 3011
ENCODING 12305
SWIDTH 1056 0
DWIDTH 14 0
BBX 4 12 1 -1
BITMAP
F0
70
30
30
30
30
30
30
30
30
70
F0
ENDCHAR
STARTCHAR 3012
ENCODING 12306
SWIDTH 1056 0
DWIDTH 14 0
BBX 10 9 2 0
BITMAP
FFC0
0000
FFC0
0400
0400
0400
0400
0400
0400
ENDCHAR
STARTCHAR 3013
ENCODING 12307
SWIDTH 1056 0
DWIDTH 14 0
BBX 12 10 1 0
BITMAP
FFF0
FFF0
FFF0
FFF0
0000
0000
FFF0
FFF0
FFF0
FFF0
ENDCHAR
STARTCHAR 3014
ENCODING 12308
SWIDTH 1056 0
DWIDTH 14 0
BBX 4 12 10 -1
BITMAP
30
C0
80
80
80
80
80
80
80
80
C0
30
ENDCHAR
STARTCHAR 3015
ENCODING 12309
SWIDTH 1056 0
DWIDTH 14 0
BBX 3 12 1 -1
BITMAP
C0
20
20
20
20
20
20
20
20
20
20
C0
ENDCHAR
STARTCHAR 3016
ENCODING 12310
SWIDTH 1056 0
DWIDTH 14 0
BBX 5 12 9 -1
BITMAP
F8
A0
C0
80
80
80
80
80
80
C0
A0
F8
ENDCHAR
STARTCHAR 3017
ENCODING 12311
SWIDTH 1056 0
DWIDTH 14 0
BBX 4 12 1 -1
BITMAP
F0
50
30
10
10
10
10
10
10
30
50
F0
ENDCHAR
STARTCHAR 3018
ENCODING 12312
SWIDTH 1056 0
DWIDTH 14 0
BBX 5 12 9 -1
BITMAP
78
90
A0
A0
A0
A0
A0
A0
A0
A0
D0
38
ENDCHAR
STARTCHAR 3019
ENCODING 12313
SWIDTH 1056 0
DWIDTH 14 0
BBX 5 12 0 -1
BITMAP
F0
48
38
18
18
18
18
18
18
28
C8
70
ENDCHAR
STARTCHAR 301A
ENCODING 12314
SWIDTH 1056 0
DWIDTH 14 0
BBX 4 12 10 -1
BITMAP
F0
A0
A0
A0
A0
A0
A0
A0
A0
A0
A0
F0
ENDCHAR
STARTCHAR 301B
ENCODING 12315
SWIDTH 1056 0
DWIDTH 14 0
BBX 4 12 0 -1
BITMAP
F0
30
30
30
30
30
30
30
30
30
30
F0
ENDCHAR
STARTCHAR 301C
ENCODING 12316
SWIDTH 1056 0
DWIDTH 14 0
BBX 13 4 1 3
BITMAP
3800
C408
8330
00C0
ENDCHAR
STARTCHAR 301D
ENCODING 12317
SWIDTH 1056 0
DWIDTH 14 0
BBX 3 5 10 6
BITMAP
80
60
80
40
20
ENDCHAR
STARTCHAR 301E
ENCODING 12318
SWIDTH 1056 0
DWIDTH 14 0
BBX 4 5 1 6
BITMAP
30
C0
30
40
80
ENDCHAR
STARTCHAR 301F
ENCODING 12319
SWIDTH 1056 0
DWIDTH 14 0
BBX 4 5 1 -1
BITMAP
80
40
30
C0
30
ENDCHAR
STARTCHAR 3020
ENCODING 12320
SWIDTH 1056 0
DWIDTH 14 0
BBX 13 10 1 0
BITMAP
7FE0
7FE0
7FE0
7FE0
FED8
B6A8
B650
50A0
2F60
1F80
ENDCHAR
STARTCHAR 3021
ENCODING 12321
SWIDTH 1056 0
DWIDTH 14 0
BBX 1 12 7 -1
BITMAP
80
80
80
80
80
80
80
80
80
80
80
80
ENDCHAR
STARTCHAR 3022
ENCODING 12322
SWIDTH 1056 0
DWIDTH 14 0
BBX 4 12 5 -1
BITMAP
10
10
90
90
90
90
90
90
90
90
10
10
ENDCHAR
STARTCHAR 3023
ENCODING 12323
SWIDTH 1056 0
DWIDTH 14 0
BBX 7 12 4 -1
BITMAP
02
82
92
92
92
92
92
92
92
82
02
02
ENDCHAR
STARTCHAR 3024
ENCODING 12324
SWIDTH 1056 0
DWIDTH 14 0
BBX 10 10 2 0
BITMAP
0080
2080
1100
0900
0600
0200
0500
1880
2040
C040
ENDCHAR
STARTCHAR 3025
ENCODING 12325
SWIDTH 1056 0
DWIDTH 14 0
BBX 7 10 4 0
BITMAP
48
84
84
C8
30
CC
82
82
82
7C
ENDCHAR
STARTCHAR 3026
ENCODING 12326
SWIDTH 1056 0
DWIDTH 14 0
BBX 12 4 1 6
BITMAP
0200
0200
0200
FFF0
ENDCHAR
STARTCHAR 3027
ENCODING 12327
SWIDTH 1056 0
DWIDTH 14 0
BBX 12 7 1 3
BITMAP
0200
0200
0000
FFF0
0000
0000
3FC0
ENDCHAR
STARTCHAR 3028
ENCODING 12328
SWIDTH 1056 0
DWIDTH 14 0
BBX 12 10 1 0
BITMAP
0200
0200
FFF0
0000
0000
3FC0
0000
0000
0000
FFF0
ENDCHAR
STARTCHAR 3029
ENCODING 12329
SWIDTH 1056 0
DWIDTH 14 0
BBX 12 11 1 0
BITMAP
0200
0200
7F80
0040
2040
1080
0900
0500
0700
18C0
E030
ENDCHAR
STARTCHAR 302A
ENCODING 12330
SWIDTH 0 0
DWIDTH 0 0
BBX 2 2 -14 -4
BITMAP
C0
C0
ENDCHAR
STARTCHAR 302B
ENCODING 12331
SWIDTH 0 0
DWIDTH 0 0
BBX 2 2 -14 12
BITMAP
C0
C0
ENDCHAR
STARTCHAR 302C
ENCODING 12332
SWIDTH 0 0
DWIDTH 0 0
BBX 2 2 -2 12
BITMAP
C0
C0
ENDCHAR
STARTCHAR 302D
ENCODING 12333
SWIDTH 0 0
DWIDTH 0 0
BBX 2 2 -2 -4
BITMAP
C0
C0
ENDCHAR
STARTCHAR 302E
ENCODING 12334
SWIDTH 301 0
DWIDTH 4 0
BBX 2 2 1 4
BITMAP
C0
80
ENDCHAR
STARTCHAR 302F
ENCODING 12335
SWIDTH 301 0
DWIDTH 4 0
BBX 2 4 1 3
BITMAP
C0
80
80
C0
ENDCHAR
STARTCHAR 3030
ENCODING 12336
SWIDTH 1056 0
DWIDTH 14 0
BBX 14 4 0 3
BITMAP
8304
4488
2448
1830
ENDCHAR
STARTCHAR 3031
ENCODING 12337
SWIDTH 1056 0
DWIDTH 14 0
BBX 7 24 3 -7
BITMAP
04
04
08
08
10
20
20
40
40
80
80
80
80
40
40
20
20
10
10
08
04
04
02
02
ENDCHAR
STARTCHAR 3032
ENCODING 12338
SWIDTH 1056 0
DWIDTH 14 0
BBX 9 24 3 -7
BITMAP
0400
0400
0800
0800
1100
2500
2280
4000
4000
8000
8000
8000
8000
4000
4000
2000
2000
1000
1000
0800
0400
0400
0200
0200
ENDCHAR
STARTCHAR 3033
ENCODING 12339
SWIDTH 1056 0
DWIDTH 14 0
BBX 6 13 3 -2
BITMAP
04
04
08
08
10
10
20
20
40
40
80
80
80
ENDCHAR
STARTCHAR 3034
ENCODING 12340
SWIDTH 1056 0
DWIDTH 14 0
BBX 9 13 3 -2
BITMAP
0200
0400
0800
0800
1000
1500
2280
2200
4000
4000
8000
8000
8000
ENDCHAR
STARTCHAR 3035
ENCODING 12341
SWIDTH 1056 0
DWIDTH 14 0
BBX 7 13 3 -1
BITMAP
80
80
40
20
20
10
10
08
08
04
04
02
02
ENDCHAR
STARTCHAR 3036
ENCODING 12342
SWIDTH 1056 0
DWIDTH 14 0
BBX 13 12 1 -1
BITMAP
1FC0
6020
8010
BFD0
8008
BFC8
8608
8608
8610
4610
2060
1F80
ENDCHAR
STARTCHAR 3037
ENCODING 12343
SWIDTH 1056 0
DWIDTH 14 0
BBX 13 12 1 -1
BITMAP
8510
8910
4890
50A0
30A0
2040
2040
3060
50A0
4910
8910
8608
ENDCHAR
STARTCHAR 3038
ENCODING 12344
SWIDTH 1056 0
DWIDTH 14 0
BBX 12 12 1 -1
BITMAP
0200
0200
0200
0200
FFF0
0200
0200
0200
0200
0200
0200
0200
ENDCHAR
STARTCHAR 3039
ENCODING 12345
SWIDTH 1056 0
DWIDTH 14 0
BBX 12 12 1 -1
BITMAP
0880
0880
0880
0880
FFF0
0880
0880
0880
0880
0880
0880
0880
ENDCHAR
STARTCHAR 303A
ENCODING 12346
SWIDTH 1056 0
DWIDTH 14 0
BBX 12 12 1 -1
BITMAP
1040
1240
1240
1240
FFF0
1240
2240
2240
2240
2240
4240
4040
ENDCHAR
STARTCHAR 303B
ENCODING 12347
SWIDTH 1056 0
DWIDTH 14 0
BBX 6 12 4 -1
BITMAP
80
40
20
10
1C
E0
80
40
30
0C
30
40
ENDCHAR
STARTCHAR 303C
ENCODING 12348
SWIDTH 1056 0
DWIDTH 14 0
BBX 11 10 2 0
BITMAP
FFE0
80A0
8120
8220
8420
8820
9020
A020
C020
FFE0
ENDCHAR
STARTCHAR 303D
ENCODING 12349
SWIDTH 1056 0
DWIDTH 14 0
BBX 12 10 1 0
BITMAP
0200
7500
8900
0080
0080
0040
0040
0020
0010
0010
ENDCHAR
STARTCHAR 303E
ENCODING 12350
SWIDTH 1056 0
DWIDTH 14 0
BBX 13 12 1 -1
BITMAP
AD58
0000
8008
1C80
8308
0200
9F88
9F88
0400
8008
0000
AD58
ENDCHAR
STARTCHAR 303F
ENCODING 12351
SWIDTH 1056 0
DWIDTH 14 0
BBX 8 10 3 0
BITMAP
FF
C3
A5
95
89
89
95
A5
C3
FF
ENDCHAR
STARTCHAR 3041
ENCODING 12353
SWIDTH 1056 0
DWIDTH 14 0
BBX 9 9 3 0
BITMAP
1000
1700
F800
1A00
2500
5480
9880
9080
F700
ENDCHAR
STARTCHAR 3042
ENCODING 12354
SWIDTH 1056 0
DWIDTH 14 0
BBX 11 10 2 0
BITMAP
1000
FF80
1000
1F00
31C0
5220
9420
9820
9040
EB80
ENDCHAR
STARTCHAR 3043
ENCODING 12355
SWIDTH 1056 0
DWIDTH 14 0
BBX 9 7 3 0
BITMAP
8200
8100
8100
8080
8880
9000
7000
ENDCHAR
STARTCHAR 3044
ENCODING 12356
SWIDTH 1056 0
DWIDTH 14 0
BBX 11 9 2 0
BITMAP
8080
8080
8040
8040
8020
8020
8420
4800
3000
ENDCHAR
STARTCHAR 3045
ENCODING 12357
SWIDTH 1056 0
DWIDTH 14 0
BBX 7 9 4 -1
BITMAP
7C
00
7C
82
02
02
04
18
60
ENDCHAR
STARTCHAR 3046
ENCODING 12358
SWIDTH 1056 0
DWIDTH 14 0
BBX 8 10 3 0
BITMAP
7E
00
00
FE
01
01
01
01
02
3C
ENDCHAR
STARTCHAR 3047
ENCODING 12359
SWIDTH 1056 0
DWIDTH 14 0
BBX 9 8 3 0
BITMAP
3E00
0000
7E00
0400
0800
3800
4400
8780
ENDCHAR
STARTCHAR 3048
ENCODING 12360
SWIDTH 1056 0
DWIDTH 14 0
BBX 11 10 2 0
BITMAP
3F00
0000
0000
7F00
0200
0400
1800
2400
4200
83E0
ENDCHAR
STARTCHAR 3049
ENCODING 12361
SWIDTH 1056 0
DWIDTH 14 0
BBX 9 9 3 -1
BITMAP
2000
3D00
E080
2000
3F00
6080
A080
A300
4C00
ENDCHAR
STARTCHAR 304A
ENCODING 12362
SWIDTH 1056 0
DWIDTH 14 0
BBX 11 10 2 0
BITMAP
1000
1280
FC60
1000
1300
3C80
5040
9040
9040
7780
ENDCHAR
STARTCHAR 304B
ENCODING 12363
SWIDTH 1056 0
DWIDTH 14 0
BBX 13 10 1 0
BITMAP
0800
0840
0F20
F090
1090
1088
2080
2100
4100
4F00
ENDCHAR
STARTCHAR 304C
ENCODING 12364
SWIDTH 1056 0
DWIDTH 14 0
BBX 13 11 1 0
BITMAP
0030
0828
0820
3E40
D120
1110
1110
2100
2100
4100
CE00
ENDCHAR
STARTCHAR 304D
ENCODING 12365
SWIDTH 1056 0
DWIDTH 14 0
BBX 10 10 2 0
BITMAP
0400
7F80
0200
02C0
FD00
0100
0380
4000
4000
7F00
ENDCHAR
STARTCHAR 304E
ENCODING 12366
SWIDTH 1056 0
DWIDTH 14 0
BBX 11 11 2 0
BITMAP
0020
04A0
FF40
0400
02C0
FF00
0100
0700
8000
8000
7F00
ENDCHAR
STARTCHAR 304F
ENCODING 12367
SWIDTH 1056 0
DWIDTH 14 0
BBX 7 11 3 -1
BITMAP
06
08
10
60
80
80
60
10
08
04
02
ENDCHAR
STARTCHAR 3050
ENCODING 12368
SWIDTH 1056 0
DWIDTH 14 0
BBX 9 11 3 -1
BITMAP
0400
0800
3500
4280
8200
8000
6000
1000
0800
0400
0200
ENDCHAR
STARTCHAR 3051
ENCODING 12369
SWIDTH 1056 0
DWIDTH 14 0
BBX 11 11 2 -1
BITMAP
8080
8080
80E0
8F80
8080
8080
C080
C080
8100
8200
0400
ENDCHAR
STARTCHAR 3052
ENCODING 12370
SWIDTH 1056 0
DWIDTH 14 0
BBX 12 12 2 -1
BITMAP
0020
80D0
80A0
80A0
8FC0
8080
8080
C080
C100
8100
8200
0400
ENDCHAR
STARTCHAR 3053
ENCODING 12371
SWIDTH 1056 0
DWIDTH 14 0
BBX 9 9 3 0
BITMAP
7F00
0000
0000
0000
0000
8000
8000
8000
7F80
ENDCHAR
STARTCHAR 3054
ENCODING 12372
SWIDTH 1056 0
DWIDTH 14 0
BBX 11 11 3 0
BITMAP
0040
00A0
FF80
0000
0000
0000
0000
8000
8000
8000
FF80
ENDCHAR
STARTCHAR 3055
ENCODING 12373
SWIDTH 1056 0
DWIDTH 14 0
BBX 10 10 2 0
BITMAP
0400
0240
FF80
0100
0100
0080
4380
4000
4000
3F80
ENDCHAR
STARTCHAR 3056
ENCODING 12374
SWIDTH 1056 0
DWIDTH 14 0
BBX 12 11 2 0
BITMAP
00A0
0450
0240
FF80
0200
0100
0080
4380
4000
4000
7F80
ENDCHAR
STARTCHAR 3057
ENCODING 12375
SWIDTH 1056 0
DWIDTH 14 0
BBX 9 10 4 0
BITMAP
8000
8000
8000
8000
8000
8000
8000
8080
8100
FE00
ENDCHAR
STARTCHAR 3058
ENCODING 12376
SWIDTH 1056 0
DWIDTH 14 0
BBX 8 11 4 -1
BITMAP
82
8A
85
80
80
80
80
81
81
86
78
ENDCHAR
STARTCHAR 3059
ENCODING 12377
SWIDTH 1056 0
DWIDTH 14 0
BBX 12 10 1 0
BITMAP
0100
FFF0
0100
0700
0900
1100
0900
0700
0200
0C00
ENDCHAR
STARTCHAR 305A
ENCODING 12378
SWIDTH 1056 0
DWIDTH 14 0
BBX 12 12 1 -1
BITMAP
0020
0250
7FF0
8200
0E00
1200
1100
1100
0F00
0200
0400
1800
ENDCHAR
STARTCHAR 305B
ENCODING 12379
SWIDTH 1056 0
DWIDTH 14 0
BBX 12 10 1 0
BITMAP
1080
1080
1080
FFF0
1080
1080
1380
1000
1000
0FC0
ENDCHAR
STARTCHAR 305C
ENCODING 12380
SWIDTH 1056 0
DWIDTH 14 0
BBX 14 10 0 0
BITMAP
0058
0854
0840
1FF8
F040
1040
11C0
1000
0800
0FE0
ENDCHAR
STARTCHAR 305D
ENCODING 12381
SWIDTH 1056 0
DWIDTH 14 0
BBX 10 10 2 0
BITMAP
3F00
0200
0400
0800
7FC0
8800
1000
1000
1000
0F00
ENDCHAR
STARTCHAR 305E
ENCODING 12382
SWIDTH 1056 0
DWIDTH 14 0
BBX 12 10 1 0
BITMAP
1F80
0160
0650
0800
7FE0
8400
0800
0800
0800
0780
ENDCHAR
STARTCHAR 305F
ENCODING 12383
SWIDTH 1056 0
DWIDTH 14 0
BBX 11 10 2 0
BITMAP
1000
1400
F800
23C0
2020
2000
4000
4400
4400
83E0
ENDCHAR
STARTCHAR 3060
ENCODING 12384
SWIDTH 1056 0
DWIDTH 14 0
BBX 12 10 1 0
BITMAP
0850
1030
FE00
1000
13E0
2000
2000
2400
4400
43E0
ENDCHAR
STARTCHAR 3061
ENCODING 12385
SWIDTH 1056 0
DWIDTH 14 0
BBX 10 10 2 0
BITMAP
1000
9F80
6000
2000
2700
3880
4040
0040
0040
1F80
ENDCHAR
STARTCHAR 3062
ENCODING 12386
SWIDTH 1056 0
DWIDTH 14 0
BBX 12 12 1 -1
BITMAP
0050
1030
13E0
FC00
1000
2000
3FC0
2020
2020
0040
0080
1F00
ENDCHAR
STARTCHAR 3063
ENCODING 12387
SWIDTH 1056 0
DWIDTH 14 0
BBX 9 6 3 0
BITMAP
7F00
8080
0080
0080
0100
3E00
ENDCHAR
STARTCHAR 3064
ENCODING 12388
SWIDTH 1056 0
DWIDTH 14 0
BBX 12 8 1 0
BITMAP
1FE0
E010
0010
0010
0010
0020
01C0
0E00
ENDCHAR
STARTCHAR 3065
ENCODING 12389
SWIDTH 1056 0
DWIDTH 14 0
BBX 12 11 1 0
BITMAP
0020
0050
0020
1FC0
E020
0010
0010
0010
0020
00C0
0F00
ENDCHAR
STARTCHAR 3066
ENCODING 12390
SWIDTH 1056 0
DWIDTH 14 0
BBX 12 9 1 0
BITMAP
FFF0
0200
0400
0400
0800
0800
0400
0600
01C0
ENDCHAR
STARTCHAR 3067
ENCODING 12391
SWIDTH 1056 0
DWIDTH 14 0
BBX 12 9 1 0
BITMAP
FFE0
0220
0450
0450
0820
0800
0400
0400
03C0
ENDCHAR
ENDFONT
